<svg version="1" viewBox="0 0 16 16.004" xmlns="http://www.w3.org/2000/svg">
	<rect y=".0039997" width="16" height="16" rx="2" ry="2" fill="#5d7149" fill-rule="evenodd"/>
	<g transform="matrix(.86431 0 0 .86431 1.0852 .95087)" fill="#f9f9f9">
		<path d="m8 4.846v10.38l-2.344-2.288-1.34 2.734c-0.327 0.74-2.033 0.145-1.548-0.844l1.326-2.839h-2.958z" display="block" overflow="visible"/>
		<path d="m7.156 1.063c-3.826 0.459-6.578 3.957-6.093 7.78 0.131 1.035 0.293 1.383 0.293 1.383l1.675-1.632a4.992 4.992 0 0 1 4.375-5.564 4.992 4.992 0 0 1 5.563 4.375c0.314 2.608-1.391 5.025-3.969 5.532l0.031 2s0.521-0.106 0.624-0.131c3.416-0.834 5.706-4.128 5.283-7.65-0.46-3.827-3.955-6.555-7.782-6.095z" overflow="visible"/>
		<path d="m4.113 7.815v-0.206l-0.198 0.019 0.05-0.393h-0.117l-0.115 0.15-0.116 0.056-0.165-0.093-0.017-0.206 0.033-0.225 0.248-0.186h0.199l0.033-0.113 0.247 0.056 0.182 0.225 0.033-0.374 0.314-0.262 0.116-0.28 0.231-0.094 0.133-0.187 0.297-0.056 0.149-0.225h-0.446l0.28-0.13h0.199l0.28-0.094 0.034-0.112-0.1-0.094-0.115-0.037 0.033-0.112-0.083-0.169-0.198 0.075 0.033-0.15-0.231-0.13-0.182 0.317 0.017 0.113-0.182 0.075-0.116 0.243-0.05-0.225-0.313-0.13-0.05-0.169 0.413-0.243 0.182-0.168 0.017-0.206-0.1-0.056-0.132-0.019-0.082 0.206s-0.139 0.027-0.174 0.036c-0.454 0.418-1.37 1.32-1.584 3.024 8e-3 0.04 0.155 0.268 0.155 0.268l0.347 0.206 0.347 0.093m3.966-4.3-0.43-0.168-0.496 0.056-0.611 0.168-0.116 0.112 0.38 0.262v0.15l-0.149 0.15 0.199 0.392 0.132-0.075 0.165-0.262a5.51 5.51 0 0 0 0.727-0.28l0.199-0.505m2.529 0.342-0.375 0.094-0.219 0.156v0.125l-0.375 0.25 0.094 0.344 0.219-0.157 0.125 0.157 0.156 0.093 0.094-0.28-0.063-0.157 0.063-0.094 0.218-0.187h0.094l-0.094 0.218v0.188c0.09-0.024 0.16-0.051 0.25-0.063l-0.25 0.188v0.125l-0.312 0.219-0.281-0.063v-0.156l-0.125 0.062 0.062 0.157h-0.219l-0.125 0.218-0.156 0.157-0.094 0.03v0.188l0.032 0.157h-0.033v0.53l0.063-0.03 0.094-0.219 0.188-0.125 0.031-0.094 0.282-0.062 0.156 0.187 0.187 0.094-0.093 0.187 0.156-0.03 0.062-0.22-0.187-0.218h0.062l0.22 0.156 0.03 0.219 0.157 0.219 0.062-0.313 0.094-0.031c0.096 0.1 0.169 0.231 0.25 0.344h0.281l0.188 0.125-0.094 0.093-0.156 0.157h-0.25l-0.344-0.094h-0.188l-0.125 0.156-0.343-0.375-0.25-0.062-0.375 0.062-0.157 0.094v2.406l0.032 0.031 0.25-0.156 0.093 0.094h0.281l0.125 0.156-0.093 0.312 0.187 0.188v0.375l0.125 0.25-0.093 0.25c-0.01 0.161 0 0.307 0 0.469 0.08 0.219 0.143 0.435 0.218 0.656l0.063 0.344v0.187h0.125l0.219-0.125h0.25l0.375-0.437-0.032-0.157 0.25-0.218-0.187-0.188 0.219-0.187 0.218-0.125 0.094-0.125-0.062-0.25v-0.594l0.187-0.375 0.188-0.25 0.25-0.563v-0.156c-0.117 0.015-0.23 0.023-0.344 0.031-0.072 5e-3 -0.145 0-0.219 0a7.442 7.442 0 0 1-0.312-0.78l-0.157-0.188-0.093-0.313 0.062-0.062 0.219 0.25 0.25 0.562 0.156 0.156-0.062 0.22 0.156 0.155 0.25-0.25 0.312-0.218 0.157-0.188v-0.219c-0.04-0.073-0.055-0.145-0.094-0.218l-0.156 0.187-0.125-0.156-0.188-0.125v-0.281l0.219 0.218 0.219-0.03c0.101 0.091 0.192 0.207 0.28 0.312l0.157-0.189c0-0.174-0.2-1.02-0.625-1.75s-1.155-1.405-1.155-1.405l-0.063 0.094-0.218 0.218-0.25-0.25h0.25l0.125-0.125-0.47-0.093z" opacity=".3" overflow="visible"/>
	</g>
</svg>
