<?xml version="1.0" encoding="UTF-8" standalone="no"?>
<!-- Generator: Adobe Illustrator 16.0.0, SVG Export Plug-In . SVG Version: 6.00 Build 0)  -->

<svg
   xmlns:dc="http://purl.org/dc/elements/1.1/"
   xmlns:cc="http://creativecommons.org/ns#"
   xmlns:rdf="http://www.w3.org/1999/02/22-rdf-syntax-ns#"
   xmlns:svg="http://www.w3.org/2000/svg"
   xmlns="http://www.w3.org/2000/svg"
   xmlns:sodipodi="http://sodipodi.sourceforge.net/DTD/sodipodi-0.dtd"
   xmlns:inkscape="http://www.inkscape.org/namespaces/inkscape"
   version="1.1"
   id="Layer_1"
   x="0px"
   y="0px"
   width="1199.9618"
   height="441.95993"
   viewBox="0 0 1199.9618 441.95993"
   enable-background="new 0 0 1223.902 504"
   xml:space="preserve"
   sodipodi:docname="KernvilleCowork2018FINALv1.1.svg"
   inkscape:export-filename="C:\Users\justin\Google Drive\KernvilleCowork\Graphics\KernvilleCowork2018FINAL_442h.png"
   inkscape:export-xdpi="96.008705"
   inkscape:export-ydpi="96.008705"
   inkscape:version="0.92.2 (5c3e80d, 2017-08-06)"><metadata
     id="metadata3979"><rdf:RDF><cc:Work
         rdf:about=""><dc:format>image/svg+xml</dc:format><dc:type
           rdf:resource="http://purl.org/dc/dcmitype/StillImage" /><dc:title></dc:title></cc:Work></rdf:RDF></metadata><defs
     id="defs3977" /><sodipodi:namedview
     pagecolor="#ffffff"
     bordercolor="#666666"
     borderopacity="1"
     objecttolerance="10"
     gridtolerance="10"
     guidetolerance="10"
     inkscape:pageopacity="0"
     inkscape:pageshadow="2"
     inkscape:window-width="1920"
     inkscape:window-height="1001"
     id="namedview3975"
     showgrid="false"
     inkscape:zoom="1.0860616"
     inkscape:cx="594.68971"
     inkscape:cy="164.20087"
     inkscape:window-x="-9"
     inkscape:window-y="-9"
     inkscape:window-maximized="1"
     inkscape:current-layer="g3880" /><path
     d="m 312.91,201.49018 c 0.264,0.215 0.392,0.517 0.392,0.906 0,0.264 -0.175,0.914 -0.52,1.958 -0.176,-0.041 -0.326,-0.063 -0.456,-0.063 -0.26,0 -0.599,0.11 -1.009,0.33 -0.408,0.214 -0.73,0.322 -0.944,0.322 -0.22,0 -0.458,-0.089 -0.718,-0.259 -2.902,-1.829 -7.418,-4.571 -13.528,-8.224 0.129,1.608 0.238,3.914 0.323,6.916 0,0.352 0.041,0.868 0.131,1.566 0.085,0.698 0.129,1.197 0.129,1.502 0,1.044 -0.454,1.754 -1.364,2.154 -0.264,0.17 -0.63,0.26 -1.106,0.26 -0.521,0 -0.847,-0.157 -0.979,-0.458 -1.129,-0.392 -1.777,-1.15 -1.953,-2.283 -0.518,-3.13 -0.778,-6.803 -0.778,-11.028 0,-1.523 0.04,-3.792 0.128,-6.817 0.088,-3.024 0.132,-5.294 0.132,-6.816 0,-4.614 -0.304,-8.613 -0.91,-12.006 -0.088,-0.521 0.213,-0.87 0.91,-1.046 0.518,-0.085 1.059,-0.17 1.624,-0.26 0.564,0.175 1.147,0.38 1.759,0.623 0.607,0.235 0.93,0.619 0.975,1.141 0.65,5.917 0.931,10.613 0.847,14.09 1.778,-1.603 3.814,-3.738 6.117,-6.395 1.949,-2.213 3.878,-4.455 5.791,-6.715 0.517,-0.22 1.082,-0.327 1.692,-0.327 1.689,0 2.578,0.585 2.666,1.754 -1.217,2.708 -3.604,5.904 -7.156,9.596 -4.163,4.308 -6.832,7.375 -8.004,9.199 2.69,1.61 5.399,3.222 8.134,4.829 3.036,1.91 5.596,3.763 7.675,5.551 z"
     id="path3840"
     inkscape:connector-curvature="0"
     style="fill:#414042" /><path
     d="m 345.119,172.45118 c -1.603,0.654 -3.966,1.411 -7.089,2.281 -3.125,0.873 -5.486,1.636 -7.095,2.287 -0.389,1.132 -0.674,3.653 -0.843,7.566 0.692,0.266 1.499,0.393 2.405,0.393 0.651,0 1.674,-0.106 3.059,-0.319 1.386,-0.222 2.408,-0.334 3.054,-0.334 1.22,0 2.257,0.26 3.127,0.786 0.607,0.868 0.912,1.434 0.912,1.698 0,0.302 -0.153,0.54 -0.454,0.713 -0.092,0.043 -0.39,0.35 -0.914,0.916 -0.344,0.392 -0.779,0.562 -1.298,0.522 -0.916,0.22 -2.583,0.345 -5.012,0.392 -2.039,0.042 -3.666,0.306 -4.879,0.776 -0.827,3.226 -1.239,5.766 -1.239,7.634 0,1.263 0.172,2.263 0.524,3.005 2.038,1.433 5.571,2.05 10.606,1.823 0.345,0 0.716,-0.158 1.104,-0.49 0.392,-0.321 0.718,-0.485 0.975,-0.485 1.213,-0.261 2.016,0.653 2.411,2.738 0.129,0.694 0.01,1.336 -0.357,1.927 -0.376,0.585 -0.906,0.902 -1.596,0.944 -5.252,0.175 -9.801,-0.239 -13.667,-1.239 -1.213,-0.305 -2.32,-0.978 -3.317,-2.019 -0.997,-1.043 -1.563,-2.22 -1.693,-3.527 -0.385,-3.786 -0.385,-7.18 0,-10.174 -1.213,-0.83 -1.752,-1.634 -1.624,-2.414 0.041,-0.396 0.376,-0.754 1.006,-1.074 0.631,-0.334 0.985,-0.667 1.072,-1.019 0.088,-0.347 0.264,-2.412 0.523,-6.194 -2.433,-0.479 -3.62,-1.39 -3.58,-2.742 0.041,-1.264 0.802,-2.261 2.276,-3 1.388,-0.566 2.777,-1.133 4.17,-1.701 1.646,-0.824 3.68,-1.562 6.113,-2.216 2.082,-0.566 4.186,-1.107 6.314,-1.629 0.213,-0.045 0.473,-0.067 0.774,-0.067 1.172,0 2.54,0.45 4.1,1.369 0.044,0.175 0.151,0.502 0.327,0.98 0.17,0.481 0.26,0.824 0.26,1.038 0.002,0.352 -0.148,0.644 -0.455,0.855 z"
     id="path3842"
     inkscape:connector-curvature="0"
     style="fill:#414042" /><path
     d="m 380.908,205.76018 c 0.128,0.164 0.194,0.346 0.194,0.553 0,0.944 -1.044,1.663 -3.124,2.155 -2.304,-1.683 -5.163,-4.274 -8.59,-7.762 -3.812,-3.9 -6.659,-6.612 -8.521,-8.13 -0.131,1.068 -0.368,3.867 -0.711,8.378 -0.223,3.411 -0.616,6.115 -1.179,8.133 -0.085,0 -0.355,0.101 -0.813,0.308 -0.451,0.201 -0.831,0.264 -1.135,0.188 -1.912,-0.414 -2.869,-1.663 -2.869,-3.762 0,-0.617 0.091,-1.437 0.267,-2.466 0.169,-1.19 0.279,-1.933 0.322,-2.219 0.176,-2.373 0.283,-5.215 0.327,-8.497 v -6.722 c 0,-5.578 0.326,-10.281 0.975,-14.104 0.434,-2.542 2.969,-3.716 7.613,-3.511 2.345,0.082 4.383,1.191 6.117,3.326 1.605,1.971 2.405,4.108 2.405,6.41 0,1.931 -0.755,3.858 -2.276,5.788 -1.301,1.727 -2.907,3.081 -4.816,4.072 -0.777,0.408 -1.169,0.859 -1.169,1.352 0,0.534 0.454,1.17 1.366,1.912 0.696,0.531 1.39,1.062 2.085,1.597 0.041,0.044 2.423,2.094 7.154,6.169 2.991,2.538 5.117,4.82 6.378,6.832 z m -13.73,-27.663 c 0.125,-0.739 0.172,-1.396 0.125,-1.971 -0.125,-0.865 -0.504,-1.642 -1.135,-2.339 -0.629,-0.701 -1.64,-1.05 -3.024,-1.05 -1.038,0 -1.693,0.309 -1.95,0.924 -0.22,1.029 -0.326,2.194 -0.326,3.509 0,0.534 0.062,1.911 0.194,4.125 0.085,1.69 0.085,3.062 0,4.13 3.599,-2.541 5.643,-4.989 6.116,-7.328 z"
     id="path3844"
     inkscape:connector-curvature="0"
     style="fill:#414042" /><path
     d="m 412.919,169.36018 c -0.611,4.852 -1.194,9.72 -1.763,14.613 -0.736,5.79 -1.101,10.626 -1.101,14.499 0,1.271 0.045,2.515 0.126,3.748 0.05,0.584 -0.204,1.088 -0.746,1.521 -0.54,0.434 -1.16,0.654 -1.856,0.654 -1.345,0 -2.471,-0.761 -3.383,-2.283 -2.774,-4.527 -6.224,-11.62 -10.344,-21.29 -0.091,-0.217 -0.193,-0.326 -0.326,-0.326 -0.303,0 -0.502,0.25 -0.582,0.754 -0.738,5.181 -1.111,10.631 -1.111,16.354 0,2.754 0.089,5.558 0.264,8.419 0.038,1.049 -0.326,1.77 -1.106,2.172 -0.304,0.251 -0.63,0.38 -0.98,0.38 -0.295,0 -0.691,-0.109 -1.167,-0.322 -0.648,-0.257 -1.066,-0.421 -1.235,-0.493 -0.564,-0.148 -0.908,-0.582 -1.041,-1.305 -0.047,-0.582 -0.088,-1.176 -0.131,-1.792 -0.129,-2.032 -0.195,-4.151 -0.195,-6.358 0,-3.835 0.26,-8.635 0.78,-14.392 0.825,-8.759 1.28,-13.613 1.365,-14.557 0.047,-0.795 0.846,-1.194 2.407,-1.194 0.739,-0.073 1.825,0.38 3.258,1.358 1.39,2.213 3.098,5.797 5.142,10.752 1.947,4.747 3.728,8.35 5.329,10.808 0.653,-4.81 1.672,-12.091 3.058,-21.832 0.132,-0.723 0.762,-1.087 1.89,-1.087 0.394,0 0.844,0.057 1.368,0.164 0.689,0.144 1.106,0.236 1.231,0.274 0.434,0.145 0.717,0.396 0.849,0.761 z"
     id="path3846"
     inkscape:connector-curvature="0"
     style="fill:#414042" /><path
     d="m 449.686,171.10218 c -1.693,2.641 -4.095,7.583 -7.221,14.826 -0.912,2.132 -2,5.666 -3.254,10.589 -1.216,4.71 -2.383,8.274 -3.512,10.702 -0.391,0.358 -0.846,0.544 -1.366,0.544 -0.612,0 -1.39,-0.273 -2.343,-0.814 -1.689,-3.371 -3.668,-8.91 -5.922,-16.619 -2.127,-7.351 -4.255,-12.943 -6.374,-16.788 0.564,-0.902 1.04,-1.351 1.433,-1.351 0.344,-0.19 0.687,-0.278 1.037,-0.278 0.696,0 1.906,0.544 3.645,1.629 1.563,2.974 3.056,6.608 4.492,10.922 1.125,3.729 2.272,7.438 3.445,11.128 1.605,-4.417 3.211,-8.85 4.816,-13.305 1.902,-4.998 3.858,-9.305 5.853,-12.927 0.649,-0.943 1.781,-1.249 3.387,-0.92 0.169,0.034 0.392,0.17 0.648,0.405 0.257,0.239 0.584,0.365 0.975,0.38 0.394,0.019 0.587,0.28 0.587,0.788 0,0.36 -0.107,0.727 -0.326,1.089 z"
     id="path3848"
     inkscape:connector-curvature="0"
     style="fill:#414042" /><path
     d="m 462.904,172.05818 c 0.085,1.264 0.128,2.565 0.128,3.917 0,2.959 -0.304,7.417 -0.912,13.377 -0.605,5.958 -0.912,10.46 -0.912,13.503 0,1.134 0.025,2.245 0.068,3.33 -0.392,1.216 -1.238,1.804 -2.538,1.757 -1.863,-0.085 -2.886,-0.887 -3.058,-2.414 -0.173,-1.521 -0.261,-3.131 -0.261,-4.826 0,-2.958 0.354,-7.376 1.072,-13.245 0.715,-5.873 1.075,-10.262 1.075,-13.179 0,-1.129 -0.046,-2.235 -0.131,-3.327 0.436,-0.823 1.172,-1.238 2.21,-1.238 0.825,0 1.646,0.236 2.474,0.717 0.175,-0.132 0.309,-0.192 0.396,-0.192 0.125,0 0.188,0.214 0.188,0.651 -0.04,0.522 -0.04,0.823 0,0.912 0.051,0.13 0.108,0.219 0.201,0.257 z"
     id="path3850"
     inkscape:connector-curvature="0"
     style="fill:#414042" /><path
     d="m 493.162,197.51918 c -0.09,0.045 -2.627,1.855 -7.612,5.442 -2.905,2.1 -5.487,3.653 -7.744,4.66 -0.261,0.126 -0.523,0.194 -0.78,0.194 -0.608,0 -1.172,-0.393 -1.693,-1.179 -0.78,-1.047 -1.194,-1.588 -1.238,-1.631 -0.085,-3.833 0.153,-9.17 0.718,-16.012 0.649,-7.277 0.975,-12.528 0.975,-15.747 0,-2.222 -0.084,-4.314 -0.254,-6.276 0.556,-0.561 1.27,-0.844 2.143,-0.844 1.645,0 2.602,0.606 2.862,1.82 0.132,3.571 -0.02,8.912 -0.455,16.021 -0.436,7.111 -0.607,12.449 -0.521,16.02 1.213,-0.521 2.8,-1.439 4.75,-2.743 2.123,-1.476 3.664,-2.456 4.621,-2.934 0.214,0 0.594,-0.044 1.136,-0.132 0.542,-0.088 0.942,-0.132 1.203,-0.132 0.869,0 1.499,0.352 1.891,1.05 0.52,0.962 0.52,1.773 -0.002,2.423 z"
     id="path3852"
     inkscape:connector-curvature="0"
     style="fill:#414042" /><path
     d="m 521.594,197.51918 c -0.089,0.045 -2.631,1.855 -7.614,5.442 -2.905,2.1 -5.485,3.653 -7.743,4.66 -0.263,0.126 -0.523,0.194 -0.78,0.194 -0.608,0 -1.173,-0.393 -1.693,-1.179 -0.78,-1.047 -1.191,-1.588 -1.235,-1.631 -0.087,-3.833 0.154,-9.17 0.714,-16.012 0.654,-7.277 0.979,-12.528 0.979,-15.747 0,-2.222 -0.091,-4.314 -0.261,-6.276 0.562,-0.561 1.277,-0.844 2.145,-0.844 1.647,0 2.604,0.606 2.863,1.82 0.132,3.571 -0.022,8.912 -0.452,16.021 -0.438,7.111 -0.61,12.449 -0.521,16.02 1.211,-0.521 2.796,-1.439 4.75,-2.743 2.119,-1.476 3.663,-2.456 4.622,-2.934 0.213,0 0.592,-0.044 1.132,-0.132 0.542,-0.088 0.946,-0.132 1.207,-0.132 0.865,0 1.495,0.352 1.888,1.05 0.515,0.962 0.515,1.773 -10e-4,2.423 z"
     id="path3854"
     inkscape:connector-curvature="0"
     style="fill:#414042" /><path
     d="m 553.602,172.45118 c -1.606,0.654 -3.97,1.411 -7.09,2.281 -3.126,0.873 -5.49,1.636 -7.095,2.287 -0.389,1.132 -0.673,3.653 -0.847,7.566 0.692,0.266 1.496,0.393 2.407,0.393 0.653,0 1.669,-0.106 3.057,-0.319 1.387,-0.222 2.409,-0.334 3.058,-0.334 1.217,0 2.258,0.26 3.126,0.786 0.609,0.868 0.913,1.434 0.913,1.698 0,0.302 -0.156,0.54 -0.455,0.713 -0.092,0.043 -0.393,0.35 -0.916,0.916 -0.345,0.392 -0.777,0.562 -1.298,0.522 -0.915,0.22 -2.583,0.345 -5.01,0.392 -2.037,0.042 -3.669,0.306 -4.882,0.776 -0.824,3.226 -1.235,5.766 -1.235,7.634 0,1.263 0.176,2.263 0.521,3.005 2.038,1.433 5.572,2.05 10.606,1.823 0.346,0 0.716,-0.158 1.104,-0.49 0.392,-0.321 0.717,-0.485 0.978,-0.485 1.213,-0.261 2.016,0.653 2.408,2.738 0.129,0.694 0.009,1.336 -0.36,1.927 -0.37,0.585 -0.9,0.902 -1.591,0.944 -5.254,0.175 -9.803,-0.239 -13.666,-1.239 -1.213,-0.305 -2.32,-0.978 -3.32,-2.019 -0.997,-1.043 -1.562,-2.22 -1.693,-3.527 -0.384,-3.786 -0.384,-7.18 0,-10.174 -1.21,-0.83 -1.752,-1.634 -1.623,-2.414 0.041,-0.396 0.38,-0.754 1.009,-1.074 0.628,-0.334 0.985,-0.667 1.072,-1.019 0.091,-0.347 0.26,-2.412 0.521,-6.194 -2.43,-0.479 -3.621,-1.39 -3.577,-2.742 0.041,-1.264 0.802,-2.261 2.273,-3 1.389,-0.566 2.777,-1.133 4.17,-1.701 1.646,-0.824 3.684,-1.562 6.113,-2.216 2.082,-0.566 4.186,-1.107 6.314,-1.629 0.214,-0.045 0.473,-0.067 0.778,-0.067 1.172,0 2.536,0.45 4.104,1.369 0.037,0.175 0.147,0.502 0.322,0.98 0.173,0.481 0.258,0.824 0.258,1.038 0,0.352 -0.151,0.644 -0.454,0.855 z"
     id="path3856"
     inkscape:connector-curvature="0"
     style="fill:#414042" /><path
     d="m 358.045,221.43518 c 10.303,0 19.928,1.937 28.87,5.815 8.939,3.867 16.848,9.253 23.718,16.14 l -17.599,17.65 c -9.734,-9.758 -21.398,-14.638 -34.989,-14.638 -6.868,0 -13.306,1.292 -19.316,3.873 -6.011,2.584 -11.271,6.138 -15.776,10.659 -4.508,4.521 -8.083,9.789 -10.735,15.82 -2.646,6.02 -3.969,12.48 -3.969,19.365 0,6.889 1.323,13.344 3.969,19.38 2.652,6.02 6.191,11.292 10.628,15.813 4.437,4.521 9.694,8.067 15.777,10.651 6.079,2.583 12.554,3.873 19.422,3.873 13.45,0 25.114,-4.804 34.989,-14.419 l 17.599,17.437 c -6.87,6.885 -14.778,12.262 -23.718,16.142 -8.942,3.879 -18.567,5.81 -28.87,5.81 -10.302,0 -19.962,-1.969 -28.977,-5.917 -9.013,-3.949 -16.924,-9.293 -23.717,-16.034 -6.8,-6.747 -12.162,-14.637 -16.097,-23.673 -3.937,-9.045 -5.903,-18.731 -5.903,-29.062 0,-10.041 1.966,-19.617 5.903,-28.734 3.935,-9.105 9.297,-17.068 16.097,-23.887 6.793,-6.81 14.704,-12.191 23.717,-16.14 9.015,-3.946 18.675,-5.924 28.977,-5.924 z"
     id="path3858"
     inkscape:connector-curvature="0"
     style="fill:#414042" /><path
     d="m 558.74,221.43518 47.006,93.627 46.578,-93.627 46.793,93.627 46.789,-93.627 h 27.69 l -74.479,149.371 -46.793,-93.624 -46.578,93.624 -74.697,-149.371 z"
     id="path3860"
     inkscape:connector-curvature="0"
     style="fill:#5d7149" /><path
     d="m 835.201,221.43518 c 20.604,0 38.131,7.322 52.585,21.956 14.737,14.632 22.112,32.216 22.112,52.729 0,20.812 -7.375,38.387 -22.112,52.735 -14.454,14.632 -31.98,21.951 -52.585,21.951 -20.607,0 -38.138,-7.319 -52.588,-21.951 -14.598,-14.493 -21.897,-32.066 -21.897,-52.735 0,-20.513 7.3,-38.097 21.897,-52.729 14.306,-14.634 31.839,-21.956 52.588,-21.956 z m 0,24.969 c -13.602,0 -25.327,4.879 -35.2,14.638 -9.591,9.759 -14.384,21.451 -14.384,35.079 0,13.639 4.793,25.399 14.384,35.299 9.873,9.615 21.599,14.419 35.2,14.419 13.591,0 25.251,-4.804 34.986,-14.419 9.731,-9.899 14.594,-21.66 14.594,-35.299 0,-13.628 -4.862,-25.319 -14.594,-35.079 -9.735,-9.759 -21.395,-14.638 -34.986,-14.638 z"
     id="path3862"
     inkscape:connector-curvature="0"
     style="fill:#5d7149" /><path
     d="m 1020.436,370.80618 -28.76,-49.717 H 949.6 v 49.717 h -24.681 v -149.371 h 74.479 c 13.595,0 25.261,4.882 34.99,14.638 9.728,9.758 14.595,21.447 14.595,35.079 0,10.334 -2.936,19.733 -8.802,28.2 -5.722,8.322 -13.022,14.279 -21.891,17.863 l 30.692,53.591 z m -21.038,-124.402 H 949.6 v 49.503 l 49.798,0.213 c 6.732,0 12.525,-2.433 17.391,-7.312 4.86,-4.878 7.3,-10.764 7.3,-17.655 0,-6.74 -2.439,-12.551 -7.3,-17.43 -4.866,-4.877 -10.659,-7.319 -17.391,-7.319 z"
     id="path3864"
     inkscape:connector-curvature="0"
     style="fill:#5d7149" /><path
     d="m 1113.584,296.12018 74.485,74.687 h -34.987 l -64.398,-64.136 v 64.136 h -24.68 v -149.372 h 24.68 v 64.355 l 64.398,-64.355 h 34.987 z"
     id="path3866"
     inkscape:connector-curvature="0"
     style="fill:#5d7149" /><rect
     x="433.01001"
     y="342.92114"
     width="86.407997"
     height="11.53"
     id="rect3868"
     style="fill:#414042" /><rect
     x="433.01001"
     y="361.97815"
     width="86.407997"
     height="11.531"
     id="rect3870"
     style="fill:#414042" /><path
     d="m 436.847,318.96018 c -10.688,-11.204 -16.636,-25.744 -16.636,-40.523 0,-15.009 5.948,-29.556 16.636,-40.518 10.938,-10.484 25.205,-16.449 40.408,-16.449 15.694,0 29.957,5.964 40.175,16.449 10.936,10.962 16.877,25.267 16.877,40.518 0,15.258 -5.941,29.559 -16.877,40.523 -10.695,10.725 -24.95,16.68 -40.175,16.68 -14.733,-10e-4 -29.237,-5.956 -40.408,-16.68 z m 8.29,-40.524 c 0,18.212 14.476,32.995 32.104,32.995 17.906,0 32.381,-14.783 32.381,-32.995 0,-18.209 -14.475,-32.988 -32.381,-32.988 -17.629,0 -32.104,14.779 -32.104,32.988 z"
     id="path3872"
     inkscape:connector-curvature="0"
     style="fill:#414042" /><g
     id="g3876"
     transform="translate(-10.998,-32.345818)"><path
       d="m 100.815,357.528 c -5.032,0.955 -6.198,-3.533 -9.193,-5.495 -0.875,0.509 -1.871,1.087 -3.589,2.087 -1.656,-1.584 -3.474,-3.332 -5.315,-5.093 0.731,-1.309 1.436,-2.596 2.537,-4.584 4.618,-2.812 10.61,-2.89 16.658,-2.76 4.979,0.107 9.982,0.282 14.949,-0.052 4.393,-0.302 9.406,-0.119 12.971,-2.182 5.712,-3.301 9.378,-0.602 13.989,2.409 0,-2.088 0,-3.892 0,-6.312 -7.427,0.881 -14.597,0.434 -22.084,1.717 -11.745,2.024 -23.819,4.126 -36.861,1.88 -1.451,-1.735 -3.584,-4.27 -6.318,-7.521 -0.131,-1.98 -1.028,-5.411 3.543,-8.143 2.803,0.604 6.421,1.378 11.005,2.352 1.135,-1.07 2.49,-3.197 4.398,-3.949 1.926,-0.766 4.381,-0.162 7.108,-0.162 -1.831,-3.12 -3.217,-5.483 -4.527,-7.713 -3.302,1.5 -6.302,2.851 -9.55,4.316 -3.198,-2.707 -6.898,-4.473 -5.957,-10.142 2.236,-0.228 4.678,-0.479 7.547,-0.768 0.994,-1.657 2.129,-3.546 3.489,-5.812 6.619,1.577 13.789,2.562 20.404,5.052 6.528,2.446 12.425,6.608 20.899,7.205 -2.718,-3.965 -4.771,-6.966 -7.12,-10.411 -5.619,0 -11.25,0.584 -16.698,-0.17 -5.161,-0.718 -10.137,-2.854 -15.962,-4.596 -1.799,-2.302 -4.302,-5.509 -6.726,-8.611 1.135,-5.835 5.985,-3.81 10.04,-4.629 -0.84,-1.25 -1.446,-2.137 -2.423,-3.581 1.238,-1.575 2.596,-3.301 3.681,-4.671 -3.606,-3.219 -7.353,-6.583 -10.772,-9.652 -1.355,-3.775 -0.016,-6.067 3.113,-8.007 2.348,1.437 4.851,2.983 7.346,4.523 0.289,-0.361 0.578,-0.716 0.872,-1.068 -1.336,-1.569 -2.656,-3.12 -4.367,-5.138 0.98,-1.238 1.943,-2.455 3.138,-3.948 6.766,4.087 13.476,8.148 20.304,12.268 2.252,-4.06 -0.37,-5.861 -2.684,-6.281 -9.189,-1.667 -14.742,-9.104 -22.549,-12.891 3.468,-5.66 3.468,-5.66 8.694,-3.817 4.27,1.51 8.544,3.006 13.501,3.516 -2.781,-2.126 -5.293,-5.248 -8.429,-6.143 -5.439,-1.547 -5.374,-6.294 -7.859,-9.45 3.8,-3.452 6.929,-0.359 9.051,0.931 3.217,1.942 6.073,2.466 8.952,0.898 3.799,-2.078 8.637,-2.32 11.199,-0.673 4.374,2.83 8.374,0 12.377,2.207 0.396,-1.811 0.603,-2.716 0.894,-4.059 -7.647,-2.129 -16.529,2.094 -23.126,-4.561 -0.668,0.622 -1.374,1.269 -2.257,2.081 -5.647,-1.701 -9.754,-4.824 -10.83,-11.269 -0.292,-1.71 -2.041,-3.118 -2.762,-4.829 -0.684,-1.647 -0.903,-3.499 -1.63,-6.523 3.926,0.939 6.807,1.638 10.045,2.421 0,-1.653 0,-3.197 0,-5.41 3.044,-0.341 5.741,-0.633 10.481,-1.167 -4.832,-1.795 -7.706,-2.853 -12.155,-4.509 -1.012,-1.13 -3.229,-3.584 -5.462,-6.049 0.527,-0.934 1.261,-2.224 2.565,-4.537 2.113,-0.128 5.261,-0.308 9.569,-0.56 -5.16,-4.8 -7.541,-10.022 -6.302,-17.008 0.687,-0.641 1.856,-1.729 3.154,-2.93 1.382,0.674 2.68,1.305 4.324,2.095 0,-2.496 0,-4.738 0,-8.004 2.511,0.54 5.267,0.302 6.301,1.524 2.938,3.463 6.145,2.844 10.459,1.974 -2.818,-2.449 -5.104,-4.442 -8.164,-7.112 -0.562,-2.002 -1.317,-5.344 -2.433,-8.566 -1.06,-3.067 -6.055,-4.646 -3.054,-9.833 2.658,0.619 5.537,1.288 10.29,2.401 -3.248,-3.266 -5.352,-5.389 -6.951,-6.992 0.891,-4.043 1.634,-7.375 2.552,-11.532 1.589,0.931 3.392,1.49 4.427,2.709 1.373,1.62 2.142,3.748 3.806,6.842 2.21,-7.878 -2.207,-12.254 -5.054,-17.109 0.928,-4.106 4.101,-4.477 7.273,-4.067 2.257,-5.147 1.433,-10.696 5.731,-15.135 2.238,-1.842 5.182,-4.263 8.142,-6.7 3.756,3.933 8.516,7.442 8.949,14.038 0.084,1.326 2.429,2.572 3.843,3.719 1.226,1.002 2.603,1.807 3.762,2.603 -0.727,3.767 -1.417,7.329 -2.407,12.424 2.087,-1.679 2.752,-2.209 3.442,-2.769 4.74,2.206 2.687,6.602 3.21,10.607 -2.075,1.742 -4.348,3.631 -5.715,4.766 0,3.59 0,5.822 0,8.233 1.618,-0.857 2.89,-1.55 4.213,-2.256 3.312,8.567 8.569,16.014 15.144,21.092 0,2.043 0,4.275 0,6.935 -1.658,1.019 -3.521,2.157 -6.073,3.715 2.8,0.331 5.129,0.604 7.502,0.881 0.816,1.579 1.668,3.232 2.804,5.433 0,2.308 0.326,5.364 -0.104,8.28 -0.355,2.365 -1.633,4.578 -3.104,8.433 2.749,-1.302 3.918,-1.855 6.267,-2.969 0.414,1.193 0.979,2.831 1.537,4.468 0.423,-0.38 0.843,-0.758 1.257,-1.138 0,4.627 0,9.259 0,14.515 -1.129,0.899 -2.684,2.119 -3.869,3.053 0,2.327 0,3.989 0,5.656 -5.973,0 -11.958,0 -17.777,-0.425 -3.025,-1.534 -6.205,-2.638 -9.886,-3.904 1.866,6.205 6.346,3.782 9.886,3.904 4.154,4.738 9.569,4.568 15.171,4.351 0.894,-1.342 1.756,-2.637 2.605,-3.926 1.668,0 3.326,0 4.985,0 1.64,1.654 3.286,3.301 4.324,4.341 -2.226,4.33 -4.33,8.429 -6.437,12.525 0.326,0.205 0.661,0.406 0.991,0.604 -2.618,2.499 -5.236,4.999 -9.416,8.982 3.173,-0.915 4.75,-0.944 5.7,-1.732 2.286,-1.909 4.28,-4.166 6.437,-6.329 1.578,0.653 3.173,1.32 5.625,2.335 -0.837,4.672 -1.696,9.543 -2.605,14.629 -1.953,1.95 -4.06,4.068 -6.217,6.231 -1.78,0.328 -3.603,0.664 -5.415,1 0,0.352 0,0.708 0.01,1.05 3.8,0.191 7.597,0.379 11.854,0.587 0.088,1.689 0.154,3.257 0.232,4.845 1.881,1.887 3.753,3.767 6.032,6.05 -2.088,1.345 -4.082,2.621 -5.759,3.7 3.061,1.593 6.355,3.301 9.594,4.989 0,3.038 0,5.275 0,6.942 2.348,1.471 4.205,2.627 6.619,4.149 -3.728,2.805 -7.004,5.26 -10.256,7.72 3.371,3.379 6.766,6.773 10.403,10.421 -3.439,5.634 -7.59,9.229 -14.002,11.091 -4.756,-3.301 -10.541,-1.923 -17.692,-2.275 9.258,4.062 9.258,4.062 20.032,4.162 0.934,0.95 1.877,1.887 2.85,2.871 -1.32,1.403 -2.646,2.813 -3.96,4.196 3.069,5.125 3.069,5.125 8.105,7.813 -0.188,1.43 0.153,3.448 -0.696,4.461 -3.903,4.709 -13.563,7.18 -19.602,5.287 -3.618,-1.138 -6.992,-1.628 -9.76,2.452 2.069,0.617 4.028,1.15 5.954,1.761 0.878,0.283 1.85,1.201 2.527,0.993 7.073,-2.125 14.554,-3.094 21.113,-6.709 1.16,-0.647 1.521,-2.635 2.374,-3.929 2.079,-3.17 4.236,-6.292 6.29,-9.318 4.712,2.111 3.577,6.095 3.595,8.972 1.65,1.647 2.825,2.83 3.989,3.999 -0.824,3.314 -1.652,6.646 -2.59,10.45 -5.11,5.445 -10.667,11.375 -17.122,18.266 -1.332,0 -4.235,0 -7.152,0 0.361,0.479 0.731,0.962 1.101,1.446 -1.471,0.534 -2.932,1.062 -4.402,1.585 8.905,-2.151 15.197,0.408 20.828,7.073 -0.885,2.056 -1.744,4.031 -2.594,5.999 -5.101,0 -9.69,0 -14.616,0 -4.857,3.156 -9.841,6.401 -15.695,10.223 -1.091,0 -3.421,0 -6.531,0 -1.85,-1.859 -4.101,-4.112 -5.537,-5.552 -5.079,0.844 -29.346,13.909 -29.346,-2.942 -2.125,0.786 -3.468,1.265 -5.073,1.861 -7.7,-5.376 -14.977,-4.282 -24.361,4.615 -4.17,0.239 -7.061,-2.063 -10.143,-4.496 -2.357,-1.849 -5.054,-3.356 -8.48,-3.589 -11.187,-0.724 -14.595,-3.434 -19.859,-14.828 1.123,-0.986 2.456,-3.023 3.497,-2.88 4.625,0.63 6.461,-2.962 8.731,-5.482 2.953,-3.267 5.251,-7.096 8.254,-10.856 2.147,-0.177 4.7,-0.177 8.327,-0.177 -2.047,-1.842 -3.307,-2.998 -5.089,-4.609 -1.184,1.932 -2.037,3.327 -3.238,4.786 z m 93.979,-79.489 c 2.593,-0.34 4.803,-0.623 7.667,-0.984 -1.718,-1.632 -2.666,-2.519 -3.161,-3.002 -4.737,0.915 -8.985,1.726 -14.598,2.81 2.784,2.009 4.688,3.38 6.55,4.735 1.292,-1.301 2.226,-2.232 3.542,-3.559 z m -74.132,14.99 c -3.834,-1.666 -7.167,-3.235 -10.606,-4.537 -1.443,-0.551 -3.104,-0.569 -4.675,-0.694 -0.182,-0.013 -0.433,0.848 -0.665,1.326 5.081,1.317 8.991,6.445 15.946,3.905 z m 47.263,-45.969 c 9.591,0.855 9.591,0.855 9.952,-0.5 -1.615,-0.828 -3.213,-1.658 -4.797,-2.475 -1.436,0.828 -3.095,1.774 -5.155,2.975 z"
       id="path3874"
       inkscape:connector-curvature="0"
       style="clip-rule:evenodd;fill:#5d7149;fill-rule:evenodd" /></g><g
     id="g3880"
     transform="matrix(1.1168876,0,0,1,-35.651486,-32.345818)"><path
       d="m 872.598,190.54 c -34.882,-23.333 -71.289,-43.854 -108.234,-63.87 -9.911,-5.37 -19.852,-10.696 -29.918,-15.771 -7.404,-3.732 -14.447,-7.966 -22.065,-11.375 -17.19,-7.684 -34.416,-8.133 -51.804,0.218 -8.98,4.313 -18.478,7.995 -27.971,11.563 -19.046,7.158 -38.023,7.277 -55.954,-2.173 C 555.892,98.181 534.94,87.382 515.109,75.418 490.088,60.314 463.22,42.751 434.944,34.686 c -12.168,-3.474 -23.05,-2.86 -33.087,0.393 -13.885,4.505 -26.15,14.062 -37.97,24.845 -26.356,24.064 -52.41,48.441 -78.648,72.63 -15.313,14.115 -33.801,30.049 -49.412,43.845 -6.061,5.355 -12.095,10.745 -17.866,16.417 -4.357,4.282 -22.959,30.182 26.492,-5.155 42.534,-30.394 68.586,-51.909 109.21,-84.833 11.849,-9.603 23.305,-19.679 34.599,-29.926 14.198,-12.882 26.779,-20.967 46.472,-15.282 20.06,5.792 38.736,16.161 56.614,26.669 50.255,29.541 97.04,64.875 145.375,97.383 4.62,3.106 55.56,38.868 60.267,35.517 4.012,-2.856 -15.475,-18.695 -19.301,-22.109 -12.358,-11.023 -61.684,-40.407 -39.33,-61.325 7.314,-6.845 22.154,-12.942 32.643,-16.756 22,-8 30.25,-2.02 49.74,7.351 60.831,29.247 70.927,37.983 131.241,69.992 4.141,2.197 47.728,27.448 51.857,22.74 3.477,-3.965 -26.756,-23.541 -31.242,-26.542 z"
       id="path3878"
       inkscape:connector-curvature="0"
       style="clip-rule:evenodd;fill:#414042;fill-rule:evenodd" /></g><path
     d="m 103.365,342.82018 c -1.442,1.302 -2.461,2.237 -4.117,3.728 2.932,0 4.995,0 6.731,0.139 2.43,3.043 4.289,6.137 6.678,8.784 1.834,2.03 3.317,4.941 7.061,4.433 0.84,-0.119 1.916,1.528 2.825,2.319 -4.258,9.218 -7.011,11.407 -16.06,11.992 -2.768,0.188 -4.947,1.407 -6.854,2.904 -2.492,1.962 -4.831,3.828 -8.198,3.634 -7.59,-7.191 -13.469,-8.079 -19.696,-3.734 -1.298,-0.479 -16.99,8.784 -16.99,2.685 -3.505,-0.578 -6.731,-1.125 -10.838,-1.805 -1.16,1.158 -2.979,2.98 -4.478,4.482 -2.511,0 -4.399,0 -5.28,0 -4.731,-3.087 -8.763,-5.708 -12.691,-8.261 -3.979,0 -7.691,0 -11.814,0 -0.686,-1.591 -1.379,-3.188 -2.097,-4.854 4.552,-5.383 9.641,-7.457 16.839,-5.709 -1.185,-0.428 -2.37,-0.855 -3.555,-1.289 0.295,-0.39 0.596,-0.78 0.887,-1.17 -2.357,0 -4.706,0 -5.781,0 -5.224,-5.565 -9.71,-10.362 -13.846,-14.763 -0.755,-3.074 -1.423,-5.773 -2.091,-8.451 0.938,-0.944 1.89,-1.899 3.223,-3.231 0.016,-2.327 -0.903,-5.547 2.91,-7.257 1.658,2.446 3.402,4.975 5.083,7.532 0.686,1.052 0.981,2.66 1.921,3.182 5.302,2.918 11.344,3.711 17.069,5.42 0.545,0.171 1.333,-0.571 2.044,-0.797 1.555,-0.498 3.138,-0.932 4.812,-1.423 -2.242,-3.308 -4.967,-2.911 -7.895,-1.987 -4.878,1.536 -12.688,-0.47 -15.845,-4.274 -0.687,-0.816 -0.408,-2.451 -0.562,-3.609 4.069,-2.175 4.069,-2.175 6.55,-6.312 -1.063,-1.118 -2.132,-2.257 -3.201,-3.396 0.787,-0.793 1.548,-1.554 2.304,-2.319 8.713,-0.082 8.713,-0.082 16.194,-3.364 -5.782,0.282 -10.459,-0.831 -14.304,1.836 -5.183,-1.503 -8.537,-4.408 -11.318,-8.966 2.941,-2.947 5.685,-5.691 8.412,-8.427 -2.627,-1.987 -5.28,-3.971 -8.292,-6.236 1.95,-1.233 3.455,-2.164 5.348,-3.359 0,-1.342 0,-3.155 0,-5.607 2.622,-1.364 5.287,-2.748 7.757,-4.037 -1.354,-0.867 -2.966,-1.901 -4.653,-2.986 1.841,-1.849 3.352,-3.367 4.873,-4.896 0.066,-1.279 0.119,-2.549 0.191,-3.914 3.439,-0.169 6.509,-0.32 9.584,-0.471 0.003,-0.283 0.003,-0.566 0.003,-0.855 -1.461,-0.271 -2.935,-0.541 -4.374,-0.805 -1.747,-1.748 -3.449,-3.463 -5.029,-5.04 -0.733,-4.112 -1.429,-8.048 -2.106,-11.824 1.981,-0.824 3.273,-1.362 4.552,-1.89 1.74,1.751 3.349,3.575 5.199,5.115 0.768,0.642 2.047,0.66 4.608,1.403 -3.376,-3.223 -5.496,-5.245 -7.612,-7.263 0.267,-0.164 0.539,-0.323 0.803,-0.491 -1.699,-3.307 -3.402,-6.626 -5.205,-10.123 0.84,-0.842 2.169,-2.175 3.496,-3.514 1.339,0 2.687,0 4.032,0 0.687,1.046 1.383,2.093 2.104,3.178 4.534,0.175 8.91,0.313 12.268,-3.518 2.859,-0.101 6.48,1.861 7.989,-3.157 -2.972,1.024 -5.543,1.917 -7.989,3.157 -4.707,0.339 -9.547,0.339 -14.372,0.339 0,-1.343 0,-2.689 0,-4.572 -0.959,-0.751 -2.217,-1.742 -3.126,-2.464 0,-4.25 0,-7.996 0,-11.74 0.333,0.309 0.674,0.616 1.01,0.925 0.455,-1.327 0.915,-2.647 1.248,-3.612 1.9,0.899 2.841,1.345 5.067,2.399 -1.191,-3.113 -2.226,-4.905 -2.512,-6.817 -0.348,-2.361 -0.084,-4.828 -0.084,-6.696 0.922,-1.776 1.605,-3.118 2.27,-4.389 1.916,-0.224 3.8,-0.446 6.063,-0.713 -2.063,-1.26 -3.571,-2.179 -4.91,-3.003 0,-2.153 0,-3.954 0,-5.608 5.314,-4.106 9.569,-10.127 12.243,-17.053 1.07,0.57 2.098,1.129 3.409,1.824 0,-1.949 0,-3.753 0,-6.655 -1.107,-0.915 -2.944,-2.443 -4.622,-3.852 0.42,-3.242 -1.238,-6.797 2.596,-8.58 0.555,0.452 1.09,0.883 2.777,2.241 -0.799,-4.125 -1.354,-7.001 -1.944,-10.045 0.941,-0.645 2.051,-1.298 3.042,-2.106 1.145,-0.926 3.042,-1.933 3.107,-3.007 0.348,-5.33 4.198,-8.169 7.239,-11.347 2.39,1.971 4.772,3.926 6.578,5.413 3.474,3.591 2.809,8.077 4.637,12.239 2.561,-0.333 5.129,-0.031 5.878,3.288 -2.301,3.924 -5.869,7.464 -4.088,13.833 1.348,-2.502 1.969,-4.226 3.079,-5.533 0.837,-0.983 2.295,-1.44 3.581,-2.188 0.743,3.357 1.342,6.055 2.063,9.324 -1.292,1.295 -2.991,3.012 -5.618,5.649 3.844,-0.896 6.17,-1.443 8.318,-1.944 2.423,4.198 -1.615,5.467 -2.468,7.951 -0.903,2.604 -1.515,5.31 -1.969,6.927 -2.477,2.16 -4.321,3.769 -6.6,5.75 3.486,0.704 6.08,1.204 8.456,-1.597 0.837,-0.987 3.063,-0.792 5.092,-1.232 0,2.641 0,4.452 0,6.474 1.329,-0.64 2.379,-1.152 3.499,-1.696 1.051,0.969 1.994,1.85 2.553,2.372 1,5.646 -0.925,9.869 -5.098,13.751 3.486,0.202 6.025,0.346 7.738,0.452 1.053,1.868 1.648,2.912 2.068,3.667 -1.799,1.992 -3.593,3.977 -4.412,4.892 -3.602,1.338 -5.922,2.194 -9.829,3.641 3.831,0.434 6.014,0.672 8.472,0.942 0,1.793 0,3.041 0,4.377 2.621,-0.636 4.95,-1.198 8.126,-1.957 -0.593,2.446 -0.765,3.943 -1.323,5.277 -0.583,1.376 -1.994,2.521 -2.232,3.898 -0.869,5.211 -4.188,7.736 -8.754,9.11 -0.715,-0.657 -1.285,-1.182 -1.824,-1.679 -5.333,5.376 -12.513,1.962 -18.696,3.684 0.236,1.089 0.405,1.819 0.725,3.282 3.232,-1.785 6.468,0.503 10.005,-1.785 2.072,-1.33 5.981,-1.132 9.054,0.547 2.33,1.264 4.638,0.842 7.236,-0.727 1.715,-1.046 4.245,-3.549 7.318,-0.75 -2.01,2.549 -1.957,6.388 -6.355,7.635 -2.533,0.727 -4.565,3.249 -6.813,4.971 4.007,-0.415 7.458,-1.625 10.917,-2.842 4.223,-1.496 4.223,-1.496 7.025,3.085 -6.314,3.059 -10.8,9.073 -18.228,10.419 -1.868,0.342 -3.995,1.795 -2.169,5.077 5.518,-3.329 10.945,-6.612 16.416,-9.917 0.962,1.208 1.744,2.188 2.533,3.194 -1.382,1.632 -2.452,2.882 -3.53,4.154 0.238,0.286 0.477,0.568 0.706,0.864 2.019,-1.249 4.042,-2.497 5.941,-3.659 2.527,1.564 3.612,3.42 2.515,6.473 -2.766,2.48 -5.794,5.196 -8.71,7.806 0.877,1.107 1.975,2.503 2.975,3.776 -0.793,1.167 -1.279,1.883 -1.956,2.896 3.276,0.66 7.196,-0.979 8.118,3.74 -1.963,2.509 -3.982,5.1 -5.44,6.961 -4.712,1.407 -8.732,3.134 -12.901,3.712 -4.409,0.613 -8.961,0.142 -13.504,0.142 -1.896,2.785 -3.558,5.213 -5.753,8.419 6.847,-0.482 11.62,-3.848 16.893,-5.828 5.349,-2.013 11.146,-2.808 16.498,-4.084 1.097,1.833 2.02,3.361 2.822,4.697 2.32,0.235 4.295,0.44 6.101,0.619 0.759,4.583 -2.232,6.017 -4.815,8.205 -2.627,-1.188 -5.054,-2.282 -7.723,-3.49 -1.06,1.8 -2.179,3.71 -3.662,6.232 2.205,0 4.192,-0.484 5.747,0.131 1.546,0.611 2.64,2.327 3.559,3.195 3.705,-0.787 6.631,-1.415 8.895,-1.898 3.7,2.205 2.972,4.979 2.865,6.583 -2.207,2.622 -3.934,4.671 -5.11,6.073 -10.541,1.816 -20.304,0.119 -29.797,-1.516 -6.058,-1.043 -11.852,-0.678 -17.855,-1.39 0,1.962 0,3.415 0,5.101 3.729,-2.435 6.694,-4.616 11.309,-1.943 2.884,1.665 6.936,1.521 10.484,1.76 4.02,0.277 8.064,0.132 12.089,0.044 4.892,-0.106 9.732,-0.044 13.466,2.233 0.887,1.608 1.461,2.647 2.051,3.703 -1.486,1.421 -2.96,2.835 -4.292,4.125 -1.392,-0.812 -2.198,-1.283 -2.906,-1.692 -2.417,1.585 -3.364,5.213 -7.434,4.439 -0.971,-1.176 -1.661,-2.305 -2.617,-3.865 z m -70.5,-57.52 c 1.512,-1.094 3.048,-2.201 5.296,-3.823 -4.537,-0.88 -7.97,-1.533 -11.801,-2.276 -0.398,0.393 -1.167,1.112 -2.555,2.428 2.314,0.292 4.101,0.522 6.195,0.795 1.065,1.07 1.825,1.826 2.865,2.876 z m 69.964,6.086 c -0.188,-0.385 -0.392,-1.082 -0.537,-1.075 -1.272,0.106 -2.615,0.118 -3.781,0.564 -2.781,1.051 -5.474,2.32 -8.575,3.666 5.622,2.056 8.785,-2.089 12.893,-3.155 z m -55.272,-36.412 c -1.279,0.66 -2.574,1.329 -3.875,2 0.292,1.094 0.292,1.094 8.045,0.402 -1.668,-0.969 -3.007,-1.736 -4.17,-2.402 z"
     id="path3882"
     inkscape:connector-curvature="0"
     style="clip-rule:evenodd;fill:#5d7149;fill-rule:evenodd" /><path
     d="m 180.661,366.59318 c -3.179,0.609 -3.916,-2.226 -5.803,-3.465 -0.552,0.32 -1.179,0.685 -2.27,1.32 -1.041,-1 -2.191,-2.106 -3.352,-3.219 0.464,-0.824 0.906,-1.636 1.603,-2.893 2.915,-1.773 6.696,-1.824 10.513,-1.742 3.145,0.069 6.298,0.183 9.437,-0.031 2.774,-0.188 5.935,-0.075 8.186,-1.377 3.606,-2.081 5.919,-0.378 8.829,1.522 0,-1.32 0,-2.453 0,-3.986 -4.69,0.553 -9.211,0.269 -13.939,1.081 -7.408,1.282 -15.033,2.608 -23.26,1.188 -0.919,-1.094 -2.267,-2.69 -3.991,-4.748 -0.084,-1.243 -0.649,-3.414 2.232,-5.136 1.769,0.383 4.054,0.867 6.948,1.483 0.714,-0.672 1.573,-2.018 2.778,-2.489 1.213,-0.484 2.766,-0.102 4.486,-0.102 -1.154,-1.974 -2.032,-3.464 -2.859,-4.873 -2.082,0.951 -3.976,1.799 -6.026,2.724 -2.016,-1.704 -4.355,-2.824 -3.76,-6.4 1.411,-0.139 2.951,-0.297 4.763,-0.485 0.627,-1.043 1.345,-2.238 2.201,-3.666 4.176,0.994 8.703,1.617 12.879,3.188 4.12,1.54 7.842,4.174 13.193,4.546 -1.718,-2.502 -3.016,-4.396 -4.496,-6.57 -3.549,0 -7.102,0.371 -10.541,-0.106 -3.254,-0.453 -6.396,-1.805 -10.074,-2.899 -1.142,-1.459 -2.711,-3.477 -4.245,-5.439 0.718,-3.685 3.778,-2.401 6.336,-2.917 -0.527,-0.792 -0.912,-1.352 -1.53,-2.264 0.787,-0.992 1.64,-2.081 2.326,-2.949 -2.276,-2.03 -4.643,-4.149 -6.8,-6.092 -0.856,-2.381 -0.01,-3.827 1.959,-5.05 1.486,0.905 3.066,1.88 4.64,2.855 0.183,-0.229 0.364,-0.453 0.552,-0.673 -0.843,-0.993 -1.674,-1.968 -2.759,-3.245 0.621,-0.785 1.229,-1.553 1.981,-2.492 4.27,2.58 8.509,5.14 12.817,7.742 1.423,-2.564 -0.238,-3.7 -1.696,-3.968 -5.8,-1.049 -9.303,-5.743 -14.228,-8.129 2.185,-3.578 2.185,-3.578 5.483,-2.412 2.7,0.953 5.396,1.896 8.521,2.22 -1.755,-1.343 -3.338,-3.316 -5.32,-3.88 -3.433,-0.971 -3.392,-3.971 -4.96,-5.964 2.398,-2.182 4.374,-0.226 5.716,0.589 2.025,1.226 3.831,1.556 5.649,0.568 2.395,-1.313 5.449,-1.466 7.064,-0.427 2.762,1.785 5.289,0 7.816,1.392 0.245,-1.14 0.379,-1.712 0.561,-2.562 -4.825,-1.345 -10.431,1.321 -14.592,-2.879 -0.426,0.393 -0.868,0.798 -1.426,1.314 -3.562,-1.076 -6.158,-3.044 -6.835,-7.111 -0.182,-1.078 -1.289,-1.969 -1.743,-3.047 -0.433,-1.041 -0.571,-2.21 -1.035,-4.115 2.48,0.591 4.299,1.031 6.346,1.527 0,-1.046 0,-2.021 0,-3.421 1.921,-0.207 3.621,-0.396 6.615,-0.731 -3.051,-1.132 -4.866,-1.801 -7.675,-2.845 -0.636,-0.713 -2.038,-2.264 -3.449,-3.82 0.336,-0.588 0.797,-1.405 1.618,-2.864 1.339,-0.082 3.323,-0.194 6.044,-0.352 -3.257,-3.031 -4.759,-6.326 -3.979,-10.733 0.433,-0.41 1.17,-1.094 1.991,-1.85 0.871,0.422 1.689,0.821 2.73,1.321 0,-1.579 0,-2.993 0,-5.056 1.583,0.347 3.324,0.195 3.976,0.962 1.856,2.188 3.878,1.798 6.603,1.248 -1.778,-1.543 -3.226,-2.801 -5.157,-4.486 -0.355,-1.263 -0.828,-3.377 -1.534,-5.411 -0.668,-1.936 -3.821,-2.93 -1.925,-6.206 1.675,0.394 3.493,0.814 6.497,1.518 -2.05,-2.062 -3.379,-3.401 -4.389,-4.413 0.562,-2.554 1.028,-4.656 1.605,-7.278 1.006,0.585 2.145,0.941 2.8,1.707 0.865,1.025 1.351,2.368 2.401,4.32 1.396,-4.974 -1.392,-7.733 -3.188,-10.796 0.586,-2.593 2.586,-2.83 4.586,-2.572 1.427,-3.244 0.906,-6.746 3.622,-9.55 1.411,-1.164 3.27,-2.689 5.135,-4.229 2.374,2.48 5.38,4.699 5.65,8.862 0.056,0.836 1.533,1.622 2.427,2.346 0.774,0.631 1.643,1.137 2.374,1.644 -0.461,2.377 -0.894,4.625 -1.518,7.845 1.313,-1.063 1.737,-1.396 2.169,-1.752 2.995,1.394 1.699,4.166 2.026,6.697 -1.308,1.097 -2.744,2.291 -3.606,3.007 0,2.264 0,3.673 0,5.194 1.022,-0.54 1.825,-0.978 2.659,-1.424 2.091,5.408 5.411,10.11 9.56,13.314 0,1.289 0,2.697 0,4.376 -1.048,0.647 -2.22,1.361 -3.835,2.345 1.768,0.207 3.239,0.383 4.734,0.56 0.518,0.993 1.057,2.037 1.772,3.424 0,1.461 0.203,3.385 -0.066,5.227 -0.22,1.491 -1.029,2.893 -1.959,5.321 1.74,-0.821 2.474,-1.17 3.957,-1.872 0.257,0.751 0.618,1.787 0.972,2.821 0.263,-0.239 0.532,-0.481 0.79,-0.716 0,2.917 0,5.841 0,9.161 -0.712,0.565 -1.693,1.336 -2.443,1.923 0,1.472 0,2.521 0,3.571 -3.765,0 -7.546,0 -11.217,-0.27 -1.913,-0.969 -3.917,-1.667 -6.24,-2.462 1.176,3.914 4.004,2.387 6.24,2.462 2.621,2.992 6.035,2.886 9.575,2.748 0.564,-0.85 1.11,-1.667 1.643,-2.479 1.054,0 2.101,0 3.148,0 1.035,1.044 2.072,2.081 2.73,2.741 -1.407,2.729 -2.736,5.321 -4.063,7.904 0.204,0.133 0.417,0.256 0.624,0.381 -1.649,1.578 -3.305,3.153 -5.944,5.668 2.003,-0.575 3,-0.59 3.599,-1.094 1.445,-1.201 2.703,-2.629 4.061,-3.993 1,0.416 2.006,0.834 3.555,1.476 -0.53,2.947 -1.073,6.02 -1.649,9.232 -1.229,1.227 -2.559,2.569 -3.922,3.931 -1.123,0.208 -2.273,0.421 -3.417,0.635 0,0.22 0,0.443 0.003,0.663 2.405,0.116 4.797,0.236 7.484,0.368 0.053,1.068 0.097,2.057 0.15,3.056 1.188,1.194 2.364,2.383 3.803,3.823 -1.316,0.848 -2.574,1.653 -3.634,2.332 1.928,1.007 4.01,2.081 6.058,3.15 0,1.918 0,3.332 0,4.376 1.477,0.932 2.652,1.66 4.176,2.623 -2.355,1.772 -4.424,3.318 -6.475,4.872 2.125,2.132 4.271,4.275 6.565,6.577 -2.169,3.559 -4.788,5.829 -8.835,6.998 -3,-2.081 -6.653,-1.207 -11.167,-1.434 5.843,2.566 5.843,2.566 12.644,2.629 0.589,0.598 1.185,1.188 1.8,1.811 -0.834,0.887 -1.671,1.772 -2.502,2.647 1.938,3.23 1.938,3.23 5.114,4.929 -0.116,0.906 0.101,2.183 -0.436,2.822 -2.464,2.969 -8.562,4.528 -12.372,3.334 -2.285,-0.716 -4.414,-1.032 -6.16,1.553 1.304,0.383 2.543,0.717 3.759,1.107 0.551,0.182 1.163,0.754 1.593,0.627 4.464,-1.338 9.186,-1.955 13.324,-4.23 0.734,-0.415 0.966,-1.666 1.499,-2.483 1.313,-2.007 2.674,-3.974 3.969,-5.886 2.976,1.333 2.257,3.849 2.27,5.665 1.041,1.038 1.784,1.786 2.518,2.528 -0.521,2.087 -1.044,4.193 -1.633,6.59 -3.227,3.439 -6.731,7.186 -10.811,11.531 -0.837,0 -2.671,0 -4.514,0 0.232,0.302 0.464,0.609 0.696,0.911 -0.922,0.34 -1.85,0.673 -2.775,1.006 5.618,-1.363 9.591,0.252 13.143,4.458 -0.561,1.303 -1.101,2.547 -1.637,3.792 -3.219,0 -6.117,0 -9.221,0 -3.069,1.993 -6.217,4.037 -9.907,6.452 -0.69,0 -2.164,0 -4.123,0 -1.169,-1.177 -2.589,-2.604 -3.496,-3.509 -3.208,0.533 -18.523,8.783 -18.523,-1.855 -1.342,0.497 -2.191,0.799 -3.205,1.176 -4.856,-3.395 -9.446,-2.704 -15.372,2.91 -2.631,0.152 -4.456,-1.3 -6.399,-2.835 -1.49,-1.169 -3.195,-2.119 -5.355,-2.264 -7.063,-0.466 -9.211,-2.176 -12.535,-9.362 0.706,-0.623 1.546,-1.911 2.208,-1.817 2.919,0.396 4.075,-1.873 5.511,-3.457 1.865,-2.061 3.319,-4.482 5.212,-6.858 1.354,-0.107 2.966,-0.107 5.255,-0.107 -1.295,-1.164 -2.088,-1.892 -3.214,-2.912 -0.746,1.222 -1.285,2.101 -2.041,3.019 z m 59.317,-50.169 c 1.636,-0.208 3.032,-0.391 4.837,-0.616 -1.085,-1.031 -1.687,-1.592 -1.998,-1.893 -2.988,0.572 -5.668,1.088 -9.211,1.773 1.752,1.264 2.953,2.132 4.132,2.986 0.816,-0.824 1.406,-1.415 2.24,-2.25 z m -46.791,9.462 c -2.421,-1.051 -4.525,-2.044 -6.697,-2.861 -0.912,-0.352 -1.956,-0.357 -2.95,-0.439 -0.113,-0.006 -0.272,0.534 -0.417,0.836 3.207,0.836 5.671,4.074 10.064,2.464 z m 29.829,-29.014 c 6.055,0.541 6.055,0.541 6.28,-0.313 -1.016,-0.525 -2.025,-1.048 -3.025,-1.563 -0.907,0.521 -1.954,1.119 -3.255,1.876 z"
     id="path3884"
     inkscape:connector-curvature="0"
     style="clip-rule:evenodd;fill:#5d7149;fill-rule:evenodd" /><g
     id="g3940"
     transform="translate(-10.998,-32.345818)"><path
       d="m 632.14,428.32 c 0,1.093 -0.727,1.781 -2.18,2.063 -1.897,0.364 -3.067,0.79 -3.511,1.275 -4.521,4.775 -6.78,10.947 -6.78,18.514 0,3.562 0.564,6.92 1.695,10.077 0.928,2.59 1.594,4.29 1.997,5.099 1.009,1.982 2.24,3.399 3.693,4.249 0.605,0.283 1.21,0.547 1.815,0.789 0.646,0.364 0.969,0.87 0.969,1.518 0,0.648 -0.212,1.234 -0.636,1.761 -0.424,0.525 -0.878,0.729 -1.361,0.606 -0.525,-0.081 -1.332,-0.344 -2.422,-0.789 -1.938,-1.133 -4.036,-3.541 -6.296,-7.224 -0.565,-0.931 -1.141,-1.891 -1.726,-2.883 -0.585,-0.991 -1.02,-1.932 -1.301,-2.822 -0.203,-0.647 -0.545,-3.258 -1.029,-7.831 -0.162,-1.416 -0.242,-2.792 -0.242,-4.128 0,-7.163 2.078,-13.253 6.235,-18.271 2.421,-2.913 4.943,-4.37 7.566,-4.37 1.13,0 2.159,0.344 3.088,1.032 0.283,0.203 0.426,0.648 0.426,1.335 z"
       id="path3886"
       inkscape:connector-curvature="0"
       style="fill:#414042" /><path
       d="m 651.812,451.812 c -2.382,5.382 -5.751,8.579 -10.109,9.591 -0.525,0.121 -1.05,0.182 -1.574,0.182 -2.3,0 -4.621,-1.254 -6.962,-3.764 -1.573,-1.699 -2.36,-3.904 -2.36,-6.616 0,-2.994 0.887,-6.212 2.663,-9.651 0.767,-1.457 1.695,-2.711 2.785,-3.764 1.25,-1.254 2.441,-1.882 3.571,-1.882 0.646,0 1.251,0.243 1.816,0.729 0.564,0.485 2.078,1.134 4.54,1.942 1.938,0.647 3.309,1.74 4.116,3.278 1.412,2.711 2.119,5.038 2.119,6.98 10e-4,1.094 -0.201,2.086 -0.605,2.975 z m -4.842,-3.763 c -0.283,-2.954 -1.07,-4.714 -2.361,-5.281 -0.202,-0.081 -0.384,-0.121 -0.545,-0.121 -0.484,0 -1.089,0.404 -1.815,1.214 -0.808,0.932 -1.434,1.478 -1.877,1.639 -0.283,0.121 -0.687,0 -1.211,-0.364 -0.524,-0.364 -0.868,-0.546 -1.029,-0.546 -0.121,0 -0.222,0.04 -0.302,0.121 -1.414,1.214 -2.119,3.096 -2.119,5.646 0,1.74 0.403,3.217 1.211,4.431 1.129,1.66 2.078,2.489 2.845,2.489 1.775,0 3.49,-1.112 5.146,-3.339 1.572,-2.105 2.258,-4.068 2.057,-5.889 z"
       id="path3888"
       inkscape:connector-curvature="0"
       style="fill:#414042" /><path
       d="m 680.144,428.139 c -0.565,5.423 -1.11,10.865 -1.635,16.328 -0.687,6.476 -1.028,11.878 -1.028,16.208 0,1.417 0.039,2.813 0.121,4.188 0.039,0.646 -0.192,1.214 -0.696,1.699 -0.506,0.486 -1.08,0.729 -1.726,0.729 -1.251,0 -2.301,-0.85 -3.147,-2.549 -2.584,-5.059 -5.792,-12.991 -9.626,-23.796 -0.081,-0.242 -0.182,-0.364 -0.303,-0.364 -0.282,0 -0.464,0.284 -0.545,0.85 -0.687,5.788 -1.028,11.878 -1.028,18.271 0,3.076 0.08,6.212 0.242,9.409 0.039,1.173 -0.303,1.982 -1.029,2.428 -0.283,0.283 -0.586,0.425 -0.908,0.425 -0.283,0 -0.646,-0.121 -1.09,-0.364 -0.605,-0.283 -0.989,-0.465 -1.15,-0.546 -0.524,-0.162 -0.848,-0.647 -0.969,-1.457 -0.04,-0.647 -0.081,-1.315 -0.12,-2.003 -0.121,-2.267 -0.182,-4.633 -0.182,-7.103 0,-4.289 0.242,-9.651 0.726,-16.086 0.767,-9.793 1.19,-15.215 1.271,-16.268 0.04,-0.89 0.787,-1.336 2.24,-1.336 0.686,-0.08 1.694,0.425 3.026,1.518 1.291,2.469 2.885,6.476 4.782,12.02 1.816,5.302 3.471,9.328 4.965,12.079 0.604,-5.382 1.553,-13.516 2.845,-24.402 0.121,-0.809 0.706,-1.214 1.756,-1.214 0.363,0 0.787,0.061 1.271,0.183 0.646,0.162 1.029,0.264 1.15,0.303 0.403,0.161 0.665,0.445 0.787,0.85 z"
       id="path3890"
       inkscape:connector-curvature="0"
       style="fill:#414042" /><path
       d="m 708.897,428.139 c -0.565,5.423 -1.11,10.865 -1.635,16.328 -0.687,6.476 -1.028,11.878 -1.028,16.208 0,1.417 0.039,2.813 0.121,4.188 0.039,0.646 -0.192,1.214 -0.696,1.699 -0.506,0.486 -1.08,0.729 -1.726,0.729 -1.251,0 -2.301,-0.85 -3.147,-2.549 -2.584,-5.059 -5.792,-12.991 -9.626,-23.796 -0.081,-0.242 -0.182,-0.364 -0.303,-0.364 -0.282,0 -0.464,0.284 -0.545,0.85 -0.687,5.788 -1.028,11.878 -1.028,18.271 0,3.076 0.08,6.212 0.242,9.409 0.039,1.173 -0.303,1.982 -1.029,2.428 -0.283,0.283 -0.586,0.425 -0.908,0.425 -0.283,0 -0.646,-0.121 -1.09,-0.364 -0.605,-0.283 -0.989,-0.465 -1.15,-0.546 -0.524,-0.162 -0.848,-0.647 -0.969,-1.457 -0.04,-0.647 -0.081,-1.315 -0.12,-2.003 -0.121,-2.267 -0.182,-4.633 -0.182,-7.103 0,-4.289 0.242,-9.651 0.726,-16.086 0.767,-9.793 1.19,-15.215 1.271,-16.268 0.04,-0.89 0.787,-1.336 2.24,-1.336 0.686,-0.08 1.694,0.425 3.026,1.518 1.291,2.469 2.885,6.476 4.782,12.02 1.816,5.302 3.471,9.328 4.965,12.079 0.604,-5.382 1.553,-13.516 2.845,-24.402 0.121,-0.809 0.706,-1.214 1.756,-1.214 0.363,0 0.787,0.061 1.271,0.183 0.646,0.162 1.029,0.264 1.15,0.303 0.404,0.161 0.666,0.445 0.787,0.85 z"
       id="path3892"
       inkscape:connector-curvature="0"
       style="fill:#414042" /><path
       d="m 732.809,434.572 c -1.493,0.607 -3.692,1.316 -6.599,2.125 -2.905,0.81 -5.105,1.518 -6.599,2.125 -0.363,1.053 -0.626,3.399 -0.787,7.041 0.646,0.243 1.393,0.364 2.24,0.364 0.605,0 1.553,-0.101 2.846,-0.304 1.291,-0.202 2.239,-0.304 2.845,-0.304 1.13,0 2.098,0.243 2.906,0.729 0.564,0.811 0.847,1.336 0.847,1.578 0,0.284 -0.142,0.507 -0.424,0.668 -0.081,0.041 -0.362,0.324 -0.847,0.85 -0.324,0.364 -0.727,0.526 -1.211,0.486 -0.848,0.203 -2.401,0.324 -4.661,0.364 -1.897,0.04 -3.411,0.283 -4.541,0.729 -0.767,2.995 -1.149,5.362 -1.149,7.102 0,1.175 0.16,2.104 0.484,2.793 1.896,1.335 5.185,1.902 9.867,1.699 0.322,0 0.666,-0.151 1.029,-0.455 0.363,-0.304 0.666,-0.455 0.907,-0.455 1.13,-0.243 1.877,0.606 2.24,2.549 0.121,0.648 0.01,1.245 -0.333,1.791 -0.343,0.546 -0.838,0.839 -1.483,0.88 -4.883,0.161 -9.121,-0.223 -12.712,-1.153 -1.131,-0.283 -2.16,-0.91 -3.088,-1.882 -0.929,-0.971 -1.453,-2.063 -1.573,-3.277 -0.363,-3.521 -0.363,-6.678 0,-9.47 -1.131,-0.769 -1.635,-1.518 -1.514,-2.246 0.039,-0.364 0.353,-0.698 0.938,-1.002 0.584,-0.303 0.917,-0.616 0.998,-0.94 0.081,-0.323 0.242,-2.246 0.484,-5.767 -2.261,-0.445 -3.37,-1.295 -3.329,-2.55 0.04,-1.173 0.746,-2.104 2.119,-2.792 1.291,-0.525 2.582,-1.052 3.874,-1.578 1.533,-0.769 3.43,-1.457 5.69,-2.064 1.938,-0.525 3.895,-1.031 5.872,-1.518 0.201,-0.04 0.443,-0.061 0.727,-0.061 1.089,0 2.36,0.425 3.813,1.274 0.04,0.163 0.141,0.466 0.303,0.911 0.161,0.445 0.242,0.77 0.242,0.971 0.002,0.325 -0.139,0.588 -0.421,0.789 z"
       id="path3894"
       inkscape:connector-curvature="0"
       style="fill:#414042" /><path
       d="m 750.728,428.32 c 0,1.093 -0.727,1.781 -2.18,2.063 -1.897,0.364 -3.067,0.79 -3.511,1.275 -4.521,4.775 -6.78,10.947 -6.78,18.514 0,3.562 0.564,6.92 1.695,10.077 0.928,2.59 1.594,4.29 1.997,5.099 1.009,1.982 2.24,3.399 3.693,4.249 0.605,0.283 1.21,0.547 1.815,0.789 0.646,0.364 0.969,0.87 0.969,1.518 0,0.648 -0.212,1.234 -0.636,1.761 -0.424,0.525 -0.878,0.729 -1.361,0.606 -0.525,-0.081 -1.332,-0.344 -2.422,-0.789 -1.938,-1.133 -4.036,-3.541 -6.296,-7.224 -0.565,-0.931 -1.141,-1.891 -1.726,-2.883 -0.585,-0.991 -1.02,-1.932 -1.301,-2.822 -0.203,-0.647 -0.545,-3.258 -1.029,-7.831 -0.162,-1.416 -0.242,-2.792 -0.242,-4.128 0,-7.163 2.078,-13.253 6.235,-18.271 2.421,-2.913 4.943,-4.37 7.566,-4.37 1.13,0 2.159,0.344 3.088,1.032 0.283,0.203 0.426,0.648 0.426,1.335 z"
       id="path3896"
       inkscape:connector-curvature="0"
       style="fill:#414042" /><path
       d="m 780.328,427.106 c -0.363,1.457 -1.05,2.307 -2.058,2.55 -2.624,0.647 -7.185,1.497 -13.682,2.549 -0.808,10.077 -1.211,18.475 -1.211,25.191 0,2.55 0.04,5.06 0.121,7.527 0.04,0.769 0,1.355 -0.121,1.761 -0.202,0.646 -0.605,0.95 -1.211,0.91 -1.171,-0.041 -2.139,-0.537 -2.905,-1.487 -0.768,-0.951 -1.19,-2.013 -1.271,-3.187 -0.081,-1.497 -0.121,-3.075 -0.121,-4.735 0,-2.671 0.182,-6.898 0.545,-12.687 0.363,-5.544 0.524,-9.773 0.484,-12.687 -1.09,-0.081 -2.603,0.021 -4.54,0.304 -2.22,0.324 -3.753,0.485 -4.601,0.485 -1.978,0 -3.592,-0.53 -4.843,-1.592 -0.484,-1.061 -0.727,-1.611 -0.727,-1.652 0,-0.285 0.142,-0.592 0.424,-0.918 1.292,-0.448 3.935,-0.856 7.93,-1.225 3.512,-0.367 6.134,-1.02 7.87,-1.958 1.412,0.485 3.026,0.729 4.843,0.729 1.817,0 3.551,-0.223 5.206,-0.668 0.484,-0.04 1.715,-0.323 3.692,-0.85 1.453,-0.364 2.664,-0.486 3.633,-0.364 0.727,0 1.029,0.303 0.908,0.91 1.09,0.002 1.635,0.366 1.635,1.094 z"
       id="path3898"
       inkscape:connector-curvature="0"
       style="fill:#414042" /><path
       d="m 782.75,459.582 c 0.363,1.457 0.292,2.438 -0.212,2.944 -0.505,0.506 -1.241,0.719 -2.21,0.637 -0.808,-0.039 -1.573,-0.403 -2.3,-1.092 -0.727,-0.689 -1.09,-1.417 -1.09,-2.186 0,-0.485 0.201,-0.941 0.605,-1.366 0.402,-0.425 0.826,-0.616 1.271,-0.576 0.766,0.04 1.533,0.102 2.3,0.182 0.889,0.203 1.434,0.688 1.636,1.457 z"
       id="path3900"
       inkscape:connector-curvature="0"
       style="fill:#414042" /><path
       d="m 819.919,428.32 c 0,1.093 -0.727,1.781 -2.18,2.063 -1.897,0.364 -3.067,0.79 -3.511,1.275 -4.521,4.775 -6.78,10.947 -6.78,18.514 0,3.562 0.564,6.92 1.695,10.077 0.928,2.59 1.594,4.29 1.997,5.099 1.009,1.982 2.24,3.399 3.693,4.249 0.605,0.283 1.21,0.547 1.815,0.789 0.646,0.364 0.969,0.87 0.969,1.518 0,0.648 -0.212,1.234 -0.636,1.761 -0.424,0.525 -0.878,0.729 -1.361,0.606 -0.525,-0.081 -1.332,-0.344 -2.422,-0.789 -1.938,-1.133 -4.036,-3.541 -6.296,-7.224 -0.565,-0.931 -1.141,-1.891 -1.726,-2.883 -0.585,-0.991 -1.02,-1.932 -1.301,-2.822 -0.203,-0.647 -0.545,-3.258 -1.029,-7.831 -0.162,-1.416 -0.242,-2.792 -0.242,-4.128 0,-7.163 2.078,-13.253 6.235,-18.271 2.421,-2.913 4.943,-4.37 7.566,-4.37 1.13,0 2.159,0.344 3.088,1.032 0.283,0.203 0.426,0.648 0.426,1.335 z"
       id="path3902"
       inkscape:connector-curvature="0"
       style="fill:#414042" /><path
       d="m 839.592,451.812 c -2.382,5.382 -5.751,8.579 -10.109,9.591 -0.525,0.121 -1.05,0.182 -1.574,0.182 -2.3,0 -4.621,-1.254 -6.962,-3.764 -1.573,-1.699 -2.36,-3.904 -2.36,-6.616 0,-2.994 0.887,-6.212 2.663,-9.651 0.767,-1.457 1.695,-2.711 2.785,-3.764 1.25,-1.254 2.441,-1.882 3.571,-1.882 0.646,0 1.251,0.243 1.816,0.729 0.564,0.485 2.078,1.134 4.54,1.942 1.938,0.647 3.309,1.74 4.116,3.278 1.412,2.711 2.119,5.038 2.119,6.98 0,1.094 -0.202,2.086 -0.605,2.975 z m -4.843,-3.763 c -0.283,-2.954 -1.07,-4.714 -2.361,-5.281 -0.202,-0.081 -0.384,-0.121 -0.545,-0.121 -0.484,0 -1.089,0.404 -1.815,1.214 -0.808,0.932 -1.434,1.478 -1.877,1.639 -0.283,0.121 -0.687,0 -1.211,-0.364 -0.524,-0.364 -0.868,-0.546 -1.029,-0.546 -0.121,0 -0.222,0.04 -0.302,0.121 -1.414,1.214 -2.119,3.096 -2.119,5.646 0,1.74 0.403,3.217 1.211,4.431 1.129,1.66 2.078,2.489 2.845,2.489 1.775,0 3.49,-1.112 5.146,-3.339 1.573,-2.105 2.258,-4.068 2.057,-5.889 z"
       id="path3904"
       inkscape:connector-curvature="0"
       style="fill:#414042" /><path
       d="m 859.751,457.897 c -0.082,0.041 -2.442,1.729 -7.083,5.062 -2.704,1.951 -5.106,3.396 -7.204,4.33 -0.242,0.122 -0.484,0.184 -0.727,0.184 -0.565,0 -1.09,-0.365 -1.573,-1.095 -0.727,-0.974 -1.111,-1.479 -1.15,-1.52 -0.082,-3.566 0.141,-8.531 0.666,-14.896 0.605,-6.769 0.907,-11.653 0.907,-14.652 0,-2.066 -0.081,-4.012 -0.241,-5.837 0.523,-0.526 1.189,-0.79 1.997,-0.79 1.533,0 2.422,0.567 2.664,1.699 0.121,3.319 -0.021,8.286 -0.424,14.903 -0.404,6.616 -0.565,11.584 -0.484,14.902 1.129,-0.486 2.603,-1.336 4.419,-2.55 1.977,-1.375 3.41,-2.286 4.298,-2.731 0.202,0 0.555,-0.04 1.06,-0.122 0.504,-0.08 0.878,-0.121 1.12,-0.121 0.807,0 1.393,0.325 1.756,0.977 0.482,0.896 0.482,1.649 -10e-4,2.257 z"
       id="path3906"
       inkscape:connector-curvature="0"
       style="fill:#414042" /><path
       d="m 878.939,457.897 c -0.082,0.041 -2.442,1.729 -7.083,5.062 -2.704,1.951 -5.106,3.396 -7.204,4.33 -0.242,0.122 -0.484,0.184 -0.727,0.184 -0.565,0 -1.09,-0.365 -1.573,-1.095 -0.727,-0.974 -1.111,-1.479 -1.15,-1.52 -0.082,-3.566 0.141,-8.531 0.666,-14.896 0.605,-6.769 0.907,-11.653 0.907,-14.652 0,-2.066 -0.081,-4.012 -0.241,-5.837 0.523,-0.526 1.189,-0.79 1.997,-0.79 1.533,0 2.422,0.567 2.664,1.699 0.121,3.319 -0.021,8.286 -0.424,14.903 -0.404,6.616 -0.565,11.584 -0.484,14.902 1.129,-0.486 2.603,-1.336 4.419,-2.55 1.977,-1.375 3.41,-2.286 4.298,-2.731 0.202,0 0.555,-0.04 1.06,-0.122 0.504,-0.08 0.878,-0.121 1.12,-0.121 0.807,0 1.393,0.325 1.756,0.977 0.483,0.896 0.483,1.649 -0.001,2.257 z"
       id="path3908"
       inkscape:connector-curvature="0"
       style="fill:#414042" /><path
       d="m 902.487,462.01 c 0.242,0.648 0.363,1.215 0.363,1.7 0,0.81 -0.344,1.518 -1.029,2.124 -0.687,0.607 -1.15,0.89 -1.393,0.851 -1.978,-0.364 -3.229,-1.963 -3.753,-4.796 -0.565,-3.075 -1.231,-5.646 -1.998,-7.709 -1.372,0.121 -2.745,0.242 -4.116,0.364 -1.574,0.203 -2.806,0.688 -3.692,1.457 -0.445,1.255 -1.029,3.48 -1.756,6.677 -0.687,2.954 -1.353,5.199 -1.998,6.738 -0.323,0.729 -1.009,0.931 -2.058,0.606 -1.332,-0.445 -2.039,-1.053 -2.119,-1.82 -0.121,-1.539 0.322,-3.602 1.332,-6.192 1.211,-2.953 1.876,-5.058 1.997,-6.312 0.04,-0.364 -0.222,-0.769 -0.786,-1.214 -0.566,-0.445 -0.848,-0.789 -0.848,-1.032 0,-0.202 0.091,-0.414 0.272,-0.638 0.182,-0.222 0.605,-0.403 1.271,-0.546 0.666,-0.142 1.039,-0.354 1.12,-0.638 0.727,-2.022 1.877,-5.786 3.451,-11.29 1.331,-4.775 2.521,-8.438 3.571,-10.987 0.242,-0.566 0.746,-0.85 1.514,-0.85 0.564,0 1.068,0.182 1.513,0.546 1.13,0.972 1.856,2.428 2.18,4.37 0.242,1.66 0.464,3.319 0.666,4.978 2.018,9.551 4.117,17.421 6.296,23.613 z m -8.839,-11.594 c -0.121,-1.497 -0.384,-3.177 -0.786,-5.038 -0.404,-1.618 -0.787,-3.237 -1.15,-4.856 -1.211,3.359 -2.261,6.718 -3.148,10.076 0.645,-0.121 2.34,-0.182 5.084,-0.182 z"
       id="path3910"
       inkscape:connector-curvature="0"
       style="fill:#414042" /><path
       d="m 925.43,438.519 c -0.525,2.186 -1.856,4.168 -3.995,5.948 -2.059,1.457 -4.117,2.895 -6.175,4.311 0.121,0.606 0.534,1.062 1.241,1.365 0.705,0.304 1.382,0.598 2.027,0.881 3.35,2.185 5.024,4.775 5.024,7.77 0,2.307 -0.787,4.432 -2.36,6.374 -1.211,1.496 -3.007,2.974 -5.388,4.431 -1.938,1.133 -3.875,2.267 -5.812,3.399 -0.484,0.283 -1.01,0.425 -1.574,0.425 -1.332,0 -2.261,-0.546 -2.784,-1.639 0.08,-3.399 0.16,-6.778 0.241,-10.138 0.081,-4.046 0.303,-7.385 0.666,-10.016 -0.847,-0.566 -1.271,-1.214 -1.271,-1.942 0,-0.364 0.151,-0.698 0.453,-1.002 0.303,-0.303 0.717,-0.637 1.241,-1.001 0.484,-6.151 0.585,-11.816 0.303,-16.997 -1.897,-0.364 -3.147,-1.214 -3.753,-2.549 -0.041,-0.162 0.03,-0.404 0.212,-0.729 0.182,-0.323 0.272,-0.587 0.272,-0.789 0.928,-0.688 1.957,-1.032 3.087,-1.032 0.524,0 1.211,0.081 2.059,0.243 1.211,0.202 1.998,0.324 2.36,0.364 1.938,0.242 3.875,0.85 5.812,1.82 4.359,2.268 6.922,4.473 7.688,6.617 0.526,1.539 0.668,2.834 0.426,3.886 z m -7.507,20.759 c 0.081,-0.444 0.121,-0.869 0.121,-1.274 0,-1.214 -0.384,-2.286 -1.149,-3.218 -2.059,-1.011 -3.371,-1.518 -3.936,-1.518 -0.323,0 -0.626,0.062 -0.908,0.183 0.04,0.405 0.061,0.85 0.061,1.335 0,0.851 -0.111,2.155 -0.333,3.916 -0.222,1.76 -0.333,3.086 -0.333,3.976 0,1.296 0.161,2.468 0.484,3.521 0.484,-0.566 1.241,-1.163 2.271,-1.79 1.03,-0.627 1.745,-1.184 2.149,-1.67 0.725,-0.85 1.25,-2.004 1.573,-3.461 z m 1.816,-23.795 c -0.202,-1.497 -1.413,-2.65 -3.632,-3.46 -0.324,-0.122 -0.828,-0.385 -1.514,-0.789 -0.484,-0.323 -0.889,-0.486 -1.211,-0.486 -0.161,0 -0.343,0.041 -0.545,0.122 -0.04,0.688 -0.061,1.417 -0.061,2.185 0,1.054 0.081,2.834 0.242,5.342 0.121,2.308 0.161,4.108 0.121,5.403 0.282,0 0.706,-0.213 1.271,-0.638 0.564,-0.425 0.887,-0.657 0.969,-0.698 1.211,-0.566 2.279,-1.518 3.208,-2.853 0.93,-1.336 1.313,-2.711 1.152,-4.128 z"
       id="path3912"
       inkscape:connector-curvature="0"
       style="fill:#414042" /><path
       d="m 948.434,451.812 c -2.382,5.382 -5.751,8.579 -10.109,9.591 -0.525,0.121 -1.05,0.182 -1.574,0.182 -2.3,0 -4.621,-1.254 -6.962,-3.764 -1.573,-1.699 -2.36,-3.904 -2.36,-6.616 0,-2.994 0.887,-6.212 2.663,-9.651 0.767,-1.457 1.695,-2.711 2.785,-3.764 1.25,-1.254 2.441,-1.882 3.571,-1.882 0.646,0 1.251,0.243 1.816,0.729 0.564,0.485 2.078,1.134 4.54,1.942 1.938,0.647 3.309,1.74 4.116,3.278 1.412,2.711 2.119,5.038 2.119,6.98 0,1.094 -0.202,2.086 -0.605,2.975 z m -4.843,-3.763 c -0.283,-2.954 -1.07,-4.714 -2.361,-5.281 -0.202,-0.081 -0.384,-0.121 -0.545,-0.121 -0.484,0 -1.089,0.404 -1.815,1.214 -0.808,0.932 -1.434,1.478 -1.877,1.639 -0.283,0.121 -0.687,0 -1.211,-0.364 -0.524,-0.364 -0.868,-0.546 -1.029,-0.546 -0.121,0 -0.222,0.04 -0.302,0.121 -1.414,1.214 -2.119,3.096 -2.119,5.646 0,1.74 0.403,3.217 1.211,4.431 1.129,1.66 2.078,2.489 2.845,2.489 1.775,0 3.49,-1.112 5.146,-3.339 1.572,-2.105 2.258,-4.068 2.057,-5.889 z"
       id="path3914"
       inkscape:connector-curvature="0"
       style="fill:#414042" /><path
       d="m 975.795,465.349 c 0.121,0.161 0.182,0.344 0.182,0.547 0,0.93 -0.969,1.639 -2.905,2.124 -2.14,-1.66 -4.804,-4.208 -7.991,-7.648 -3.552,-3.844 -6.195,-6.515 -7.93,-8.013 -0.121,1.053 -0.344,3.805 -0.666,8.256 -0.203,3.359 -0.565,6.029 -1.09,8.013 -0.081,0 -0.333,0.101 -0.757,0.303 -0.424,0.202 -0.777,0.264 -1.06,0.183 -1.776,-0.405 -2.663,-1.639 -2.663,-3.703 0,-0.606 0.08,-1.416 0.242,-2.428 0.16,-1.174 0.262,-1.901 0.303,-2.186 0.16,-2.347 0.262,-5.139 0.303,-8.377 v -6.616 c 0,-5.503 0.303,-10.138 0.907,-13.901 0.403,-2.508 2.765,-3.661 7.083,-3.46 2.18,0.082 4.076,1.175 5.69,3.278 1.493,1.942 2.24,4.047 2.24,6.313 0,1.902 -0.707,3.804 -2.119,5.705 -1.211,1.7 -2.704,3.035 -4.479,4.007 -0.727,0.405 -1.09,0.85 -1.09,1.335 0,0.527 0.424,1.154 1.271,1.882 0.645,0.526 1.291,1.053 1.938,1.579 0.039,0.04 2.259,2.063 6.658,6.069 2.785,2.509 4.762,4.755 5.933,6.738 z m -12.773,-27.255 c 0.121,-0.729 0.16,-1.376 0.121,-1.942 -0.121,-0.851 -0.476,-1.618 -1.06,-2.307 -0.586,-0.688 -1.524,-1.032 -2.815,-1.032 -0.969,0 -1.573,0.304 -1.815,0.91 -0.203,1.013 -0.303,2.166 -0.303,3.46 0,0.526 0.061,1.882 0.182,4.067 0.08,1.66 0.08,3.016 0,4.067 3.349,-2.508 5.245,-4.917 5.69,-7.223 z"
       id="path3916"
       inkscape:connector-curvature="0"
       style="fill:#414042" /><path
       d="m 994.5,462.01 c 0.242,0.648 0.363,1.215 0.363,1.7 0,0.81 -0.344,1.518 -1.029,2.124 -0.687,0.607 -1.15,0.89 -1.393,0.851 -1.978,-0.364 -3.229,-1.963 -3.753,-4.796 -0.565,-3.075 -1.231,-5.646 -1.998,-7.709 -1.372,0.121 -2.745,0.242 -4.116,0.364 -1.574,0.203 -2.806,0.688 -3.692,1.457 -0.445,1.255 -1.029,3.48 -1.756,6.677 -0.687,2.954 -1.353,5.199 -1.998,6.738 -0.323,0.729 -1.009,0.931 -2.058,0.606 -1.332,-0.445 -2.039,-1.053 -2.119,-1.82 -0.121,-1.539 0.322,-3.602 1.332,-6.192 1.211,-2.953 1.876,-5.058 1.997,-6.312 0.04,-0.364 -0.222,-0.769 -0.786,-1.214 -0.566,-0.445 -0.848,-0.789 -0.848,-1.032 0,-0.202 0.091,-0.414 0.272,-0.638 0.182,-0.222 0.605,-0.403 1.271,-0.546 0.666,-0.142 1.039,-0.354 1.12,-0.638 0.727,-2.022 1.877,-5.786 3.451,-11.29 1.331,-4.775 2.521,-8.438 3.571,-10.987 0.242,-0.566 0.746,-0.85 1.514,-0.85 0.564,0 1.068,0.182 1.513,0.546 1.13,0.972 1.856,2.428 2.18,4.37 0.242,1.66 0.464,3.319 0.666,4.978 2.018,9.551 4.116,17.421 6.296,23.613 z m -8.839,-11.594 c -0.121,-1.497 -0.384,-3.177 -0.786,-5.038 -0.404,-1.618 -0.787,-3.237 -1.15,-4.856 -1.211,3.359 -2.261,6.718 -3.148,10.076 0.645,-0.121 2.34,-0.182 5.084,-0.182 z"
       id="path3918"
       inkscape:connector-curvature="0"
       style="fill:#414042" /><path
       d="m 1027.129,427.106 c -0.363,1.457 -1.05,2.307 -2.058,2.55 -2.624,0.647 -7.185,1.497 -13.682,2.549 -0.808,10.077 -1.211,18.475 -1.211,25.191 0,2.55 0.04,5.06 0.121,7.527 0.04,0.769 0,1.355 -0.121,1.761 -0.202,0.646 -0.605,0.95 -1.211,0.91 -1.171,-0.041 -2.139,-0.537 -2.905,-1.487 -0.768,-0.951 -1.19,-2.013 -1.271,-3.187 -0.081,-1.497 -0.121,-3.075 -0.121,-4.735 0,-2.671 0.182,-6.898 0.545,-12.687 0.363,-5.544 0.524,-9.773 0.484,-12.687 -1.09,-0.081 -2.603,0.021 -4.54,0.304 -2.22,0.324 -3.753,0.485 -4.601,0.485 -1.978,0 -3.592,-0.53 -4.843,-1.592 -0.484,-1.061 -0.727,-1.611 -0.727,-1.652 0,-0.285 0.142,-0.592 0.424,-0.918 1.292,-0.448 3.935,-0.856 7.93,-1.225 3.512,-0.367 6.134,-1.02 7.87,-1.958 1.412,0.485 3.026,0.729 4.843,0.729 1.817,0 3.551,-0.223 5.206,-0.668 0.484,-0.04 1.715,-0.323 3.692,-0.85 1.453,-0.364 2.664,-0.486 3.633,-0.364 0.727,0 1.029,0.303 0.908,0.91 1.09,0.002 1.635,0.366 1.635,1.094 z"
       id="path3920"
       inkscape:connector-curvature="0"
       style="fill:#414042" /><path
       d="m 1039.841,434.572 c -1.493,0.607 -3.692,1.316 -6.599,2.125 -2.905,0.81 -5.105,1.518 -6.599,2.125 -0.363,1.053 -0.626,3.399 -0.787,7.041 0.646,0.243 1.393,0.364 2.24,0.364 0.605,0 1.553,-0.101 2.846,-0.304 1.291,-0.202 2.239,-0.304 2.845,-0.304 1.13,0 2.098,0.243 2.906,0.729 0.564,0.811 0.847,1.336 0.847,1.578 0,0.284 -0.142,0.507 -0.424,0.668 -0.081,0.041 -0.362,0.324 -0.847,0.85 -0.324,0.364 -0.727,0.526 -1.211,0.486 -0.848,0.203 -2.401,0.324 -4.661,0.364 -1.897,0.04 -3.411,0.283 -4.541,0.729 -0.767,2.995 -1.149,5.362 -1.149,7.102 0,1.175 0.16,2.104 0.484,2.793 1.896,1.335 5.185,1.902 9.867,1.699 0.322,0 0.666,-0.151 1.029,-0.455 0.363,-0.304 0.666,-0.455 0.907,-0.455 1.13,-0.243 1.877,0.606 2.24,2.549 0.121,0.648 0.01,1.245 -0.333,1.791 -0.343,0.546 -0.838,0.839 -1.483,0.88 -4.883,0.161 -9.121,-0.223 -12.712,-1.153 -1.131,-0.283 -2.16,-0.91 -3.088,-1.882 -0.929,-0.971 -1.453,-2.063 -1.573,-3.277 -0.363,-3.521 -0.363,-6.678 0,-9.47 -1.131,-0.769 -1.635,-1.518 -1.514,-2.246 0.039,-0.364 0.353,-0.698 0.938,-1.002 0.584,-0.303 0.917,-0.616 0.998,-0.94 0.081,-0.323 0.242,-2.246 0.484,-5.767 -2.261,-0.445 -3.37,-1.295 -3.329,-2.55 0.04,-1.173 0.746,-2.104 2.119,-2.792 1.291,-0.525 2.582,-1.052 3.874,-1.578 1.533,-0.769 3.43,-1.457 5.69,-2.064 1.938,-0.525 3.895,-1.031 5.872,-1.518 0.201,-0.04 0.443,-0.061 0.727,-0.061 1.089,0 2.36,0.425 3.813,1.274 0.04,0.163 0.141,0.466 0.303,0.911 0.161,0.445 0.242,0.77 0.242,0.971 0,0.325 -0.139,0.588 -0.421,0.789 z"
       id="path3922"
       inkscape:connector-curvature="0"
       style="fill:#414042" /><path
       d="m 1051.706,459.582 c 0.363,1.457 0.292,2.438 -0.212,2.944 -0.505,0.506 -1.241,0.719 -2.21,0.637 -0.808,-0.039 -1.573,-0.403 -2.3,-1.092 -0.727,-0.689 -1.09,-1.417 -1.09,-2.186 0,-0.485 0.201,-0.941 0.605,-1.366 0.402,-0.425 0.826,-0.616 1.271,-0.576 0.766,0.04 1.533,0.102 2.3,0.182 0.889,0.203 1.434,0.688 1.636,1.457 z"
       id="path3924"
       inkscape:connector-curvature="0"
       style="fill:#414042" /><path
       d="m 1088.875,428.32 c 0,1.093 -0.727,1.781 -2.18,2.063 -1.897,0.364 -3.067,0.79 -3.511,1.275 -4.521,4.775 -6.78,10.947 -6.78,18.514 0,3.562 0.564,6.92 1.695,10.077 0.928,2.59 1.594,4.29 1.997,5.099 1.009,1.982 2.24,3.399 3.693,4.249 0.605,0.283 1.21,0.547 1.815,0.789 0.646,0.364 0.969,0.87 0.969,1.518 0,0.648 -0.212,1.234 -0.636,1.761 -0.424,0.525 -0.878,0.729 -1.361,0.606 -0.525,-0.081 -1.332,-0.344 -2.422,-0.789 -1.938,-1.133 -4.036,-3.541 -6.296,-7.224 -0.565,-0.931 -1.141,-1.891 -1.726,-2.883 -0.585,-0.991 -1.02,-1.932 -1.301,-2.822 -0.203,-0.647 -0.545,-3.258 -1.029,-7.831 -0.162,-1.416 -0.242,-2.792 -0.242,-4.128 0,-7.163 2.078,-13.253 6.235,-18.271 2.421,-2.913 4.943,-4.37 7.566,-4.37 1.13,0 2.159,0.344 3.088,1.032 0.283,0.203 0.426,0.648 0.426,1.335 z"
       id="path3926"
       inkscape:connector-curvature="0"
       style="fill:#414042" /><path
       d="m 1112.665,465.349 c 0.121,0.161 0.182,0.344 0.182,0.547 0,0.93 -0.969,1.639 -2.905,2.124 -2.14,-1.66 -4.804,-4.208 -7.991,-7.648 -3.552,-3.844 -6.195,-6.515 -7.93,-8.013 -0.121,1.053 -0.344,3.805 -0.666,8.256 -0.203,3.359 -0.565,6.029 -1.09,8.013 -0.081,0 -0.333,0.101 -0.757,0.303 -0.424,0.202 -0.777,0.264 -1.06,0.183 -1.776,-0.405 -2.663,-1.639 -2.663,-3.703 0,-0.606 0.08,-1.416 0.242,-2.428 0.16,-1.174 0.262,-1.901 0.303,-2.186 0.16,-2.347 0.262,-5.139 0.303,-8.377 v -6.616 c 0,-5.503 0.303,-10.138 0.907,-13.901 0.403,-2.508 2.765,-3.661 7.083,-3.46 2.18,0.082 4.076,1.175 5.69,3.278 1.493,1.942 2.24,4.047 2.24,6.313 0,1.902 -0.707,3.804 -2.119,5.705 -1.211,1.7 -2.704,3.035 -4.479,4.007 -0.727,0.405 -1.09,0.85 -1.09,1.335 0,0.527 0.424,1.154 1.271,1.882 0.645,0.526 1.291,1.053 1.938,1.579 0.039,0.04 2.259,2.063 6.658,6.069 2.786,2.509 4.762,4.755 5.933,6.738 z m -12.772,-27.255 c 0.121,-0.729 0.16,-1.376 0.121,-1.942 -0.121,-0.851 -0.476,-1.618 -1.06,-2.307 -0.586,-0.688 -1.524,-1.032 -2.815,-1.032 -0.969,0 -1.573,0.304 -1.815,0.91 -0.203,1.013 -0.303,2.166 -0.303,3.46 0,0.526 0.061,1.882 0.182,4.067 0.08,1.66 0.08,3.016 0,4.067 3.348,-2.508 5.244,-4.917 5.69,-7.223 z"
       id="path3928"
       inkscape:connector-curvature="0"
       style="fill:#414042" /><path
       d="m 1130.341,434.572 c -1.493,0.607 -3.692,1.316 -6.599,2.125 -2.905,0.81 -5.105,1.518 -6.599,2.125 -0.363,1.053 -0.626,3.399 -0.787,7.041 0.646,0.243 1.393,0.364 2.24,0.364 0.605,0 1.553,-0.101 2.846,-0.304 1.291,-0.202 2.239,-0.304 2.845,-0.304 1.13,0 2.098,0.243 2.906,0.729 0.564,0.811 0.847,1.336 0.847,1.578 0,0.284 -0.142,0.507 -0.424,0.668 -0.081,0.041 -0.362,0.324 -0.847,0.85 -0.324,0.364 -0.727,0.526 -1.211,0.486 -0.848,0.203 -2.401,0.324 -4.661,0.364 -1.897,0.04 -3.411,0.283 -4.541,0.729 -0.767,2.995 -1.149,5.362 -1.149,7.102 0,1.175 0.16,2.104 0.484,2.793 1.896,1.335 5.185,1.902 9.867,1.699 0.322,0 0.666,-0.151 1.029,-0.455 0.363,-0.304 0.666,-0.455 0.907,-0.455 1.13,-0.243 1.877,0.606 2.24,2.549 0.121,0.648 0.01,1.245 -0.333,1.791 -0.343,0.546 -0.838,0.839 -1.483,0.88 -4.883,0.161 -9.121,-0.223 -12.712,-1.153 -1.131,-0.283 -2.16,-0.91 -3.088,-1.882 -0.929,-0.971 -1.453,-2.063 -1.573,-3.277 -0.363,-3.521 -0.363,-6.678 0,-9.47 -1.131,-0.769 -1.635,-1.518 -1.514,-2.246 0.039,-0.364 0.353,-0.698 0.938,-1.002 0.584,-0.303 0.917,-0.616 0.998,-0.94 0.081,-0.323 0.242,-2.246 0.484,-5.767 -2.261,-0.445 -3.37,-1.295 -3.329,-2.55 0.04,-1.173 0.746,-2.104 2.119,-2.792 1.291,-0.525 2.582,-1.052 3.874,-1.578 1.492,-0.769 3.369,-1.457 5.63,-2.064 1.977,-0.525 3.955,-1.031 5.933,-1.518 0.201,-0.04 0.443,-0.061 0.727,-0.061 1.089,0 2.36,0.425 3.813,1.274 0.04,0.163 0.141,0.466 0.303,0.911 0.161,0.445 0.242,0.77 0.242,0.971 0,0.325 -0.14,0.588 -0.422,0.789 z"
       id="path3930"
       inkscape:connector-curvature="0"
       style="fill:#414042" /><path
       d="m 1153.526,462.01 c 0.242,0.648 0.363,1.215 0.363,1.7 0,0.81 -0.344,1.518 -1.029,2.124 -0.687,0.607 -1.15,0.89 -1.393,0.851 -1.978,-0.364 -3.229,-1.963 -3.753,-4.796 -0.565,-3.075 -1.231,-5.646 -1.998,-7.709 -1.372,0.121 -2.745,0.242 -4.116,0.364 -1.574,0.203 -2.806,0.688 -3.692,1.457 -0.445,1.255 -1.029,3.48 -1.756,6.677 -0.687,2.954 -1.353,5.199 -1.998,6.738 -0.323,0.729 -1.009,0.931 -2.058,0.606 -1.332,-0.445 -2.039,-1.053 -2.119,-1.82 -0.121,-1.539 0.322,-3.602 1.332,-6.192 1.211,-2.953 1.876,-5.058 1.997,-6.312 0.04,-0.364 -0.222,-0.769 -0.786,-1.214 -0.566,-0.445 -0.848,-0.789 -0.848,-1.032 0,-0.202 0.091,-0.414 0.272,-0.638 0.182,-0.222 0.605,-0.403 1.271,-0.546 0.666,-0.142 1.039,-0.354 1.12,-0.638 0.727,-2.022 1.877,-5.786 3.451,-11.29 1.331,-4.775 2.521,-8.438 3.571,-10.987 0.242,-0.566 0.746,-0.85 1.514,-0.85 0.564,0 1.068,0.182 1.513,0.546 1.13,0.972 1.856,2.428 2.18,4.37 0.242,1.66 0.464,3.319 0.666,4.978 2.018,9.551 4.117,17.421 6.296,23.613 z m -8.838,-11.594 c -0.121,-1.497 -0.384,-3.177 -0.786,-5.038 -0.404,-1.618 -0.787,-3.237 -1.15,-4.856 -1.211,3.359 -2.261,6.718 -3.148,10.076 0.644,-0.121 2.339,-0.182 5.084,-0.182 z"
       id="path3932"
       inkscape:connector-curvature="0"
       style="fill:#414042" /><path
       d="m 1186.154,427.106 c -0.363,1.457 -1.05,2.307 -2.058,2.55 -2.624,0.647 -7.185,1.497 -13.682,2.549 -0.808,10.077 -1.211,18.475 -1.211,25.191 0,2.55 0.04,5.06 0.121,7.527 0.04,0.769 0,1.355 -0.121,1.761 -0.202,0.646 -0.605,0.95 -1.211,0.91 -1.171,-0.041 -2.139,-0.537 -2.905,-1.487 -0.768,-0.951 -1.19,-2.013 -1.271,-3.187 -0.081,-1.497 -0.121,-3.075 -0.121,-4.735 0,-2.671 0.182,-6.898 0.545,-12.687 0.363,-5.544 0.524,-9.773 0.484,-12.687 -1.09,-0.081 -2.603,0.021 -4.54,0.304 -2.22,0.324 -3.753,0.485 -4.601,0.485 -1.978,0 -3.592,-0.53 -4.843,-1.592 -0.484,-1.061 -0.727,-1.611 -0.727,-1.652 0,-0.285 0.142,-0.592 0.424,-0.918 1.292,-0.448 3.935,-0.856 7.93,-1.225 3.512,-0.367 6.134,-1.02 7.87,-1.958 1.412,0.485 3.026,0.729 4.843,0.729 1.817,0 3.551,-0.223 5.206,-0.668 0.484,-0.04 1.715,-0.323 3.692,-0.85 1.453,-0.364 2.664,-0.486 3.633,-0.364 0.727,0 1.029,0.303 0.908,0.91 1.09,0.002 1.635,0.366 1.635,1.094 z"
       id="path3934"
       inkscape:connector-curvature="0"
       style="fill:#414042" /><path
       d="m 1198.867,434.572 c -1.493,0.607 -3.692,1.316 -6.599,2.125 -2.905,0.81 -5.105,1.518 -6.599,2.125 -0.363,1.053 -0.626,3.399 -0.787,7.041 0.646,0.243 1.393,0.364 2.24,0.364 0.605,0 1.553,-0.101 2.846,-0.304 1.291,-0.202 2.239,-0.304 2.845,-0.304 1.13,0 2.098,0.243 2.906,0.729 0.564,0.811 0.847,1.336 0.847,1.578 0,0.284 -0.142,0.507 -0.424,0.668 -0.081,0.041 -0.362,0.324 -0.847,0.85 -0.324,0.364 -0.727,0.526 -1.211,0.486 -0.848,0.203 -2.401,0.324 -4.661,0.364 -1.897,0.04 -3.411,0.283 -4.541,0.729 -0.767,2.995 -1.149,5.362 -1.149,7.102 0,1.175 0.16,2.104 0.484,2.793 1.896,1.335 5.185,1.902 9.867,1.699 0.322,0 0.666,-0.151 1.029,-0.455 0.363,-0.304 0.666,-0.455 0.907,-0.455 1.13,-0.243 1.877,0.606 2.24,2.549 0.121,0.648 0.01,1.245 -0.333,1.791 -0.343,0.546 -0.838,0.839 -1.483,0.88 -4.883,0.161 -9.121,-0.223 -12.712,-1.153 -1.131,-0.283 -2.16,-0.91 -3.088,-1.882 -0.929,-0.971 -1.453,-2.063 -1.573,-3.277 -0.363,-3.521 -0.363,-6.678 0,-9.47 -1.131,-0.769 -1.635,-1.518 -1.514,-2.246 0.039,-0.364 0.353,-0.698 0.938,-1.002 0.584,-0.303 0.917,-0.616 0.998,-0.94 0.081,-0.323 0.242,-2.246 0.484,-5.767 -2.261,-0.445 -3.37,-1.295 -3.329,-2.55 0.04,-1.173 0.746,-2.104 2.119,-2.792 1.291,-0.525 2.582,-1.052 3.874,-1.578 1.533,-0.769 3.43,-1.457 5.69,-2.064 1.938,-0.525 3.895,-1.031 5.872,-1.518 0.201,-0.04 0.443,-0.061 0.727,-0.061 1.089,0 2.36,0.425 3.813,1.274 0.04,0.163 0.141,0.466 0.303,0.911 0.161,0.445 0.242,0.77 0.242,0.971 0,0.325 -0.139,0.588 -0.421,0.789 z"
       id="path3936"
       inkscape:connector-curvature="0"
       style="fill:#414042" /><path
       d="m 1210.732,459.582 c 0.363,1.457 0.292,2.438 -0.212,2.944 -0.505,0.506 -1.241,0.719 -2.21,0.637 -0.808,-0.039 -1.573,-0.403 -2.3,-1.092 -0.727,-0.689 -1.09,-1.417 -1.09,-2.186 0,-0.485 0.201,-0.941 0.605,-1.366 0.402,-0.425 0.826,-0.616 1.271,-0.576 0.766,0.04 1.533,0.102 2.3,0.182 0.889,0.203 1.434,0.688 1.636,1.457 z"
       id="path3938"
       inkscape:connector-curvature="0"
       style="fill:#414042" /></g></svg>