<?xml version="1.0" standalone="no"?>
<!DOCTYPE svg PUBLIC "-//W3C//DTD SVG 20010904//EN"
 "http://www.w3.org/TR/2001/REC-SVG-20010904/DTD/svg10.dtd">
<svg version="1.0" xmlns="http://www.w3.org/2000/svg"
 width="700.000000pt" height="700.000000pt" viewBox="0 0 700.000000 700.000000"
 preserveAspectRatio="xMidYMid meet">
<metadata>
Created by potrace 1.11, written by Peter Selinger 2001-2013
</metadata>
<g transform="translate(0.000000,700.000000) scale(0.100000,-0.100000)"
fill="#000000" stroke="none">
<path d="M3458 6205 c-1 -1 -55 -6 -118 -10 -126 -7 -158 -10 -240 -25 -30 -5
-71 -12 -90 -15 -198 -32 -461 -120 -677 -226 -632 -311 -1109 -854 -1339
-1524 -26 -77 -79 -270 -88 -325 -3 -19 -8 -44 -10 -55 -3 -18 -11 -68 -21
-145 -23 -168 -23 -439 0 -620 2 -19 7 -57 11 -84 3 -27 7 -56 9 -65 1 -9 6
-36 10 -61 9 -57 52 -244 66 -287 6 -18 14 -33 19 -33 5 0 44 35 88 78 44 42
184 178 312 302 l231 225 -6 65 c-9 85 -8 288 1 348 3 26 12 53 18 61 9 12 8
13 -3 7 -9 -6 -12 -4 -9 5 3 8 14 14 25 14 12 0 24 3 28 6 3 4 -5 6 -17 5 -17
-1 -23 5 -24 21 -1 12 2 20 6 18 4 -3 11 2 14 11 4 10 2 13 -6 8 -8 -5 -9 0
-5 17 4 13 7 28 7 33 0 4 8 6 18 2 15 -5 15 -4 1 6 -14 10 -15 17 -1 69 8 32
18 56 23 53 5 -3 6 2 3 10 -10 26 56 200 79 209 9 4 9 6 0 6 -13 1 86 210 99
211 4 0 5 -7 2 -15 -4 -8 -1 -15 4 -15 6 0 9 12 6 26 -5 26 31 94 49 94 5 0 6
4 3 8 -3 5 6 20 20 35 13 14 24 29 24 33 0 21 200 235 212 228 5 -3 7 0 6 8
-2 7 3 12 10 10 8 -1 11 2 8 6 -7 13 30 46 43 38 5 -4 13 -1 17 5 4 8 3 9 -4
5 -7 -4 -12 -4 -12 1 1 4 35 34 76 66 343 265 742 399 1184 398 74 0 144 -2
155 -5 11 -2 46 -7 79 -11 123 -15 303 -58 391 -95 11 -4 36 -14 55 -21 129
-46 404 -207 486 -284 20 -19 39 -35 41 -35 10 0 68 -64 65 -72 -1 -4 2 -7 6
-6 13 5 71 -55 65 -65 -3 -6 -2 -7 4 -4 5 3 26 -12 46 -33 20 -22 35 -40 33
-40 -3 0 9 -15 25 -32 40 -44 109 -142 140 -198 13 -25 28 -48 33 -51 5 -4 5
-12 2 -18 -4 -6 -2 -11 4 -11 11 0 83 -144 83 -167 0 -7 4 -13 9 -13 4 0 8 -6
8 -12 0 -7 6 -25 14 -40 10 -20 11 -29 2 -39 -8 -9 -8 -10 1 -5 17 10 27 -13
12 -30 -10 -12 -10 -15 2 -12 8 2 13 -3 11 -9 -1 -7 2 -13 7 -13 13 0 19 -59
7 -64 -6 -2 -4 -5 5 -5 11 -1 19 -19 28 -63 6 -35 14 -74 17 -88 15 -70 15
-83 2 -91 -10 -7 -9 -9 3 -9 13 0 18 -15 23 -67 7 -77 8 -322 1 -368 -2 -16
-9 -64 -14 -105 -6 -41 -13 -84 -15 -95 -50 -234 -139 -455 -262 -650 -32 -50
-60 -92 -64 -95 -3 -3 -17 -21 -30 -40 -37 -52 -47 -64 -145 -164 -116 -119
-167 -162 -294 -247 -176 -119 -346 -196 -556 -254 l-120 -33 2 -372 c2 -205
5 -375 8 -378 2 -3 69 10 147 28 422 95 752 249 1088 509 109 84 327 300 419
414 191 237 363 551 455 830 29 87 81 283 90 337 37 234 40 266 40 485 1 268
-6 349 -44 535 -6 30 -14 66 -16 80 -15 77 -74 262 -121 380 -272 681 -812
1214 -1507 1485 -118 46 -321 106 -424 125 -31 5 -66 12 -77 14 -11 2 -45 7
-75 11 -30 4 -64 9 -75 11 -11 3 -85 7 -165 10 -80 3 -150 7 -157 9 -6 2 -13
2 -15 0z"/>
<path d="M3259 5308 c-7 -23 -5 -37 4 -31 6 4 8 0 4 -10 -4 -10 -2 -14 7 -11
15 6 17 34 2 31 -6 -1 -10 4 -8 11 2 10 -6 19 -9 10z"/>
<path d="M3154 5291 c4 -6 3 -17 -3 -24 -7 -9 -5 -13 8 -13 19 0 18 31 -2 43
-6 3 -7 1 -3 -6z"/>
<path d="M3014 5259 c-11 -19 10 -28 30 -13 11 8 15 14 10 14 -6 0 -16 -6 -23
-12 -11 -11 -13 -10 -8 5 7 19 2 23 -9 6z"/>
<path d="M3080 5240 c-9 -6 -10 -10 -3 -10 6 0 15 5 18 10 8 12 4 12 -15 0z"/>
<path d="M3230 5240 c0 -5 5 -10 10 -10 6 0 10 5 10 10 0 6 -4 10 -10 10 -5 0
-10 -4 -10 -10z"/>
<path d="M3313 5235 c0 -8 4 -12 9 -9 4 3 8 9 8 15 0 5 -4 9 -8 9 -5 0 -9 -7
-9 -15z"/>
<path d="M3406 5237 c3 -10 9 -15 12 -12 3 3 0 11 -7 18 -10 9 -11 8 -5 -6z"/>
<path d="M2870 5220 c0 -5 5 -10 10 -10 6 0 10 5 10 10 0 6 -4 10 -10 10 -5 0
-10 -4 -10 -10z"/>
<path d="M3113 5211 c10 -12 9 -14 -4 -9 -9 4 -16 1 -16 -7 0 -10 5 -11 16 -5
9 4 19 7 23 7 3 -1 10 2 15 6 4 5 4 8 -2 7 -21 -5 -29 1 -15 10 12 7 10 9 -7
7 -18 -1 -20 -4 -10 -16z"/>
<path d="M3268 5211 c3 -8 1 -12 -5 -8 -5 3 -10 0 -10 -8 0 -11 4 -12 13 -4 7
6 18 8 23 5 5 -4 13 -1 17 5 5 8 3 9 -6 4 -9 -6 -12 -4 -8 6 4 10 -1 15 -12
15 -11 0 -16 -5 -12 -15z"/>
<path d="M2993 5203 c4 -3 3 -11 -3 -17 -6 -8 -3 -12 9 -12 12 0 17 6 13 18
-2 10 -9 18 -15 18 -6 0 -7 -3 -4 -7z"/>
<path d="M3052 5201 c-11 -7 -11 -9 0 -14 9 -3 15 1 15 9 0 8 -1 14 -1 14 -1
0 -7 -4 -14 -9z"/>
<path d="M3386 5183 c-6 -14 -5 -15 5 -6 7 7 10 15 7 18 -3 3 -9 -2 -12 -12z"/>
<path d="M2910 5185 c5 -21 -1 -29 -10 -15 -7 12 -9 10 -7 -8 1 -14 5 -18 11
-12 6 6 14 3 23 -8 12 -15 13 -14 2 8 -7 14 -11 27 -10 28 2 2 0 7 -4 10 -4 4
-6 3 -5 -3z"/>
<path d="M3035 5169 c-4 -6 -5 -12 -2 -15 2 -3 7 2 10 11 7 17 1 20 -8 4z"/>
<path d="M2990 5134 c6 -6 7 -14 3 -17 -3 -4 -2 -7 4 -7 6 0 13 8 15 18 4 12
-1 18 -13 18 -12 0 -15 -4 -9 -12z"/>
<path d="M3365 5139 c-4 -6 -5 -12 -2 -15 2 -3 7 2 10 11 7 17 1 20 -8 4z"/>
<path d="M3134 5119 c0 -12 4 -15 12 -9 6 6 14 7 17 3 4 -3 7 -2 7 4 0 6 -8
13 -18 15 -12 4 -18 -1 -18 -13z"/>
<path d="M3294 5129 c3 -15 29 -20 47 -8 10 7 6 8 -13 5 -15 -2 -29 0 -32 5
-2 5 -3 4 -2 -2z"/>
<path d="M3114 5081 c0 -16 4 -27 8 -25 4 2 5 14 3 26 -7 32 -13 32 -11 -1z"/>
<path d="M3205 5102 c-5 -4 -11 -12 -12 -19 -3 -13 22 -12 34 2 5 4 2 5 -6 0
-11 -6 -13 -4 -8 8 7 19 6 20 -8 9z"/>
<path d="M3347 5089 c4 -13 8 -18 11 -10 2 7 -1 18 -6 23 -8 8 -9 4 -5 -13z"/>
<path d="M4350 5106 c0 -2 7 -7 16 -10 8 -3 12 -2 9 4 -6 10 -25 14 -25 6z"/>
<path d="M3275 5080 c3 -5 8 -10 11 -10 2 0 4 5 4 10 0 6 -5 10 -11 10 -5 0
-7 -4 -4 -10z"/>
<path d="M4275 5081 c-3 -5 -2 -12 3 -15 5 -3 9 1 9 9 0 17 -3 19 -12 6z"/>
<path d="M2997 5067 c-3 -8 1 -14 8 -14 7 0 11 6 8 14 -3 7 -6 13 -8 13 -2 0
-5 -6 -8 -13z"/>
<path d="M2956 5062 c-2 -4 -1 -14 4 -22 7 -11 9 -9 7 8 -1 24 -3 26 -11 14z"/>
<path d="M4306 5056 c6 -15 4 -17 -6 -11 -9 6 -11 4 -5 -4 5 -9 10 -10 18 -2
8 8 7 14 -2 24 -10 10 -11 8 -5 -7z"/>
<path d="M4348 5048 c2 -10 9 -18 15 -18 6 0 7 3 4 7 -4 3 -3 11 3 17 6 8 3
12 -9 12 -12 0 -17 -6 -13 -18z"/>
<path d="M4513 5064 c3 -3 2 -16 -3 -28 -6 -17 -4 -22 11 -22 12 0 15 4 8 12
-5 6 -7 19 -3 28 4 10 1 16 -7 16 -7 0 -10 -3 -6 -6z"/>
<path d="M3168 5053 c-10 -2 -18 -9 -18 -15 0 -6 3 -8 7 -5 3 4 11 3 17 -3 8
-6 12 -3 12 11 0 10 0 18 -1 18 0 -1 -8 -3 -17 -6z"/>
<path d="M3214 5049 c3 -15 29 -20 47 -8 10 7 6 8 -13 5 -15 -2 -29 0 -32 5
-2 5 -3 4 -2 -2z"/>
<path d="M2310 5026 c0 -2 7 -7 16 -10 8 -3 12 -2 9 4 -6 10 -25 14 -25 6z"/>
<path d="M2998 5008 c2 -10 6 -18 7 -18 1 0 5 8 7 18 3 11 0 19 -7 19 -7 0
-10 -8 -7 -19z"/>
<path d="M4605 5020 c-3 -6 1 -7 9 -4 18 7 21 14 7 14 -6 0 -13 -4 -16 -10z"/>
<path d="M2977 4999 c4 -13 8 -18 11 -10 2 7 -1 18 -6 23 -8 8 -9 4 -5 -13z"/>
<path d="M4181 5004 c0 -11 3 -14 6 -6 3 7 2 16 -1 19 -3 4 -6 -2 -5 -13z"/>
<path d="M4410 5011 c-8 -6 -19 -7 -25 -3 -5 3 -4 -2 4 -11 15 -19 26 -23 15
-5 -5 7 -2 9 8 6 9 -4 15 0 15 8 0 8 -1 14 -1 14 -1 0 -8 -4 -16 -9z"/>
<path d="M2350 5000 c0 -5 5 -10 10 -10 6 0 10 5 10 10 0 6 -4 10 -10 10 -5 0
-10 -4 -10 -10z"/>
<path d="M3090 5000 c0 -5 5 -10 10 -10 6 0 10 5 10 10 0 6 -4 10 -10 10 -5 0
-10 -4 -10 -10z"/>
<path d="M3185 5000 c-3 -6 1 -7 9 -4 18 7 21 14 7 14 -6 0 -13 -4 -16 -10z"/>
<path d="M4256 4994 c-3 -9 1 -11 11 -7 10 4 14 2 10 -4 -3 -5 0 -10 8 -10 10
0 12 4 5 12 -5 7 -8 14 -5 17 3 2 -2 5 -10 5 -8 0 -16 -6 -19 -13z"/>
<path d="M4438 4992 c-3 -11 0 -19 7 -19 7 0 10 8 7 19 -2 10 -6 18 -7 18 -1
0 -5 -8 -7 -18z"/>
<path d="M4487 4999 c7 -7 15 -10 18 -7 3 3 -2 9 -12 12 -14 6 -15 5 -6 -5z"/>
<path d="M4236 4967 c3 -10 9 -15 12 -12 3 3 0 11 -7 18 -10 9 -11 8 -5 -6z"/>
<path d="M4309 4963 c-13 -16 -12 -17 4 -4 9 7 17 15 17 17 0 8 -8 3 -21 -13z"/>
<path d="M2236 4953 c-6 -14 -5 -15 5 -6 7 7 10 15 7 18 -3 3 -9 -2 -12 -12z"/>
<path d="M2307 4959 c7 -7 15 -10 18 -7 3 3 -2 9 -12 12 -14 6 -15 5 -6 -5z"/>
<path d="M2918 4952 c-3 -11 0 -19 7 -19 7 0 10 8 7 19 -2 10 -6 18 -7 18 -1
0 -5 -8 -7 -18z"/>
<path d="M3015 4959 c-3 -3 5 -6 18 -5 15 1 21 -4 19 -14 -2 -8 0 -11 4 -7 17
17 11 33 -13 33 -13 0 -26 -3 -28 -7z"/>
<path d="M4179 4959 c-10 -7 -6 -8 13 -5 15 2 29 0 32 -5 2 -5 3 -4 2 2 -3 15
-29 20 -47 8z"/>
<path d="M4395 4960 c-3 -5 -1 -10 4 -10 6 0 11 5 11 10 0 6 -2 10 -4 10 -3 0
-8 -4 -11 -10z"/>
<path d="M4730 4966 c0 -2 7 -7 16 -10 8 -3 12 -2 9 4 -6 10 -25 14 -25 6z"/>
<path d="M2277 4937 c4 -6 0 -8 -10 -4 -25 9 -21 0 6 -14 12 -6 19 -8 15 -4
-4 5 -3 13 2 20 7 8 5 12 -5 12 -8 0 -11 -5 -8 -10z"/>
<path d="M4120 4935 c-7 -8 -16 -13 -20 -10 -5 3 -12 0 -16 -6 -4 -7 -3 -9 4
-5 5 3 13 0 15 -6 4 -10 6 -10 6 0 1 8 6 10 14 6 6 -4 9 -4 5 1 -4 4 -3 14 3
22 6 7 9 13 6 13 -2 0 -10 -7 -17 -15z"/>
<path d="M4434 4918 c-1 -15 3 -28 9 -28 6 0 8 3 4 6 -3 3 -2 16 3 28 6 16 5
23 -3 23 -7 0 -12 -13 -13 -29z"/>
<path d="M4255 4920 c-3 -5 -1 -10 4 -10 6 0 11 5 11 10 0 6 -2 10 -4 10 -3 0
-8 -4 -11 -10z"/>
<path d="M2957 4909 c7 -7 15 -10 18 -7 3 3 -2 9 -12 12 -14 6 -15 5 -6 -5z"/>
<path d="M4068 4893 c7 -3 16 -2 19 1 4 3 -2 6 -13 5 -11 0 -14 -3 -6 -6z"/>
<path d="M4528 4893 c-22 -5 -24 -20 -3 -20 8 0 16 6 19 14 3 7 4 12 3 12 -1
-1 -10 -3 -19 -6z"/>
<path d="M4736 4886 c3 -7 11 -13 19 -13 22 0 18 14 -4 20 -13 3 -18 0 -15 -7z"/>
<path d="M2226 4882 c-2 -4 4 -8 14 -8 10 0 16 4 14 8 -3 4 -9 8 -14 8 -5 0
-11 -4 -14 -8z"/>
<path d="M4213 4878 c-4 -7 -1 -8 7 -3 9 6 12 4 8 -7 -4 -8 -1 -15 7 -15 8 0
11 7 7 15 -4 11 -1 13 9 7 8 -5 11 -4 6 0 -12 13 -36 15 -44 3z"/>
<path d="M4556 4873 c-6 -14 -5 -15 5 -6 7 7 10 15 7 18 -3 3 -9 -2 -12 -12z"/>
<path d="M4627 4879 c7 -7 15 -10 18 -7 3 3 -2 9 -12 12 -14 6 -15 5 -6 -5z"/>
<path d="M2196 4867 c3 -10 9 -15 12 -12 3 3 0 11 -7 18 -10 9 -11 8 -5 -6z"/>
<path d="M4435 4870 c-3 -5 -1 -10 4 -10 6 0 11 5 11 10 0 6 -2 10 -4 10 -3 0
-8 -4 -11 -10z"/>
<path d="M4066 4857 c3 -10 9 -15 12 -12 3 3 0 11 -7 18 -10 9 -11 8 -5 -6z"/>
<path d="M4475 4860 c-16 -7 -17 -9 -3 -9 9 -1 20 4 23 9 7 11 7 11 -20 0z"/>
<path d="M4597 4857 c4 -6 0 -8 -10 -4 -10 4 -14 2 -11 -7 3 -7 11 -13 19 -13
8 0 13 3 10 5 -3 3 0 10 5 17 7 8 5 12 -5 12 -8 0 -11 -5 -8 -10z"/>
<path d="M4679 4868 c0 -2 -2 -10 -4 -19 -3 -19 22 -21 29 -3 3 9 -1 11 -11 7
-11 -4 -14 -2 -9 5 4 7 5 12 2 12 -3 0 -6 -1 -7 -2z"/>
<path d="M4833 4864 c3 -3 2 -16 -3 -28 -6 -16 -5 -23 3 -23 7 0 12 13 13 29
1 15 -3 28 -9 28 -6 0 -8 -3 -4 -6z"/>
<path d="M2484 4845 c-10 -8 -14 -15 -8 -15 6 0 17 7 24 15 16 19 9 19 -16 0z"/>
<path d="M2154 4825 c0 -13 3 -22 7 -19 8 4 6 30 -2 38 -3 3 -5 -5 -5 -19z"/>
<path d="M2553 4835 c0 -8 4 -12 9 -9 5 3 6 10 3 15 -9 13 -12 11 -12 -6z"/>
<path d="M4090 4846 c0 -2 7 -7 16 -10 8 -3 12 -2 9 4 -6 10 -25 14 -25 6z"/>
<path d="M4486 4841 c-19 -7 -19 -8 0 -13 13 -3 21 0 21 8 0 8 -1 14 -1 13 -1
0 -10 -4 -20 -8z"/>
<path d="M4773 4835 c0 -7 6 -11 14 -8 7 3 13 6 13 8 0 2 -6 5 -13 8 -8 3 -14
-1 -14 -8z"/>
<path d="M4081 4808 c9 -16 29 -17 29 -2 0 3 -5 2 -12 -2 -7 -5 -9 -2 -6 8 4
8 0 15 -7 15 -10 0 -11 -5 -4 -19z"/>
<path d="M4126 4822 c-3 -5 1 -9 9 -9 8 0 12 4 9 9 -3 4 -7 8 -9 8 -2 0 -6 -4
-9 -8z"/>
<path d="M4428 4808 c2 -10 9 -18 15 -18 6 0 7 3 4 7 -4 3 -3 11 3 17 6 8 3
12 -9 12 -12 0 -17 -6 -13 -18z"/>
<path d="M4519 4820 c-4 -34 -3 -44 9 -46 7 -1 8 0 3 2 -5 3 -7 16 -5 30 2 13
2 24 -1 24 -3 0 -6 -4 -6 -10z"/>
<path d="M2494 4799 c0 -12 4 -15 12 -9 6 6 14 7 17 3 4 -3 7 -2 7 4 0 6 -8
13 -18 15 -12 4 -18 -1 -18 -13z"/>
<path d="M4655 4809 c-4 -6 -13 -8 -21 -5 -7 3 -16 0 -20 -6 -5 -7 -2 -8 6 -3
9 6 12 4 8 -6 -4 -10 1 -15 12 -15 11 0 16 5 12 15 -3 8 -1 12 5 8 5 -3 10 0
10 8 0 18 -3 19 -12 4z"/>
<path d="M2116 4802 c-2 -4 -1 -14 4 -22 7 -11 9 -9 7 8 -1 24 -3 26 -11 14z"/>
<path d="M4714 4796 c1 -8 5 -18 8 -22 4 -3 5 1 4 10 -1 8 -5 18 -8 22 -4 3
-5 -1 -4 -10z"/>
<path d="M4870 4802 c0 -5 7 -9 15 -9 8 0 12 4 9 9 -3 4 -9 8 -15 8 -5 0 -9
-4 -9 -8z"/>
<path d="M2593 4785 c0 -8 4 -12 9 -9 5 3 6 10 3 15 -9 13 -12 11 -12 -6z"/>
<path d="M2076 4782 c-2 -4 -1 -14 3 -20 6 -10 11 -9 21 3 11 13 10 14 -5 9
-13 -5 -16 -4 -11 4 4 7 5 12 2 12 -3 0 -7 -4 -10 -8z"/>
<path d="M4235 4780 c6 -10 4 -12 -8 -7 -12 4 -15 1 -12 -15 3 -11 7 -23 11
-27 4 -3 5 1 2 9 -3 8 2 20 10 26 12 9 12 13 2 19 -9 6 -11 4 -5 -5z"/>
<path d="M4375 4780 c-3 -6 1 -7 9 -4 18 7 21 14 7 14 -6 0 -13 -4 -16 -10z"/>
<path d="M4831 4768 c6 -10 14 -16 19 -13 4 3 11 0 13 -5 3 -6 4 -5 3 2 -2 7
-9 12 -16 10 -7 -2 -10 3 -7 11 3 7 -1 14 -8 14 -10 0 -11 -5 -4 -19z"/>
<path d="M4911 4783 c3 -20 -2 -27 -11 -13 -7 12 -9 10 -8 -7 2 -14 7 -19 17
-15 8 3 12 1 8 -5 -3 -5 0 -10 8 -10 11 0 12 4 4 13 -6 7 -8 18 -5 23 4 5 2
13 -4 16 -6 4 -10 3 -9 -2z"/>
<path d="M2453 4773 c-17 -6 -17 -20 0 -20 8 0 14 6 14 14 0 7 -1 13 -1 12 -1
0 -7 -3 -13 -6z"/>
<path d="M2558 4773 c7 -3 16 -2 19 1 4 3 -2 6 -13 5 -11 0 -14 -3 -6 -6z"/>
<path d="M4595 4770 c-4 -6 -11 -8 -16 -5 -5 4 -9 1 -9 -4 0 -16 16 -13 30 4
7 8 10 15 7 15 -3 0 -9 -5 -12 -10z"/>
<path d="M2156 4753 c-6 -14 -5 -15 5 -6 7 7 10 15 7 18 -3 3 -9 -2 -12 -12z"/>
<path d="M2533 4755 c0 -7 8 -10 19 -7 10 2 18 6 18 7 0 1 -8 5 -18 7 -11 3
-19 0 -19 -7z"/>
<path d="M2630 4761 c0 -6 4 -13 10 -16 6 -3 7 1 4 9 -7 18 -14 21 -14 7z"/>
<path d="M4455 4760 c-2 -3 5 -7 16 -7 10 -1 19 2 19 6 0 9 -29 10 -35 1z"/>
<path d="M4707 4759 c7 -7 15 -10 18 -7 3 3 -2 9 -12 12 -14 6 -15 5 -6 -5z"/>
<path d="M2035 4751 c-3 -5 -2 -12 3 -15 5 -3 9 1 9 9 0 17 -3 19 -12 6z"/>
<path d="M4630 4750 c-9 -6 -10 -10 -3 -10 6 0 15 5 18 10 8 12 4 12 -15 0z"/>
<path d="M2590 4734 c6 -6 7 -14 3 -17 -3 -4 -2 -7 4 -7 6 0 13 8 15 18 4 12
-1 18 -13 18 -12 0 -15 -4 -9 -12z"/>
<path d="M3447 4697 c-27 -28 -103 -109 -170 -178 -141 -145 -491 -508 -568
-589 -28 -30 -143 -149 -253 -264 -111 -114 -221 -229 -245 -255 -24 -25 -139
-145 -256 -266 -117 -121 -227 -236 -246 -256 -19 -20 -126 -132 -239 -249
-113 -117 -227 -236 -255 -265 -221 -231 -272 -284 -289 -303 l-19 -22 552 1
c304 0 555 -1 557 -3 2 -3 -5 -22 -15 -44 -10 -21 -48 -102 -84 -179 -36 -77
-84 -180 -107 -230 -23 -49 -57 -121 -75 -160 -37 -79 -79 -169 -155 -330 -99
-209 -110 -271 -65 -362 92 -184 382 -268 534 -155 32 24 156 266 513 1000 42
87 52 101 64 91 28 -23 804 -779 851 -829 l23 -25 0 1963 c0 1079 -1 1962 -2
1962 -2 0 -25 -24 -51 -53z"/>
<path d="M4510 4734 c6 -6 7 -14 3 -17 -3 -4 -2 -7 4 -7 6 0 13 8 15 18 4 12
-1 18 -13 18 -12 0 -15 -4 -9 -12z"/>
<path d="M4668 4728 c2 -10 9 -18 15 -18 6 0 7 3 4 7 -4 3 -3 11 3 17 6 8 3
12 -9 12 -12 0 -17 -6 -13 -18z"/>
<path d="M2094 4719 c0 -12 4 -15 12 -9 6 6 14 7 17 3 4 -3 7 -2 7 4 0 6 -8
13 -18 15 -12 4 -18 -1 -18 -13z"/>
<path d="M4366 4727 c-16 -12 -16 -14 -3 -14 9 0 18 6 21 14 3 7 4 13 3 13 -2
0 -11 -6 -21 -13z"/>
<path d="M2415 4719 c-4 -6 -4 -13 -1 -16 3 -4 6 -1 6 6 0 7 5 9 12 5 7 -4 8
-3 4 4 -9 15 -13 15 -21 1z"/>
<path d="M4876 4714 c-8 -20 -8 -24 2 -24 4 0 8 9 9 20 2 24 -3 26 -11 4z"/>
<path d="M4953 4714 c0 -7 6 -15 13 -18 9 -3 11 1 7 11 -5 12 -3 14 8 8 8 -5
11 -4 6 0 -13 14 -34 14 -34 -1z"/>
<path d="M2070 4705 c0 -5 5 -17 10 -25 5 -8 10 -10 10 -5 0 6 -5 17 -10 25
-5 8 -10 11 -10 5z"/>
<path d="M2225 4700 c-3 -6 1 -7 9 -4 18 7 21 14 7 14 -6 0 -13 -4 -16 -10z"/>
<path d="M2657 4689 c4 -13 8 -18 11 -10 2 7 -1 18 -6 23 -8 8 -9 4 -5 -13z"/>
<path d="M4331 4705 c1 -19 18 -51 18 -35 0 8 -4 22 -9 30 -5 8 -9 11 -9 5z"/>
<path d="M2275 4690 c-4 -6 -11 -8 -16 -5 -5 4 -9 1 -9 -4 0 -16 16 -13 30 4
7 8 10 15 7 15 -3 0 -9 -5 -12 -10z"/>
<path d="M2683 4677 c-9 -18 -8 -24 2 -24 8 0 11 7 7 15 -3 10 -1 13 6 8 8 -5
10 -2 6 8 -8 21 -9 20 -21 -7z"/>
<path d="M4581 4684 c0 -11 3 -14 6 -6 3 7 2 16 -1 19 -3 4 -6 -2 -5 -13z"/>
<path d="M4732 4691 c-11 -7 -11 -9 0 -14 9 -3 15 1 15 9 0 8 -1 14 -1 14 -1
0 -7 -4 -14 -9z"/>
<path d="M1990 4679 c0 -5 5 -7 10 -4 6 3 10 8 10 11 0 2 -4 4 -10 4 -5 0 -10
-5 -10 -11z"/>
<path d="M2190 4680 c0 -5 5 -10 10 -10 6 0 10 5 10 10 0 6 -4 10 -10 10 -5 0
-10 -4 -10 -10z"/>
<path d="M2414 4682 c4 -3 14 -7 22 -8 9 -1 13 0 10 4 -4 3 -14 7 -22 8 -9 1
-13 0 -10 -4z"/>
<path d="M2517 4671 c-11 -14 -10 -15 7 -1 21 16 24 15 44 -9 11 -14 11 -14 5
3 -5 15 -3 17 8 11 8 -5 11 -4 6 1 -14 15 -57 12 -70 -5z"/>
<path d="M2628 4676 c3 -6 7 -17 8 -24 4 -27 12 -22 11 6 -1 16 -7 29 -14 29
-7 0 -9 -5 -5 -11z"/>
<path d="M4116 4679 c3 -5 9 -7 14 -4 4 3 11 0 13 -5 3 -6 4 -5 3 1 -1 7 -10
13 -19 15 -9 1 -15 -2 -11 -7z"/>
<path d="M4481 4676 c-9 -10 -8 -15 3 -19 11 -4 13 -1 9 10 -5 12 -3 14 7 8 9
-5 11 -4 6 3 -9 15 -11 15 -25 -2z"/>
<path d="M4548 4676 c3 -6 7 -17 8 -24 4 -27 12 -22 11 6 -1 16 -7 29 -14 29
-7 0 -9 -5 -5 -11z"/>
<path d="M4598 4672 c-3 -11 0 -19 7 -19 7 0 10 8 7 19 -2 10 -6 18 -7 18 -1
0 -5 -8 -7 -18z"/>
<path d="M4806 4678 c3 -5 10 -6 15 -3 13 9 11 12 -6 12 -8 0 -12 -4 -9 -9z"/>
<path d="M4892 4681 c-11 -7 -11 -9 0 -14 9 -3 15 1 15 9 0 8 -1 14 -1 14 -1
0 -7 -4 -14 -9z"/>
<path d="M4990 4686 c0 -2 7 -7 16 -10 8 -3 12 -2 9 4 -6 10 -25 14 -25 6z"/>
<path d="M2147 4667 c-3 -8 1 -14 8 -14 7 0 11 6 8 14 -3 7 -6 13 -8 13 -2 0
-5 -6 -8 -13z"/>
<path d="M2227 4653 c4 -10 2 -14 -4 -10 -5 3 -10 0 -10 -8 0 -10 4 -12 12 -5
7 5 15 6 20 2 4 -4 2 3 -4 16 -14 26 -23 30 -14 5z"/>
<path d="M2485 4662 c-5 -4 -11 -12 -12 -19 -3 -13 22 -12 34 2 5 4 2 5 -6 0
-11 -6 -13 -4 -8 8 7 19 6 20 -8 9z"/>
<path d="M4710 4663 c0 -5 5 -15 10 -23 7 -12 9 -10 7 8 -1 19 -17 33 -17 15z"/>
<path d="M4990 4646 c5 -13 6 -27 3 -30 -4 -3 -2 -6 4 -6 15 0 11 49 -4 54 -9
4 -10 -1 -3 -18z"/>
<path d="M2048 4653 c-22 -5 -24 -20 -3 -20 8 0 16 6 19 14 3 7 4 12 3 12 -1
-1 -10 -3 -19 -6z"/>
<path d="M2375 4649 c-4 -6 -13 -8 -21 -5 -7 3 -16 0 -20 -7 -4 -7 -4 -9 0 -5
5 4 18 3 30 -2 18 -6 22 -4 22 11 0 22 -2 23 -11 8z"/>
<path d="M4237 4653 c-12 -12 -7 -21 16 -26 20 -5 20 -5 5 7 -10 7 -15 16 -11
19 3 4 4 7 1 7 -2 0 -8 -3 -11 -7z"/>
<path d="M4410 4651 c-8 -6 -17 -8 -21 -5 -4 2 -11 0 -14 -6 -4 -6 -3 -10 2
-9 20 3 27 -2 13 -11 -12 -7 -10 -9 7 -7 18 1 20 4 10 16 -10 12 -9 14 4 9 10
-4 16 -1 16 8 0 8 -1 14 -1 14 -1 0 -8 -4 -16 -9z"/>
<path d="M4453 4645 c0 -7 6 -11 14 -8 7 3 13 6 13 8 0 2 -6 5 -13 8 -8 3 -14
-1 -14 -8z"/>
<path d="M4638 4653 c7 -3 16 -2 19 1 4 3 -2 6 -13 5 -11 0 -14 -3 -6 -6z"/>
<path d="M4045 4640 c-3 -6 1 -7 9 -4 18 7 21 14 7 14 -6 0 -13 -4 -16 -10z"/>
<path d="M4828 4632 c-4 -12 1 -18 13 -18 12 0 15 4 9 12 -6 6 -7 14 -3 17 3
4 2 7 -4 7 -6 0 -13 -8 -15 -18z"/>
<path d="M1997 4617 c4 -6 0 -8 -9 -4 -12 4 -14 1 -11 -14 3 -11 6 -18 7 -17
1 2 9 12 19 24 14 17 14 21 2 21 -8 0 -11 -5 -8 -10z"/>
<path d="M2437 4617 c4 -7 -1 -8 -13 -3 -15 6 -17 5 -6 -5 10 -11 15 -10 28 2
13 14 13 16 0 16 -8 0 -12 -5 -9 -10z"/>
<path d="M4596 4603 c0 -12 4 -25 7 -28 4 -3 5 -2 3 1 -3 3 -1 16 4 28 6 16 5
23 -4 23 -6 0 -11 -11 -10 -24z"/>
<path d="M4675 4621 c-3 -5 -2 -12 3 -15 5 -3 9 1 9 9 0 17 -3 19 -12 6z"/>
<path d="M4757 4617 c4 -6 0 -8 -10 -4 -10 4 -14 2 -11 -7 3 -7 11 -13 19 -13
8 0 13 3 10 5 -3 3 0 10 5 17 7 8 5 12 -5 12 -8 0 -11 -5 -8 -10z"/>
<path d="M2657 4609 c7 -7 15 -10 18 -7 3 3 -2 9 -12 12 -14 6 -15 5 -6 -5z"/>
<path d="M4013 4606 c-9 -11 -9 -15 0 -19 7 -3 14 3 14 14 2 22 2 22 -14 5z"/>
<path d="M4296 4607 c5 -14 54 -18 54 -4 0 5 -6 7 -12 4 -7 -2 -21 0 -30 5
-13 6 -16 5 -12 -5z"/>
<path d="M2017 4596 c-4 -11 -1 -13 10 -9 10 4 14 2 10 -4 -3 -5 0 -10 8 -10
13 0 12 4 -2 19 -19 22 -19 22 -26 4z"/>
<path d="M2114 4595 c1 -8 6 -18 11 -22 4 -5 5 -2 0 6 -6 11 -4 13 8 8 23 -9
21 0 -2 13 -15 7 -19 7 -17 -5z"/>
<path d="M2176 4594 c-3 -9 1 -11 11 -7 12 5 14 3 8 -8 -5 -8 -4 -11 0 -6 5 4
10 13 11 21 2 16 -24 17 -30 0z"/>
<path d="M2530 4601 c0 -6 4 -13 10 -16 6 -3 7 1 4 9 -7 18 -14 21 -14 7z"/>
<path d="M2595 4599 c-3 -4 2 -6 10 -5 21 3 28 13 10 13 -9 0 -18 -4 -20 -8z"/>
<path d="M4084 4602 c4 -3 14 -7 22 -8 9 -1 13 0 10 4 -4 3 -14 7 -22 8 -9 1
-13 0 -10 -4z"/>
<path d="M4430 4600 c0 -5 5 -10 10 -10 6 0 10 5 10 10 0 6 -4 10 -10 10 -5 0
-10 -4 -10 -10z"/>
<path d="M4621 4594 c0 -11 3 -14 6 -6 3 7 2 16 -1 19 -3 4 -6 -2 -5 -13z"/>
<path d="M4870 4600 c0 -5 5 -10 10 -10 6 0 10 5 10 10 0 6 -4 10 -10 10 -5 0
-10 -4 -10 -10z"/>
<path d="M1955 4591 c-3 -5 -2 -12 3 -15 5 -3 9 1 9 9 0 17 -3 19 -12 6z"/>
<path d="M5066 4583 c-6 -14 -5 -15 5 -6 7 7 10 15 7 18 -3 3 -9 -2 -12 -12z"/>
<path d="M4039 4580 c-4 -34 -3 -44 9 -46 7 -1 8 0 3 2 -5 3 -7 16 -5 30 2 13
2 24 -1 24 -3 0 -6 -4 -6 -10z"/>
<path d="M4153 4568 c-2 -18 0 -20 7 -8 12 18 13 30 2 30 -4 0 -9 -10 -9 -22z"/>
<path d="M4359 4588 c-6 -20 -5 -38 2 -49 7 -10 8 -6 5 13 -3 15 1 29 7 32 9
3 9 5 0 5 -7 1 -13 0 -14 -1z"/>
<path d="M4394 4576 c1 -8 5 -18 8 -22 4 -3 5 1 4 10 -1 8 -5 18 -8 22 -4 3
-5 -1 -4 -10z"/>
<path d="M4468 4572 c3 -9 1 -13 -5 -9 -5 3 -10 0 -10 -7 0 -11 5 -11 17 -4
19 12 22 35 4 35 -7 0 -10 -7 -6 -15z"/>
<path d="M4910 4574 c6 -6 7 -14 3 -17 -3 -4 -2 -7 4 -7 6 0 13 8 15 18 4 12
-1 18 -13 18 -12 0 -15 -4 -9 -12z"/>
<path d="M2288 4573 c-22 -5 -24 -20 -3 -20 8 0 16 6 19 14 3 7 4 12 3 12 -1
-1 -10 -3 -19 -6z"/>
<path d="M2460 4571 c0 -7 -5 -9 -12 -5 -7 5 -8 3 -3 -5 5 -9 10 -10 18 -2 6
6 8 14 4 18 -4 3 -7 1 -7 -6z"/>
<path d="M4533 4565 c0 -7 8 -10 19 -7 10 2 18 6 18 7 0 1 -8 5 -18 7 -11 3
-19 0 -19 -7z"/>
<path d="M4654 4569 c3 -15 29 -20 47 -8 10 7 6 8 -13 5 -15 -2 -29 0 -32 5
-2 5 -3 4 -2 -2z"/>
<path d="M1911 4553 c6 -7 17 -13 23 -12 7 0 6 2 -2 6 -6 2 -10 8 -8 12 3 4
-1 8 -9 8 -11 0 -12 -4 -4 -14z"/>
<path d="M1996 4554 c-8 -20 -8 -24 2 -24 4 0 8 9 9 20 2 24 -3 26 -11 4z"/>
<path d="M2150 4556 c7 -7 13 -7 20 0 6 6 3 10 -10 10 -13 0 -16 -4 -10 -10z"/>
<path d="M4268 4552 c-4 -12 1 -18 13 -18 12 0 15 4 9 12 -6 6 -7 14 -3 17 3
4 2 7 -4 7 -6 0 -13 -8 -15 -18z"/>
<path d="M4773 4557 c-4 -6 -1 -7 7 -2 10 6 12 4 7 -8 -9 -23 0 -22 12 1 8 14
6 19 -5 19 -8 0 -18 -5 -21 -10z"/>
<path d="M5016 4561 c-3 -4 6 -7 19 -7 14 0 22 2 19 5 -8 8 -34 10 -38 2z"/>
<path d="M5076 4562 c-3 -5 1 -9 9 -9 8 0 12 4 9 9 -3 4 -7 8 -9 8 -2 0 -6 -4
-9 -8z"/>
<path d="M3975 4550 c-3 -6 1 -7 9 -4 18 7 21 14 7 14 -6 0 -13 -4 -16 -10z"/>
<path d="M1890 4541 c0 -6 4 -13 10 -16 6 -3 7 1 4 9 -7 18 -14 21 -14 7z"/>
<path d="M2234 4532 c3 -20 33 -36 33 -18 0 9 -7 12 -16 8 -13 -5 -14 -3 -4 9
10 13 10 16 -1 16 -8 0 -13 -7 -12 -15z"/>
<path d="M2355 4541 c6 -11 4 -13 -8 -8 -10 4 -14 2 -11 -7 6 -17 32 -16 30 0
-1 8 -6 17 -11 21 -4 5 -5 2 0 -6z"/>
<path d="M2404 4539 c-3 -6 -2 -15 4 -21 6 -6 12 -6 17 3 6 8 4 10 -5 4 -10
-6 -12 -4 -7 8 7 19 2 23 -9 6z"/>
<path d="M4111 4534 c6 -7 8 -18 5 -23 -4 -5 -1 -13 5 -17 8 -5 9 -3 4 6 -6 9
-4 12 6 8 10 -4 15 1 15 12 0 11 -5 16 -15 12 -8 -3 -12 -1 -8 5 3 5 0 10 -8
10 -11 0 -12 -4 -4 -13z"/>
<path d="M4546 4541 c-4 -5 3 -7 14 -4 23 6 26 13 6 13 -8 0 -17 -4 -20 -9z"/>
<path d="M4630 4543 c0 -5 5 -15 10 -23 7 -12 9 -10 7 8 -1 19 -17 33 -17 15z"/>
<path d="M4706 4537 c3 -10 9 -15 12 -12 3 3 0 11 -7 18 -10 9 -11 8 -5 -6z"/>
<path d="M3996 4527 c3 -10 9 -15 12 -12 3 3 0 11 -7 18 -10 9 -11 8 -5 -6z"/>
<path d="M4175 4528 c1 -7 8 -12 15 -10 7 2 10 -3 7 -11 -3 -7 1 -14 8 -14 10
0 11 5 4 19 -6 10 -14 16 -19 13 -4 -3 -11 0 -13 5 -3 6 -4 5 -2 -2z"/>
<path d="M4315 4526 l-30 -13 31 1 c17 1 31 6 31 14 0 6 -1 12 -1 12 -1 -1
-14 -7 -31 -14z"/>
<path d="M4754 4529 c-3 -6 -2 -15 3 -20 5 -5 9 -1 9 11 0 23 -2 24 -12 9z"/>
<path d="M4853 4525 c0 -7 6 -11 14 -8 7 3 13 6 13 8 0 2 -6 5 -13 8 -8 3 -14
-1 -14 -8z"/>
<path d="M5028 4533 c7 -3 16 -2 19 1 4 3 -2 6 -13 5 -11 0 -14 -3 -6 -6z"/>
<path d="M1926 4518 c3 -5 10 -6 15 -3 13 9 11 12 -6 12 -8 0 -12 -4 -9 -9z"/>
<path d="M2012 4521 c-11 -7 -11 -9 0 -14 9 -3 15 1 15 9 0 8 -1 14 -1 14 -1
0 -7 -4 -14 -9z"/>
<path d="M2484 4519 c-4 -7 -3 -9 4 -5 5 3 13 0 15 -6 4 -9 6 -10 6 -1 1 17
-16 25 -25 12z"/>
<path d="M4416 4514 c-3 -9 1 -11 11 -7 12 5 14 3 8 -8 -5 -8 -4 -11 0 -6 5 4
10 13 11 21 2 16 -24 17 -30 0z"/>
<path d="M4510 4526 c0 -2 7 -7 16 -10 8 -3 12 -2 9 4 -6 10 -25 14 -25 6z"/>
<path d="M4936 4522 c-3 -5 1 -9 9 -9 8 0 12 4 9 9 -3 4 -7 8 -9 8 -2 0 -6 -4
-9 -8z"/>
<path d="M4970 4522 c0 -4 10 -9 22 -9 18 -2 20 0 8 7 -18 12 -30 13 -30 2z"/>
<path d="M2135 4510 c-3 -6 1 -7 9 -4 18 7 21 14 7 14 -6 0 -13 -4 -16 -10z"/>
<path d="M2114 4488 c2 -15 0 -29 -5 -32 -5 -2 -4 -3 2 -2 15 3 20 29 8 47 -7
10 -8 6 -5 -13z"/>
<path d="M2199 4503 c0 -5 -2 -16 -4 -25 -2 -9 3 -19 11 -22 11 -4 12 -1 6 12
-5 9 -7 23 -5 30 3 6 2 12 -1 12 -3 0 -6 -3 -7 -7z"/>
<path d="M2279 4500 c-4 -34 -3 -44 9 -46 7 -1 8 0 3 2 -5 3 -7 16 -5 30 2 13
2 24 -1 24 -3 0 -6 -4 -6 -10z"/>
<path d="M4039 4508 c-6 -20 -5 -38 2 -49 7 -10 8 -6 5 13 -3 15 1 29 7 32 9
3 9 5 0 5 -7 1 -13 0 -14 -1z"/>
<path d="M4239 4508 c-10 -33 6 -46 28 -24 4 4 4 7 -2 6 -21 -5 -29 1 -15 10
10 6 11 10 3 10 -7 0 -13 -1 -14 -2z"/>
<path d="M4509 4504 c5 -3 7 -17 5 -32 -3 -19 -2 -23 5 -13 12 18 7 44 -8 47
-6 1 -7 0 -2 -2z"/>
<path d="M4787 4493 c5 -12 3 -14 -8 -8 -8 5 -11 4 -6 0 4 -5 13 -10 21 -11
16 -2 17 24 0 30 -9 3 -11 -1 -7 -11z"/>
<path d="M4873 4488 c-2 -18 0 -20 7 -8 12 18 13 30 2 30 -4 0 -9 -10 -9 -22z"/>
<path d="M5028 4498 c5 -5 16 -8 23 -6 8 3 3 7 -10 11 -17 4 -21 3 -13 -5z"/>
<path d="M5110 4501 c0 -6 4 -13 10 -16 6 -3 7 1 4 9 -7 18 -14 21 -14 7z"/>
<path d="M2373 4486 c0 -8 5 -12 10 -9 7 4 8 -1 3 -13 -6 -15 -5 -17 5 -6 11
10 10 15 -2 28 -14 13 -16 13 -16 0z"/>
<path d="M3897 4485 c-4 -8 -3 -16 1 -19 4 -3 9 4 9 15 2 23 -3 25 -10 4z"/>
<path d="M3936 4486 c5 -14 40 -14 53 0 3 4 -1 4 -9 2 -8 -3 -23 -1 -32 4 -13
6 -16 5 -12 -6z"/>
<path d="M4608 4493 c-22 -5 -24 -20 -3 -20 8 0 16 6 19 14 3 7 4 12 3 12 -1
-1 -10 -3 -19 -6z"/>
<path d="M4948 4493 c7 -3 16 -2 19 1 4 3 -2 6 -13 5 -11 0 -14 -3 -6 -6z"/>
<path d="M1896 4482 c-3 -5 1 -9 9 -9 8 0 12 4 9 9 -3 4 -7 8 -9 8 -2 0 -6 -4
-9 -8z"/>
<path d="M1948 4472 c-4 -12 1 -18 13 -18 12 0 15 4 9 12 -6 6 -7 14 -3 17 3
4 2 7 -4 7 -6 0 -13 -8 -15 -18z"/>
<path d="M2433 4483 c4 -3 3 -11 -3 -17 -6 -8 -3 -12 9 -12 12 0 17 6 13 18
-2 10 -9 18 -15 18 -6 0 -7 -3 -4 -7z"/>
<path d="M4146 4478 c3 -4 9 -8 15 -8 5 0 9 4 9 8 0 5 -7 9 -15 9 -8 0 -12 -4
-9 -9z"/>
<path d="M4350 4479 c0 -3 9 -9 19 -12 13 -3 18 0 15 7 -5 13 -34 18 -34 5z"/>
<path d="M4656 4474 c-3 -7 2 -10 15 -7 22 6 26 20 4 20 -8 0 -16 -6 -19 -13z"/>
<path d="M4966 4481 c-19 -7 -19 -8 0 -13 13 -3 21 0 21 8 0 8 -1 14 -1 13 -1
0 -10 -4 -20 -8z"/>
<path d="M5013 4475 c0 -7 8 -10 19 -7 10 2 18 6 18 7 0 1 -8 5 -18 7 -11 3
-19 0 -19 -7z"/>
<path d="M3990 4455 c5 -7 6 -15 2 -20 -4 -4 3 -2 16 4 26 14 30 23 5 14 -10
-4 -14 -2 -10 4 3 5 0 10 -8 10 -10 0 -12 -4 -5 -12z"/>
<path d="M4199 4452 c5 -9 16 -17 25 -18 9 -1 14 2 10 7 -3 5 -10 6 -16 3 -7
-5 -9 -2 -6 8 4 8 0 15 -8 15 -9 0 -10 -5 -5 -15z"/>
<path d="M4557 4457 c4 -6 0 -8 -8 -5 -10 4 -15 -1 -17 -15 -1 -17 1 -19 8 -7
9 14 14 7 11 -13 -1 -5 3 -6 9 -2 6 3 8 11 4 16 -3 5 -1 16 5 23 8 9 7 13 -4
13 -8 0 -11 -5 -8 -10z"/>
<path d="M4834 4451 c13 -12 18 -13 28 -2 11 10 9 11 -6 5 -12 -5 -17 -4 -13
3 3 5 -1 10 -9 10 -13 0 -13 -2 0 -16z"/>
<path d="M1912 4446 c7 -8 15 -12 17 -11 5 6 -10 25 -20 25 -5 0 -4 -6 3 -14z"/>
<path d="M4290 4451 c0 -7 -4 -10 -8 -7 -9 5 -10 -60 -1 -69 3 -3 5 7 4 22 -1
16 3 34 8 41 5 7 7 15 3 19 -3 3 -6 1 -6 -6z"/>
<path d="M4882 4444 c-7 -8 -8 -14 -3 -14 10 0 25 19 20 25 -2 1 -10 -3 -17
-11z"/>
<path d="M1990 4442 c0 -4 9 -8 20 -9 11 -1 20 2 20 5 0 4 -9 8 -20 9 -11 1
-20 -2 -20 -5z"/>
<path d="M2150 4440 c0 -5 5 -10 10 -10 6 0 10 5 10 10 0 6 -4 10 -10 10 -5 0
-10 -4 -10 -10z"/>
<path d="M2317 4438 c-7 -5 0 -6 17 -4 16 3 31 7 33 10 8 8 -37 2 -50 -6z"/>
<path d="M3905 4440 c-3 -6 1 -7 9 -4 18 7 21 14 7 14 -6 0 -13 -4 -16 -10z"/>
<path d="M4078 4432 c-3 -11 0 -19 7 -19 7 0 10 8 7 19 -2 10 -6 18 -7 18 -1
0 -5 -8 -7 -18z"/>
<path d="M4438 4432 c-3 -11 0 -19 7 -19 7 0 10 8 7 19 -2 10 -6 18 -7 18 -1
0 -5 -8 -7 -18z"/>
<path d="M4630 4441 c0 -6 4 -13 10 -16 6 -3 7 1 4 9 -7 18 -14 21 -14 7z"/>
<path d="M4153 4425 c0 -8 4 -15 9 -15 4 0 8 4 8 9 0 6 -4 12 -8 15 -5 3 -9
-1 -9 -9z"/>
<path d="M4347 4427 c-3 -8 1 -14 8 -14 7 0 11 6 8 14 -3 7 -6 13 -8 13 -2 0
-5 -6 -8 -13z"/>
<path d="M4775 4430 c-4 -6 1 -7 11 -3 10 4 15 2 11 -4 -3 -5 0 -10 8 -10 11
0 12 4 4 14 -14 15 -26 17 -34 3z"/>
<path d="M4947 4427 c-3 -8 1 -14 8 -14 7 0 11 6 8 14 -3 7 -6 13 -8 13 -2 0
-5 -6 -8 -13z"/>
<path d="M5135 4430 c-4 -6 1 -7 11 -3 13 5 15 3 9 -7 -5 -9 -4 -11 4 -6 6 4
9 12 6 17 -8 12 -22 12 -30 -1z"/>
<path d="M1835 4420 c-3 -5 -3 -10 1 -10 4 0 -1 -7 -12 -16 -18 -14 -18 -15 4
-4 12 6 20 15 17 20 -3 4 1 11 7 13 9 4 10 6 1 6 -6 1 -15 -3 -18 -9z"/>
<path d="M1950 4414 c6 -6 7 -14 3 -17 -3 -4 -2 -7 4 -7 6 0 13 8 15 18 4 12
-1 18 -13 18 -12 0 -15 -4 -9 -12z"/>
<path d="M2068 4423 c7 -3 16 -2 19 1 4 3 -2 6 -13 5 -11 0 -14 -3 -6 -6z"/>
<path d="M2107 4409 c6 -22 20 -26 20 -4 0 8 -6 16 -13 19 -7 3 -10 -2 -7 -15z"/>
<path d="M2199 4428 c-6 -20 -5 -38 2 -49 7 -10 8 -6 5 13 -3 15 1 29 7 32 9
3 9 5 0 5 -7 1 -13 0 -14 -1z"/>
<path d="M2267 4409 c6 -22 20 -26 20 -4 0 8 -6 16 -13 19 -7 3 -10 -2 -7 -15z"/>
<path d="M2359 4428 c-6 -20 -5 -38 2 -49 7 -10 8 -6 5 13 -3 15 1 29 7 32 9
3 9 5 0 5 -7 1 -13 0 -14 -1z"/>
<path d="M2397 4413 c3 -7 6 -13 8 -13 2 0 5 6 8 13 3 8 -1 14 -8 14 -7 0 -11
-6 -8 -14z"/>
<path d="M4754 4408 c2 -15 0 -29 -5 -32 -5 -2 -4 -3 2 -2 15 3 20 29 8 47 -7
10 -8 6 -5 -13z"/>
<path d="M5110 4425 c0 -5 5 -17 10 -25 5 -8 10 -10 10 -5 0 6 -5 17 -10 25
-5 8 -10 11 -10 5z"/>
<path d="M4615 4410 c-4 -6 -11 -8 -16 -5 -5 4 -9 2 -9 -3 0 -5 8 -12 18 -14
12 -4 18 1 18 13 0 22 -2 23 -11 9z"/>
<path d="M4027 4391 c-3 -13 0 -18 7 -15 7 3 13 11 13 19 0 22 -14 18 -20 -4z"/>
<path d="M4390 4400 c0 -5 5 -10 10 -10 6 0 10 5 10 10 0 6 -4 10 -10 10 -5 0
-10 -4 -10 -10z"/>
<path d="M4819 4399 c-10 -7 -6 -8 13 -5 15 2 29 0 32 -5 2 -5 3 -4 2 2 -3 15
-29 20 -47 8z"/>
<path d="M4993 4403 c4 -3 3 -11 -3 -17 -6 -8 -3 -12 9 -12 12 0 17 6 13 18
-2 10 -9 18 -15 18 -6 0 -7 -3 -4 -7z"/>
<path d="M4115 4391 c-3 -5 -2 -12 3 -15 5 -3 9 1 9 9 0 17 -3 19 -12 6z"/>
<path d="M3950 4385 c5 -21 -1 -29 -10 -15 -7 11 -10 11 -10 2 0 -7 -5 -10
-12 -6 -7 4 -8 3 -4 -5 4 -6 11 -9 16 -6 4 3 11 -1 13 -7 4 -10 6 -10 6 0 1 7
5 11 10 8 11 -7 8 20 -3 31 -4 4 -7 4 -6 -2z"/>
<path d="M4345 4380 c2 -4 7 -22 10 -41 3 -19 11 -38 16 -44 7 -7 7 -2 1 15
-5 14 -9 37 -8 51 1 14 -4 26 -11 26 -7 0 -10 -3 -8 -7z"/>
<path d="M4438 4368 c2 -10 6 -18 7 -18 1 0 5 8 7 18 3 11 0 19 -7 19 -7 0
-10 -8 -7 -19z"/>
<path d="M4675 4380 c6 -9 4 -12 -6 -8 -10 4 -15 -1 -15 -12 0 -11 5 -16 15
-12 8 3 12 1 8 -5 -3 -5 0 -10 8 -10 11 0 12 4 4 13 -6 7 -8 18 -5 23 4 5 1
13 -5 17 -8 5 -9 3 -4 -6z"/>
<path d="M2021 4364 c0 -11 3 -14 6 -6 3 7 2 16 -1 19 -3 4 -6 -2 -5 -13z"/>
<path d="M2172 4371 c-11 -7 -11 -9 0 -14 9 -3 15 1 15 9 0 8 -1 14 -1 14 -1
0 -7 -4 -14 -9z"/>
<path d="M2332 4371 c-11 -7 -11 -9 0 -14 9 -3 15 1 15 9 0 8 -1 14 -1 14 -1
0 -7 -4 -14 -9z"/>
<path d="M4173 4363 c1 -18 4 -20 16 -10 12 10 14 9 9 -4 -4 -9 -1 -16 7 -16
10 0 11 5 4 19 -6 10 -14 16 -19 13 -4 -3 -10 1 -13 7 -3 7 -4 3 -4 -9z"/>
<path d="M4417 4359 c4 -13 8 -18 11 -10 2 7 -1 18 -6 23 -8 8 -9 4 -5 -13z"/>
<path d="M5100 4369 c0 -5 -4 -8 -9 -4 -6 3 -14 -3 -20 -13 -7 -14 -6 -19 4
-19 8 0 11 7 7 16 -5 13 -3 14 9 4 12 -10 15 -8 16 8 1 10 0 19 -3 19 -2 0 -4
-5 -4 -11z"/>
<path d="M1914 4352 c2 -9 9 -18 17 -20 11 -3 11 -1 -1 7 -14 10 -7 16 15 11
6 -1 6 2 2 6 -14 15 -35 12 -33 -4z"/>
<path d="M2038 4352 c-3 -11 0 -19 7 -19 7 0 10 8 7 19 -2 10 -6 18 -7 18 -1
0 -5 -8 -7 -18z"/>
<path d="M4520 4360 c-12 -7 -10 -9 8 -7 12 0 22 5 22 9 0 11 -12 10 -30 -2z"/>
<path d="M4790 4360 c0 -5 5 -10 11 -10 5 0 7 5 4 10 -3 6 -8 10 -11 10 -2 0
-4 -4 -4 -10z"/>
<path d="M4967 4359 c7 -7 15 -10 18 -7 3 3 -2 9 -12 12 -14 6 -15 5 -6 -5z"/>
<path d="M5134 4358 c-4 -5 -3 -12 0 -15 3 -4 6 -1 6 7 0 9 3 10 13 1 10 -8
14 -7 14 2 0 15 -25 18 -33 5z"/>
<path d="M1990 4343 c0 -5 5 -15 10 -23 7 -12 9 -10 7 8 -1 19 -17 33 -17 15z"/>
<path d="M2150 4343 c0 -5 5 -15 10 -23 7 -12 9 -10 7 8 -1 19 -17 33 -17 15z"/>
<path d="M2280 4340 c-9 -6 -10 -10 -3 -10 6 0 15 5 18 10 8 12 4 12 -15 0z"/>
<path d="M2310 4339 c0 -5 5 -7 10 -4 6 3 10 8 10 11 0 2 -4 4 -10 4 -5 0 -10
-5 -10 -11z"/>
<path d="M3894 4338 c-4 -7 -4 -10 1 -6 4 4 15 2 24 -5 14 -11 14 -10 2 6 -16
20 -18 21 -27 5z"/>
<path d="M4241 4336 c-9 -10 -8 -15 3 -19 9 -4 18 -1 22 5 5 7 2 8 -6 3 -10
-6 -12 -4 -7 8 8 21 3 22 -12 3z"/>
<path d="M4630 4345 c0 -5 5 -17 10 -25 5 -8 10 -10 10 -5 0 6 -5 17 -10 25
-5 8 -10 11 -10 5z"/>
<path d="M1808 4333 c-22 -5 -24 -20 -3 -20 8 0 16 6 19 14 3 7 4 12 3 12 -1
-1 -10 -3 -19 -6z"/>
<path d="M1854 4319 c0 -12 4 -15 12 -9 6 6 14 7 17 3 4 -3 7 -2 7 4 0 6 -8
13 -18 15 -12 4 -18 -1 -18 -13z"/>
<path d="M2078 4333 c7 -3 16 -2 19 1 4 3 -2 6 -13 5 -11 0 -14 -3 -6 -6z"/>
<path d="M2238 4333 c7 -3 16 -2 19 1 4 3 -2 6 -13 5 -11 0 -14 -3 -6 -6z"/>
<path d="M3973 4325 c0 -7 6 -11 14 -8 7 3 13 6 13 8 0 2 -6 5 -13 8 -8 3 -14
-1 -14 -8z"/>
<path d="M4558 4333 c7 -3 16 -2 19 1 4 3 -2 6 -13 5 -11 0 -14 -3 -6 -6z"/>
<path d="M4895 4329 c-4 -6 -13 -8 -21 -5 -7 3 -16 0 -20 -6 -5 -7 -2 -8 6 -3
9 6 12 4 8 -6 -4 -10 1 -15 12 -15 11 0 16 5 12 15 -3 8 -1 12 5 8 5 -3 10 0
10 8 0 18 -3 19 -12 4z"/>
<path d="M5196 4331 c-3 -5 1 -11 9 -14 9 -4 12 -1 8 9 -6 16 -10 17 -17 5z"/>
<path d="M4452 4315 c-3 -5 -2 -7 2 -3 5 4 18 3 30 -2 16 -6 23 -5 23 3 0 15
-47 16 -55 2z"/>
<path d="M4533 4315 c0 -7 8 -10 19 -7 10 2 18 6 18 7 0 1 -8 5 -18 7 -11 3
-19 0 -19 -7z"/>
<path d="M5113 4312 c0 -12 5 -22 9 -22 11 0 10 12 -2 30 -7 12 -9 10 -7 -8z"/>
<path d="M2036 4283 c0 -12 4 -25 7 -28 4 -3 5 -2 3 1 -3 3 -1 16 4 28 6 16 5
23 -4 23 -6 0 -11 -11 -10 -24z"/>
<path d="M2115 4301 c-3 -5 -2 -12 3 -15 5 -3 9 1 9 9 0 17 -3 19 -12 6z"/>
<path d="M2197 4297 c4 -6 0 -8 -10 -4 -10 4 -14 2 -11 -7 3 -7 11 -13 19 -13
8 0 13 3 10 5 -3 3 0 10 5 17 7 8 5 12 -5 12 -8 0 -11 -5 -8 -10z"/>
<path d="M2268 4288 c2 -10 6 -18 7 -18 1 0 5 8 7 18 3 11 0 19 -7 19 -7 0
-10 -8 -7 -19z"/>
<path d="M4227 4299 c7 -7 15 -10 18 -7 3 3 -2 9 -12 12 -14 6 -15 5 -6 -5z"/>
<path d="M5068 4292 c3 -10 1 -13 -6 -8 -6 3 -15 -2 -21 -12 -7 -14 -6 -19 4
-19 7 0 11 7 7 15 -3 10 -1 13 6 8 6 -3 15 2 21 12 7 14 6 19 -4 19 -7 0 -11
-7 -7 -15z"/>
<path d="M4468 4293 c7 -3 16 -2 19 1 4 3 -2 6 -13 5 -11 0 -14 -3 -6 -6z"/>
<path d="M4620 4291 c0 -7 -5 -9 -12 -5 -7 5 -8 3 -3 -5 5 -9 10 -10 18 -2 6
6 8 14 4 18 -4 3 -7 1 -7 -6z"/>
<path d="M4773 4285 c0 -7 6 -11 14 -8 7 3 13 6 13 8 0 2 -6 5 -13 8 -8 3 -14
-1 -14 -8z"/>
<path d="M4839 4298 c-5 -18 -6 -38 -1 -34 7 8 12 36 6 36 -2 0 -4 -1 -5 -2z"/>
<path d="M4980 4293 c0 -6 -15 -9 -36 -7 -20 2 -34 1 -31 -3 10 -10 67 -11 73
-1 3 5 3 12 0 15 -3 4 -6 2 -6 -4z"/>
<path d="M1825 4280 c-3 -6 1 -7 9 -4 18 7 21 14 7 14 -6 0 -13 -4 -16 -10z"/>
<path d="M1893 4275 c0 -7 7 -11 15 -7 10 3 13 1 8 -6 -3 -6 2 -15 12 -21 14
-7 19 -6 19 4 0 7 -7 11 -15 7 -10 -3 -13 -1 -8 6 3 6 -2 15 -12 21 -14 7 -19
6 -19 -4z"/>
<path d="M2061 4274 c0 -11 3 -14 6 -6 3 7 2 16 -1 19 -3 4 -6 -2 -5 -13z"/>
<path d="M4707 4279 c7 -7 15 -10 18 -7 3 3 -2 9 -12 12 -14 6 -15 5 -6 -5z"/>
<path d="M5188 4272 c-3 -11 0 -19 7 -19 7 0 10 8 7 19 -2 10 -6 18 -7 18 -1
0 -5 -8 -7 -18z"/>
<path d="M5210 4281 c0 -6 4 -13 10 -16 6 -3 7 1 4 9 -7 18 -14 21 -14 7z"/>
<path d="M4632 4267 c-8 -10 -6 -13 7 -13 11 0 17 6 14 13 -3 7 -6 13 -8 13
-1 0 -7 -6 -13 -13z"/>
<path d="M2236 4258 c3 -5 10 -6 15 -3 13 9 11 12 -6 12 -8 0 -12 -4 -9 -9z"/>
<path d="M3908 4263 c6 -2 18 -2 25 0 6 3 1 5 -13 5 -14 0 -19 -2 -12 -5z"/>
<path d="M4274 4255 c3 -23 12 -26 13 -5 1 11 -2 20 -7 20 -4 0 -7 -7 -6 -15z"/>
<path d="M4801 4248 c9 -16 29 -17 29 -2 0 3 -5 2 -12 -2 -7 -5 -9 -2 -6 8 4
8 0 15 -7 15 -10 0 -11 -5 -4 -19z"/>
<path d="M4909 4264 c5 -3 7 -17 5 -32 -3 -19 -2 -23 5 -13 12 18 7 44 -8 47
-6 1 -7 0 -2 -2z"/>
<path d="M1973 4245 c0 -7 8 -10 19 -7 10 2 18 6 18 7 0 1 -8 5 -18 7 -11 3
-19 0 -19 -7z"/>
<path d="M2094 4249 c3 -15 29 -20 47 -8 10 7 6 8 -13 5 -15 -2 -29 0 -32 5
-2 5 -3 4 -2 -2z"/>
<path d="M4528 4252 c-17 -7 -17 -8 0 -18 15 -10 18 -8 18 7 0 11 0 19 -1 18
0 0 -8 -4 -17 -7z"/>
<path d="M4734 4241 c0 -12 6 -17 18 -13 10 2 18 9 18 15 0 6 -3 7 -7 4 -3 -4
-11 -3 -17 3 -8 6 -12 3 -12 -9z"/>
<path d="M1746 4238 c3 -4 9 -8 15 -8 5 0 9 4 9 8 0 5 -7 9 -15 9 -8 0 -12 -4
-9 -9z"/>
<path d="M2215 4239 c-6 -8 -4 -10 5 -4 10 6 12 4 6 -11 -6 -15 -5 -17 5 -6 9
9 10 15 2 23 -8 8 -13 7 -18 -2z"/>
<path d="M3896 4238 c3 -4 11 -5 19 -1 21 7 19 12 -4 10 -11 0 -18 -5 -15 -9z"/>
<path d="M4576 4234 c-3 -7 2 -10 15 -7 22 6 26 20 4 20 -8 0 -16 -6 -19 -13z"/>
<path d="M4659 4239 c-10 -7 -6 -8 13 -5 15 2 29 0 32 -5 2 -5 3 -4 2 2 -3 15
-29 20 -47 8z"/>
<path d="M4988 4232 c-4 -12 1 -18 13 -18 12 0 15 4 9 12 -6 6 -7 14 -3 17 3
4 2 7 -4 7 -6 0 -13 -8 -15 -18z"/>
<path d="M5134 4239 c-3 -6 -3 -13 0 -16 3 -4 6 -1 6 5 0 6 11 9 27 6 15 -3
25 -3 22 1 -12 11 -49 14 -55 4z"/>
<path d="M5233 4235 c0 -8 6 -16 14 -19 11 -4 11 -1 3 14 -13 24 -17 25 -17 5z"/>
<path d="M1797 4217 c4 -6 0 -8 -8 -5 -10 4 -15 -1 -15 -12 0 -11 5 -16 15
-12 10 4 12 1 6 -8 -5 -9 -4 -11 4 -6 6 4 9 12 5 17 -3 5 -1 16 5 23 8 9 7 13
-4 13 -8 0 -11 -5 -8 -10z"/>
<path d="M1986 4221 c-4 -5 3 -7 14 -4 23 6 26 13 6 13 -8 0 -17 -4 -20 -9z"/>
<path d="M2070 4223 c0 -5 5 -15 10 -23 7 -12 9 -10 7 8 -1 19 -17 33 -17 15z"/>
<path d="M2149 4214 c7 -15 7 -25 -2 -35 -7 -7 -3 -6 9 4 11 9 23 15 26 12 3
-3 11 2 19 12 12 15 12 16 -1 8 -22 -14 -33 -13 -48 5 -11 13 -12 12 -3 -6z"/>
<path d="M1735 4209 c-4 -6 -5 -12 -2 -15 2 -3 7 2 10 11 7 17 1 20 -8 4z"/>
<path d="M4933 4206 c0 -6 10 -11 23 -11 25 0 23 10 -4 17 -10 3 -19 0 -19 -6z"/>
<path d="M1910 4201 c0 -6 4 -13 10 -16 6 -3 7 1 4 9 -7 18 -14 21 -14 7z"/>
<path d="M1950 4206 c0 -2 7 -7 16 -10 8 -3 12 -2 9 4 -6 10 -25 14 -25 6z"/>
<path d="M4406 4198 c3 -5 10 -6 15 -3 13 9 11 12 -6 12 -8 0 -12 -4 -9 -9z"/>
<path d="M4564 4199 c-4 -7 -3 -9 4 -5 5 3 13 0 15 -6 4 -9 6 -10 6 -1 1 17
-16 25 -25 12z"/>
<path d="M4835 4202 c3 -3 0 -10 -5 -17 -7 -8 -5 -12 5 -12 8 0 11 5 8 10 -4
6 0 8 10 4 10 -4 14 -2 11 7 -3 7 -11 13 -19 13 -8 0 -13 -3 -10 -5z"/>
<path d="M5075 4199 c-3 -4 2 -6 10 -5 21 3 28 13 10 13 -9 0 -18 -4 -20 -8z"/>
<path d="M5227 4199 c7 -7 15 -10 18 -7 3 3 -2 9 -12 12 -14 6 -15 5 -6 -5z"/>
<path d="M1869 4184 c5 -3 7 -17 5 -32 -3 -19 -2 -23 5 -13 12 18 7 44 -8 47
-6 1 -7 0 -2 -2z"/>
<path d="M1949 4184 c5 -3 7 -17 5 -32 -3 -19 -2 -23 5 -13 12 18 7 44 -8 47
-6 1 -7 0 -2 -2z"/>
<path d="M5027 4173 c5 -12 3 -14 -8 -8 -8 5 -11 4 -6 0 4 -5 13 -10 21 -11
16 -2 17 24 0 30 -9 3 -11 -1 -7 -11z"/>
<path d="M5205 4182 c-5 -4 -11 -14 -13 -22 -2 -8 0 -12 4 -8 4 4 12 3 19 -2
8 -7 12 -5 12 5 0 8 -5 11 -10 8 -6 -4 -8 0 -4 10 7 19 6 20 -8 9z"/>
<path d="M2048 4173 c-22 -5 -24 -20 -3 -20 8 0 16 6 19 14 3 7 4 12 3 12 -1
-1 -10 -3 -19 -6z"/>
<path d="M4704 4158 c10 -16 23 -28 30 -27 7 0 6 3 -2 6 -10 4 -10 8 0 21 11
13 11 14 0 8 -7 -4 -20 -2 -29 6 -14 11 -13 8 1 -14z"/>
<path d="M4875 4169 c-4 -6 -5 -12 -2 -15 2 -3 7 2 10 11 7 17 1 20 -8 4z"/>
<path d="M1750 4158 c0 -4 4 -8 9 -8 6 0 12 4 15 8 3 5 -1 9 -9 9 -8 0 -15 -4
-15 -9z"/>
<path d="M2096 4154 c-3 -7 2 -10 15 -7 22 6 26 20 4 20 -8 0 -16 -6 -19 -13z"/>
<path d="M4896 4154 c-3 -7 2 -10 15 -7 22 6 26 20 4 20 -8 0 -16 -6 -19 -13z"/>
<path d="M5110 4162 c0 -5 7 -9 15 -9 8 0 12 4 9 9 -3 4 -9 8 -15 8 -5 0 -9
-4 -9 -8z"/>
<path d="M1719 4148 c-11 -38 -1 -49 21 -23 11 13 10 14 -5 9 -13 -5 -16 -4
-11 4 4 7 5 12 2 12 -3 0 -6 -1 -7 -2z"/>
<path d="M1997 4137 c4 -7 -1 -8 -13 -3 -15 6 -17 5 -6 -5 10 -11 15 -10 28 2
13 14 13 16 0 16 -8 0 -12 -5 -9 -10z"/>
<path d="M5074 4131 c13 -12 18 -13 28 -2 11 10 9 11 -6 5 -12 -5 -17 -4 -13
3 3 5 -1 10 -9 10 -13 0 -13 -2 0 -16z"/>
<path d="M5155 4141 c6 -11 4 -13 -8 -8 -10 4 -14 2 -11 -7 6 -17 32 -16 30 0
-1 8 -6 17 -11 21 -4 5 -5 2 0 -6z"/>
<path d="M1893 4124 c0 -7 5 -10 10 -7 6 4 8 0 5 -9 -4 -8 -1 -15 6 -15 18 0
15 23 -4 35 -12 7 -17 7 -17 -4z"/>
<path d="M4035 4129 c-4 -6 -5 -12 -2 -15 2 -3 7 2 10 11 7 17 1 20 -8 4z"/>
<path d="M1793 4112 c-9 -15 -8 -19 3 -19 7 0 10 5 7 10 -4 7 1 8 12 3 15 -5
16 -4 5 9 -15 18 -13 19 -27 -3z"/>
<path d="M3970 4121 c0 -6 4 -13 10 -16 6 -3 7 1 4 9 -7 18 -14 21 -14 7z"/>
<path d="M4006 4117 c3 -10 9 -15 12 -12 3 3 0 11 -7 18 -10 9 -11 8 -5 -6z"/>
<path d="M4770 4126 c0 -2 7 -7 16 -10 8 -3 12 -2 9 4 -6 10 -25 14 -25 6z"/>
<path d="M4834 4122 c4 -3 14 -7 22 -8 9 -1 13 0 10 4 -4 3 -14 7 -22 8 -9 1
-13 0 -10 -4z"/>
<path d="M4986 4119 c3 -5 9 -7 14 -4 4 3 11 0 13 -5 3 -6 4 -5 3 1 -1 7 -10
13 -19 15 -9 1 -15 -2 -11 -7z"/>
<path d="M5253 4114 c0 -7 7 -10 15 -6 9 3 13 1 9 -5 -3 -5 0 -10 7 -10 11 0
11 5 4 17 -12 19 -35 22 -35 4z"/>
<path d="M3947 4107 c-3 -8 1 -14 8 -14 7 0 11 6 8 14 -3 7 -6 13 -8 13 -2 0
-5 -6 -8 -13z"/>
<path d="M4917 4107 c-3 -8 1 -14 8 -14 7 0 11 6 8 14 -3 7 -6 13 -8 13 -2 0
-5 -6 -8 -13z"/>
<path d="M5033 4105 c0 -8 4 -12 9 -9 5 3 6 10 3 15 -9 13 -12 11 -12 -6z"/>
<path d="M1993 4095 c0 -8 4 -12 9 -9 4 3 8 9 8 15 0 5 -4 9 -8 9 -5 0 -9 -7
-9 -15z"/>
<path d="M4190 4100 c0 -5 5 -10 11 -10 5 0 7 5 4 10 -3 6 -8 10 -11 10 -2 0
-4 -4 -4 -10z"/>
<path d="M4755 4102 c3 -3 0 -11 -7 -19 -6 -7 -8 -16 -4 -20 3 -3 6 -1 6 6 0
7 5 9 13 5 6 -4 9 -4 5 1 -4 4 -3 13 2 20 7 8 5 12 -5 12 -8 0 -13 -3 -10 -5z"/>
<path d="M5234 4088 c2 -15 0 -29 -5 -32 -5 -2 -4 -3 2 -2 15 3 20 29 8 47 -7
10 -8 6 -5 -13z"/>
<path d="M1835 4089 c-4 -6 -5 -12 -2 -15 2 -3 7 2 10 11 7 17 1 20 -8 4z"/>
<path d="M4086 4091 c-19 -7 -19 -8 0 -13 13 -3 21 0 21 8 0 8 -1 14 -1 13 -1
0 -10 -4 -20 -8z"/>
<path d="M4133 4086 c0 -9 7 -12 16 -8 13 5 14 3 4 -9 -10 -13 -10 -16 1 -16
18 0 14 27 -6 38 -10 5 -15 4 -15 -5z"/>
<path d="M5088 4093 c-10 -2 -18 -9 -18 -15 0 -6 3 -8 7 -5 3 4 11 3 17 -3 8
-6 12 -3 12 11 0 10 0 18 -1 18 0 -1 -8 -3 -17 -6z"/>
<path d="M1733 4077 c-4 -6 -1 -7 7 -2 10 6 12 4 7 -8 -4 -10 -2 -14 7 -11 7
3 13 11 13 18 0 15 -25 17 -34 3z"/>
<path d="M1854 4079 c-3 -6 -3 -13 0 -16 3 -4 6 -1 6 5 0 6 11 9 27 6 15 -3
25 -3 22 1 -12 11 -49 14 -55 4z"/>
<path d="M2107 4071 c-3 -13 0 -18 7 -15 7 3 13 11 13 19 0 22 -14 18 -20 -4z"/>
<path d="M3993 4072 c0 -12 5 -22 9 -22 11 0 10 12 -2 30 -7 12 -9 10 -7 -8z"/>
<path d="M4876 4073 c-6 -14 -5 -15 5 -6 7 7 10 15 7 18 -3 3 -9 -2 -12 -12z"/>
<path d="M3951 4048 c6 -10 14 -16 19 -13 4 3 11 0 13 -5 3 -6 4 -5 3 2 -2 7
-9 12 -16 10 -7 -2 -10 3 -7 11 3 7 -1 14 -8 14 -10 0 -11 -5 -4 -19z"/>
<path d="M4068 4063 c7 -3 16 -2 19 1 4 3 -2 6 -13 5 -11 0 -14 -3 -6 -6z"/>
<path d="M4798 4052 c3 -10 1 -13 -6 -8 -6 3 -14 1 -18 -5 -5 -8 -3 -9 6 -4 9
6 12 4 8 -7 -4 -8 -1 -15 7 -15 8 0 11 7 7 15 -3 10 -1 13 6 8 6 -3 14 -1 18
5 5 8 3 9 -6 4 -9 -6 -12 -4 -8 7 4 8 1 15 -7 15 -8 0 -11 -7 -7 -15z"/>
<path d="M4918 4048 c2 -10 6 -18 7 -18 1 0 5 8 7 18 3 11 0 19 -7 19 -7 0
-10 -8 -7 -19z"/>
<path d="M5157 4057 c4 -6 0 -8 -8 -5 -10 4 -15 -1 -15 -12 0 -11 5 -16 15
-12 10 4 12 1 6 -8 -5 -9 -4 -11 4 -6 6 4 9 12 5 17 -3 5 -1 16 5 23 8 9 7 13
-4 13 -8 0 -11 -5 -8 -10z"/>
<path d="M4897 4039 c4 -13 8 -18 11 -10 2 7 -1 18 -6 23 -8 8 -9 4 -5 -13z"/>
<path d="M1793 4028 c-1 -10 3 -18 9 -18 6 0 8 3 5 7 -4 3 -2 11 3 18 7 8 6
12 -3 12 -7 0 -14 -9 -14 -19z"/>
<path d="M4090 4038 c0 -11 12 -10 30 2 12 7 10 9 -8 7 -12 0 -22 -5 -22 -9z"/>
<path d="M4712 4031 c7 -9 13 -18 15 -20 1 -2 1 5 0 16 0 11 -7 20 -14 20 -10
0 -10 -4 -1 -16z"/>
<path d="M5000 4040 c-12 -7 -10 -9 8 -7 12 0 22 5 22 9 0 11 -12 10 -30 -2z"/>
<path d="M5270 4039 c0 -5 5 -7 10 -4 6 3 10 8 10 11 0 2 -4 4 -10 4 -5 0 -10
-5 -10 -11z"/>
<path d="M4150 4030 c-9 -6 -10 -10 -3 -10 6 0 15 5 18 10 8 12 4 12 -15 0z"/>
<path d="M4360 4031 c0 -6 4 -13 10 -16 6 -3 7 1 4 9 -7 18 -14 21 -14 7z"/>
<path d="M5037 4027 c-3 -8 1 -14 8 -14 7 0 11 6 8 14 -3 7 -6 13 -8 13 -2 0
-5 -6 -8 -13z"/>
<path d="M5229 4024 c5 -3 7 -17 5 -32 -3 -19 -2 -23 5 -13 12 18 7 44 -8 47
-6 1 -7 0 -2 -2z"/>
<path d="M4014 4001 c0 -12 6 -17 18 -13 10 2 18 9 18 15 0 6 -3 7 -7 4 -3 -4
-11 -3 -17 3 -8 6 -12 3 -12 -9z"/>
<path d="M4690 4011 c-8 -6 -17 -8 -21 -5 -4 2 -10 0 -13 -5 -4 -5 2 -8 11 -6
10 1 23 -1 28 -6 7 -5 11 0 11 12 0 10 0 19 -1 19 0 0 -7 -4 -15 -9z"/>
<path d="M4524 3999 c-4 -7 -3 -9 4 -5 5 3 13 0 15 -6 4 -9 6 -10 6 -1 1 17
-16 25 -25 12z"/>
<path d="M4833 4003 c4 -3 3 -11 -3 -17 -6 -8 -3 -12 9 -12 12 0 17 6 13 18
-2 10 -9 18 -15 18 -6 0 -7 -3 -4 -7z"/>
<path d="M4932 3995 c-3 -5 -2 -7 2 -3 5 4 18 3 30 -2 16 -6 23 -5 23 3 0 15
-47 16 -55 2z"/>
<path d="M1759 3993 c-1 -5 -1 -12 0 -17 1 -5 -5 -6 -13 -3 -10 4 -13 1 -10
-7 8 -22 30 -14 30 11 0 22 -5 32 -7 16z"/>
<path d="M5314 3992 c3 -5 0 -13 -6 -15 -9 -4 -10 -6 -1 -6 17 -1 25 16 12 25
-7 4 -9 3 -5 -4z"/>
<path d="M3993 3971 c0 -11 5 -18 9 -15 4 3 5 11 1 19 -7 21 -12 19 -10 -4z"/>
<path d="M4075 3981 c-3 -5 -2 -12 3 -15 5 -3 9 1 9 9 0 17 -3 19 -12 6z"/>
<path d="M4270 3972 c9 -19 30 -23 30 -5 0 4 -3 3 -7 0 -3 -4 -12 1 -20 11
-13 15 -13 15 -3 -6z"/>
<path d="M4357 3973 c3 -7 6 -13 8 -13 2 0 5 6 8 13 3 8 -1 14 -8 14 -7 0 -11
-6 -8 -14z"/>
<path d="M4434 3975 c3 -23 12 -26 13 -5 1 11 -2 20 -7 20 -4 0 -7 -7 -6 -15z"/>
<path d="M4627 3975 c3 -8 9 -12 14 -9 12 7 11 11 -5 17 -10 4 -13 1 -9 -8z"/>
<path d="M5276 3978 c5 -7 2 -9 -7 -6 -10 4 -15 -1 -15 -13 0 -17 2 -17 18 -2
15 14 16 33 2 33 -3 0 -2 -5 2 -12z"/>
<path d="M4101 3964 c0 -11 3 -14 6 -6 3 7 2 16 -1 19 -3 4 -6 -2 -5 -13z"/>
<path d="M4172 3971 c-11 -7 -11 -9 0 -14 9 -3 15 1 15 9 0 8 -1 14 -1 14 -1
0 -7 -4 -14 -9z"/>
<path d="M4731 3973 c-1 -17 16 -25 25 -12 4 7 3 9 -4 5 -5 -3 -13 0 -15 6 -4
9 -6 10 -6 1z"/>
<path d="M4948 3973 c7 -3 16 -2 19 1 4 3 -2 6 -13 5 -11 0 -14 -3 -6 -6z"/>
<path d="M4118 3952 c-3 -11 0 -19 7 -19 7 0 10 8 7 19 -2 10 -6 18 -7 18 -1
0 -5 -8 -7 -18z"/>
<path d="M4601 3956 c-9 -11 -9 -16 0 -22 8 -5 9 -3 4 6 -6 10 -4 12 8 7 11
-4 14 -2 10 9 -6 17 -8 17 -22 0z"/>
<path d="M4656 3962 c-3 -5 1 -9 9 -9 8 0 12 4 9 9 -3 4 -7 8 -9 8 -2 0 -6 -4
-9 -8z"/>
<path d="M4796 3953 c-6 -14 -5 -15 5 -6 7 7 10 15 7 18 -3 3 -9 -2 -12 -12z"/>
<path d="M4890 3962 c0 -4 10 -9 22 -9 18 -2 20 0 8 7 -18 12 -30 13 -30 2z"/>
<path d="M5011 3954 c0 -11 3 -14 6 -6 3 7 2 16 -1 19 -3 4 -6 -2 -5 -13z"/>
<path d="M5107 3959 c7 -9 10 -19 6 -22 -3 -4 -1 -7 5 -7 17 0 15 16 -5 31
-16 12 -17 12 -6 -2z"/>
<path d="M4236 3947 c3 -10 9 -15 12 -12 3 3 0 11 -7 18 -10 9 -11 8 -5 -6z"/>
<path d="M4474 3936 c1 -14 4 -28 7 -31 3 -3 5 6 5 19 -1 14 -4 28 -7 31 -3 3
-5 -6 -5 -19z"/>
<path d="M4874 3936 c1 -8 5 -18 8 -22 4 -3 5 1 4 10 -1 8 -5 18 -8 22 -4 3
-5 -1 -4 -10z"/>
<path d="M4947 3936 c4 -12 3 -17 -4 -13 -5 3 -10 0 -10 -8 0 -9 4 -11 11 -6
6 5 19 7 29 6 9 -2 14 1 11 7 -3 5 -8 7 -12 4 -3 -3 -11 2 -19 12 -12 16 -13
16 -6 -2z"/>
<path d="M5276 3941 c-3 -5 1 -14 8 -20 10 -9 16 -9 21 -1 4 6 3 10 -2 9 -20
-3 -27 2 -13 11 9 6 10 10 3 10 -6 0 -14 -4 -17 -9z"/>
<path d="M3897 3925 c-4 -8 -3 -16 1 -19 4 -3 9 4 9 15 2 23 -3 25 -10 4z"/>
<path d="M4060 3932 c0 -6 -11 -9 -27 -6 -15 3 -25 3 -22 -1 12 -11 49 -14 55
-4 3 6 3 13 0 16 -3 4 -6 1 -6 -5z"/>
<path d="M4215 3930 c-4 -6 -11 -8 -16 -5 -5 4 -9 2 -9 -3 0 -5 8 -12 18 -14
12 -4 18 1 18 13 0 22 -2 23 -11 9z"/>
<path d="M4368 3933 c-22 -5 -24 -20 -3 -20 8 0 16 6 19 14 3 7 4 12 3 12 -1
-1 -10 -3 -19 -6z"/>
<path d="M4533 3925 c0 -8 5 -11 10 -8 6 4 8 0 4 -10 -4 -10 -2 -14 7 -11 7 3
13 11 13 19 0 8 -3 13 -5 10 -3 -3 -10 0 -17 5 -8 7 -12 5 -12 -5z"/>
<path d="M4741 3924 c0 -11 3 -14 6 -6 3 7 2 16 -1 19 -3 4 -6 -2 -5 -13z"/>
<path d="M4773 3925 c0 -7 6 -11 14 -8 7 3 13 6 13 8 0 2 -6 5 -13 8 -8 3 -14
-1 -14 -8z"/>
<path d="M1708 3912 c-4 -12 1 -18 13 -18 12 0 15 4 9 12 -6 6 -7 14 -3 17 3
4 2 7 -4 7 -6 0 -13 -8 -15 -18z"/>
<path d="M4076 3913 c-6 -14 -5 -15 5 -6 7 7 10 15 7 18 -3 3 -9 -2 -12 -12z"/>
<path d="M4626 3920 c5 -8 9 -18 9 -22 0 -3 3 -9 7 -13 3 -4 5 0 4 9 -1 9 -8
22 -16 29 -10 10 -11 9 -4 -3z"/>
<path d="M5036 3918 c3 -5 10 -6 15 -3 13 9 11 12 -6 12 -8 0 -12 -4 -9 -9z"/>
<path d="M5227 3911 c-3 -13 0 -18 7 -15 7 3 13 11 13 19 0 22 -14 18 -20 -4z"/>
<path d="M3957 3897 c4 -6 0 -8 -10 -4 -10 4 -14 2 -11 -7 3 -7 11 -13 19 -13
8 0 13 3 10 5 -3 3 0 10 5 17 7 8 5 12 -5 12 -8 0 -11 -5 -8 -10z"/>
<path d="M4004 3899 c-3 -6 0 -17 8 -25 13 -13 15 -13 15 0 0 8 -5 12 -10 9
-6 -4 -8 0 -4 10 7 19 2 23 -9 6z"/>
<path d="M4118 3888 c2 -10 6 -18 7 -18 1 0 5 8 7 18 3 11 0 19 -7 19 -7 0
-10 -8 -7 -19z"/>
<path d="M4270 3905 c5 -22 -1 -29 -11 -15 -8 12 -10 12 -7 1 5 -18 37 -23 34
-5 -1 7 -6 17 -10 21 -4 4 -7 4 -6 -2z"/>
<path d="M4435 3901 c6 -11 4 -13 -8 -8 -10 4 -14 2 -11 -7 6 -17 32 -16 30 0
-1 8 -6 17 -11 21 -4 5 -5 2 0 -6z"/>
<path d="M4706 3898 c3 -5 10 -6 15 -3 13 9 11 12 -6 12 -8 0 -12 -4 -9 -9z"/>
<path d="M5158 3888 c2 -10 6 -18 7 -18 1 0 5 8 7 18 3 11 0 19 -7 19 -7 0
-10 -8 -7 -19z"/>
<path d="M4097 3879 c4 -13 8 -18 11 -10 2 7 -1 18 -6 23 -8 8 -9 4 -5 -13z"/>
<path d="M4810 3891 c-8 -6 -19 -7 -25 -3 -5 3 -4 -2 4 -11 15 -19 26 -23 15
-5 -5 7 -2 9 8 6 9 -4 15 0 15 8 0 8 -1 14 -1 14 -1 0 -8 -4 -16 -9z"/>
<path d="M4958 3893 c7 -3 16 -2 19 1 4 3 -2 6 -13 5 -11 0 -14 -3 -6 -6z"/>
<path d="M5330 3886 c0 -8 4 -17 9 -20 5 -4 7 3 4 14 -6 23 -13 26 -13 6z"/>
<path d="M4327 3879 c-9 -6 -14 -15 -11 -21 5 -7 2 -9 -8 -6 -8 4 -15 0 -15
-7 0 -10 5 -11 19 -4 10 6 15 15 12 21 -5 7 -2 9 8 6 9 -4 15 0 15 8 0 8 -1
14 -1 14 -1 0 -9 -5 -19 -11z"/>
<path d="M4510 3886 c0 -2 7 -7 16 -10 8 -3 12 -2 9 4 -6 10 -25 14 -25 6z"/>
<path d="M4686 3882 c-3 -5 1 -9 9 -9 8 0 12 4 9 9 -3 4 -7 8 -9 8 -2 0 -6 -4
-9 -8z"/>
<path d="M4896 3874 c-3 -9 1 -11 11 -7 12 5 14 3 8 -8 -5 -8 -4 -11 0 -6 5 4
10 13 11 21 2 16 -24 17 -30 0z"/>
<path d="M5010 3882 c0 -5 7 -9 15 -9 8 0 12 4 9 9 -3 4 -9 8 -15 8 -5 0 -9
-4 -9 -8z"/>
<path d="M5308 3872 c-3 -11 0 -19 7 -19 7 0 10 8 7 19 -2 10 -6 18 -7 18 -1
0 -5 -8 -7 -18z"/>
<path d="M1753 3855 c0 -8 4 -12 9 -9 5 3 6 10 3 15 -9 13 -12 11 -12 -6z"/>
<path d="M3894 3858 c-4 -7 -4 -10 1 -6 4 4 15 2 24 -5 14 -11 14 -10 2 6 -16
20 -18 21 -27 5z"/>
<path d="M4509 3864 c5 -3 7 -17 5 -32 -3 -19 -2 -23 5 -13 12 18 7 44 -8 47
-6 1 -7 0 -2 -2z"/>
<path d="M4770 3861 c0 -6 4 -13 10 -16 6 -3 7 1 4 9 -7 18 -14 21 -14 7z"/>
<path d="M4987 3849 c6 -22 20 -26 20 -4 0 8 -6 16 -13 19 -7 3 -10 -2 -7 -15z"/>
<path d="M4244 3845 c-10 -8 -14 -15 -9 -15 6 0 3 -5 -5 -11 -13 -9 -13 -10 0
-6 8 2 14 10 12 17 -2 7 3 10 11 7 8 -3 14 1 14 9 0 17 1 17 -23 -1z"/>
<path d="M4453 3846 c0 -8 5 -12 10 -9 7 4 8 -1 3 -13 -6 -15 -5 -17 5 -6 11
10 10 15 -2 28 -14 13 -16 13 -16 0z"/>
<path d="M4620 3852 c0 -6 -11 -9 -27 -6 -15 3 -25 3 -22 -1 12 -11 49 -14 55
-4 3 6 3 13 0 16 -3 4 -6 1 -6 -5z"/>
<path d="M4855 3850 c-4 -6 -11 -8 -16 -5 -5 4 -9 2 -9 -3 0 -5 8 -12 18 -14
12 -4 18 1 18 13 0 22 -2 23 -11 9z"/>
<path d="M3975 3839 c-6 -8 -4 -10 5 -4 10 6 12 4 6 -11 -6 -15 -5 -17 5 -6 9
9 10 15 2 23 -8 8 -13 7 -18 -2z"/>
<path d="M4033 3835 c0 -8 6 -16 13 -19 7 -3 10 2 7 15 -6 22 -20 26 -20 4z"/>
<path d="M4136 3842 c-3 -5 1 -9 9 -9 8 0 12 4 9 9 -3 4 -7 8 -9 8 -2 0 -6 -4
-9 -8z"/>
<path d="M4399 3848 c-5 -18 -6 -38 -1 -34 7 8 12 36 6 36 -2 0 -4 -1 -5 -2z"/>
<path d="M1679 3828 c-6 -20 -5 -37 1 -33 5 3 10 0 12 -7 3 -7 7 -3 10 9 4 17
2 20 -10 16 -10 -4 -13 -2 -8 5 4 7 5 12 2 12 -3 0 -6 -1 -7 -2z"/>
<path d="M1916 3822 c-2 -4 0 -14 6 -22 8 -12 9 -12 5 2 -3 9 -1 19 6 22 9 3
9 5 0 5 -6 1 -14 -3 -17 -7z"/>
<path d="M4561 3808 c9 -16 29 -17 29 -2 0 3 -5 2 -12 -2 -7 -5 -9 -2 -6 8 4
8 0 15 -7 15 -10 0 -11 -5 -4 -19z"/>
<path d="M4675 3820 c6 -10 4 -12 -11 -6 -15 6 -17 5 -6 -5 9 -9 15 -10 23 -2
8 8 7 13 -2 18 -8 6 -10 4 -4 -5z"/>
<path d="M5038 3808 c2 -10 6 -18 7 -18 1 0 5 8 7 18 3 11 0 19 -7 19 -7 0
-10 -8 -7 -19z"/>
<path d="M5311 3808 c11 -20 29 -24 29 -7 0 5 -5 7 -12 3 -7 -5 -9 -2 -6 8 4
8 0 15 -7 15 -10 0 -11 -5 -4 -19z"/>
<path d="M3957 3813 c-10 -9 -9 -23 1 -23 5 0 9 7 9 15 0 17 -1 18 -10 8z"/>
<path d="M4870 3805 c-7 -9 -10 -18 -6 -22 3 -3 6 -1 6 6 0 7 4 10 8 7 5 -3 9
1 9 9 0 19 -2 19 -17 0z"/>
<path d="M4090 3798 c0 -6 3 -8 7 -5 3 4 13 1 22 -6 14 -11 14 -10 2 6 -15 20
-31 22 -31 5z"/>
<path d="M4237 3798 c-7 -5 0 -6 17 -4 16 3 31 7 33 10 8 8 -37 2 -50 -6z"/>
<path d="M4397 3798 c-7 -5 0 -6 17 -4 16 3 31 7 33 10 8 8 -37 2 -50 -6z"/>
<path d="M4696 3802 c-3 -5 1 -9 9 -9 8 0 12 4 9 9 -3 4 -7 8 -9 8 -2 0 -6 -4
-9 -8z"/>
<path d="M4952 3805 c4 -5 3 -13 -2 -20 -7 -8 -5 -12 5 -12 8 0 11 5 8 10 -4
6 0 8 10 4 25 -9 21 0 -5 14 -13 6 -20 8 -16 4z"/>
<path d="M4591 3787 c-8 -10 -7 -14 4 -14 8 0 11 5 8 10 -4 6 1 8 11 4 10 -4
15 -3 11 3 -8 14 -20 12 -34 -3z"/>
<path d="M4835 3791 c-3 -5 -2 -12 3 -15 5 -3 9 1 9 9 0 17 -3 19 -12 6z"/>
<path d="M3986 3776 c5 -12 4 -17 -3 -13 -5 3 -10 -1 -10 -9 0 -13 2 -13 16 0
12 13 13 18 2 28 -10 11 -11 9 -5 -6z"/>
<path d="M4039 3788 c-6 -20 -5 -38 2 -49 7 -10 8 -6 5 13 -3 15 1 29 7 32 9
3 9 5 0 5 -7 1 -13 0 -14 -1z"/>
<path d="M4148 3772 c4 -11 1 -13 -8 -7 -9 5 -11 4 -6 -3 10 -16 14 -15 25 6
7 14 6 19 -4 19 -7 0 -11 -7 -7 -15z"/>
<path d="M4187 3769 c6 -22 20 -26 20 -4 0 8 -6 16 -13 19 -7 3 -10 -2 -7 -15z"/>
<path d="M4279 3788 c-6 -20 -5 -38 2 -49 7 -10 8 -6 5 13 -3 15 1 29 7 32 9
3 9 5 0 5 -7 1 -13 0 -14 -1z"/>
<path d="M4445 3782 c-13 -9 -17 -32 -6 -32 5 0 11 9 14 20 6 22 6 22 -8 12z"/>
<path d="M4636 3775 c-9 -26 -7 -32 5 -12 6 10 9 21 6 23 -2 3 -7 -2 -11 -11z"/>
<path d="M4999 3780 c-4 -34 -3 -44 9 -46 7 -1 8 0 3 2 -5 3 -7 16 -5 30 2 13
2 24 -1 24 -3 0 -6 -4 -6 -10z"/>
<path d="M1775 3770 c-4 -6 -11 -8 -16 -5 -5 3 -6 -2 -2 -11 5 -13 3 -15 -8
-9 -8 5 -11 4 -6 0 14 -16 36 -14 30 3 -4 9 -2 13 4 9 5 -3 10 0 10 8 0 18 -3
19 -12 5z"/>
<path d="M1868 3773 c7 -3 16 -2 19 1 4 3 -2 6 -13 5 -11 0 -14 -3 -6 -6z"/>
<path d="M1934 3759 c0 -13 3 -15 13 -7 7 6 13 12 13 13 0 2 -6 5 -13 8 -7 3
-13 -3 -13 -14z"/>
<path d="M4708 3773 c7 -3 16 -2 19 1 4 3 -2 6 -13 5 -11 0 -14 -3 -6 -6z"/>
<path d="M1716 3758 c3 -5 10 -6 15 -3 13 9 11 12 -6 12 -8 0 -12 -4 -9 -9z"/>
<path d="M4533 3757 c-4 -6 -1 -7 7 -2 10 6 12 4 7 -8 -4 -10 -2 -14 7 -11 7
3 13 11 13 18 0 15 -25 17 -34 3z"/>
<path d="M4894 3759 c-3 -6 -3 -13 0 -16 3 -4 6 -1 6 5 0 6 11 9 27 6 15 -3
25 -3 22 1 -12 11 -49 14 -55 4z"/>
<path d="M5105 3760 c-3 -6 1 -7 9 -4 18 7 21 14 7 14 -6 0 -13 -4 -16 -10z"/>
<path d="M1676 3747 c3 -10 9 -15 12 -12 3 3 0 11 -7 18 -10 9 -11 8 -5 -6z"/>
<path d="M5200 3751 c0 -6 4 -13 10 -16 6 -3 7 1 4 9 -7 18 -14 21 -14 7z"/>
<path d="M1871 3728 c6 -10 14 -16 19 -13 4 3 11 0 13 -5 3 -6 4 -5 3 2 -2 7
-9 12 -16 10 -7 -2 -10 3 -7 11 3 7 -1 14 -8 14 -10 0 -11 -5 -4 -19z"/>
<path d="M3895 3740 c3 -5 8 -10 11 -10 2 0 4 5 4 10 0 6 -5 10 -11 10 -5 0
-7 -4 -4 -10z"/>
<path d="M3995 3741 c-3 -6 3 -14 13 -20 14 -7 19 -6 19 4 0 7 -7 11 -15 7
-10 -3 -13 -1 -8 6 4 7 5 12 2 12 -3 0 -7 -4 -11 -9z"/>
<path d="M5079 3743 c-1 -5 -1 -12 0 -17 1 -4 -3 -14 -8 -20 -8 -9 -7 -13 4
-13 8 0 11 5 8 10 -4 6 0 8 8 5 10 -4 15 1 15 12 0 11 -5 16 -15 12 -9 -3 -12
-1 -7 6 4 7 5 12 2 12 -3 0 -7 -3 -7 -7z"/>
<path d="M4250 3730 c-9 -6 -10 -10 -3 -10 6 0 15 5 18 10 8 12 4 12 -15 0z"/>
<path d="M4373 3725 c0 -7 6 -11 14 -8 7 3 13 6 13 8 0 2 -6 5 -13 8 -8 3 -14
-1 -14 -8z"/>
<path d="M4655 3728 c1 -7 8 -12 15 -10 7 2 10 -3 7 -11 -3 -7 1 -14 8 -14 10
0 11 5 4 19 -6 10 -14 16 -19 13 -4 -3 -11 0 -13 5 -3 6 -4 5 -2 -2z"/>
<path d="M5173 3728 c-20 -26 -22 -35 -9 -35 8 0 12 7 8 15 -3 9 -1 13 5 9 5
-3 10 0 10 8 0 18 -2 18 -14 3z"/>
<path d="M1733 3715 c0 -7 8 -10 19 -7 10 2 18 6 18 7 0 1 -8 5 -18 7 -11 3
-19 0 -19 -7z"/>
<path d="M1785 3720 c-3 -6 1 -7 9 -4 18 7 21 14 7 14 -6 0 -13 -4 -16 -10z"/>
<path d="M3936 3714 c-3 -9 1 -11 11 -7 12 5 14 3 8 -8 -5 -8 -4 -11 0 -6 5 4
10 13 11 21 2 16 -24 17 -30 0z"/>
<path d="M4096 3714 c-3 -9 1 -11 11 -7 10 4 14 2 10 -4 -3 -5 0 -10 8 -10 10
0 12 4 5 12 -5 7 -8 14 -5 17 3 2 -2 5 -10 5 -8 0 -16 -6 -19 -13z"/>
<path d="M4480 3720 c-9 -6 -10 -10 -3 -10 6 0 15 5 18 10 8 12 4 12 -15 0z"/>
<path d="M4594 3722 c4 -3 14 -7 22 -8 9 -1 13 0 10 4 -4 3 -14 7 -22 8 -9 1
-13 0 -10 -4z"/>
<path d="M4955 3720 c-3 -5 -1 -10 4 -10 6 0 11 5 11 10 0 6 -2 10 -4 10 -3 0
-8 -4 -11 -10z"/>
<path d="M5240 3720 c18 -12 30 -13 30 -2 0 4 -10 9 -22 9 -18 2 -20 0 -8 -7z"/>
<path d="M1795 3701 c-3 -5 0 -13 6 -17 7 -4 9 -3 5 4 -3 5 0 13 6 15 9 4 10
6 1 6 -6 1 -14 -3 -18 -8z"/>
<path d="M4230 3701 c0 -5 8 -15 18 -22 15 -12 16 -12 5 2 -7 9 -10 19 -6 22
3 4 1 7 -5 7 -7 0 -12 -4 -12 -9z"/>
<path d="M4393 3688 c-2 -18 0 -20 7 -8 12 18 13 30 2 30 -4 0 -9 -10 -9 -22z"/>
<path d="M4508 3688 c2 -10 9 -18 15 -18 6 0 7 3 4 7 -4 3 -3 11 3 17 6 8 3
12 -9 12 -12 0 -17 -6 -13 -18z"/>
<path d="M4719 3708 c-10 -33 6 -46 28 -24 4 4 4 7 -2 6 -21 -5 -29 1 -15 10
10 6 11 10 3 10 -7 0 -13 -1 -14 -2z"/>
<path d="M4866 3698 c3 -4 13 -12 23 -17 13 -7 18 -6 18 4 0 7 -7 11 -15 7 -9
-3 -13 -1 -9 5 3 5 0 10 -8 10 -8 0 -12 -4 -9 -9z"/>
<path d="M5199 3708 c-10 -33 6 -46 28 -24 4 4 4 7 -2 6 -21 -5 -29 1 -15 10
10 6 11 10 3 10 -7 0 -13 -1 -14 -2z"/>
<path d="M1996 3683 c-6 -14 -5 -15 5 -6 7 7 10 15 7 18 -3 3 -9 -2 -12 -12z"/>
<path d="M3897 3685 c-4 -8 -3 -16 1 -19 4 -3 9 4 9 15 2 23 -3 25 -10 4z"/>
<path d="M4076 3687 c3 -10 9 -15 12 -12 3 3 0 11 -7 18 -10 9 -11 8 -5 -6z"/>
<path d="M4159 3698 c-6 -21 -5 -37 2 -32 5 3 7 9 4 14 -3 4 1 11 7 13 10 4
10 6 1 6 -7 1 -13 0 -14 -1z"/>
<path d="M1916 3675 c-9 -26 -7 -32 5 -12 6 10 9 21 6 23 -2 3 -7 -2 -11 -11z"/>
<path d="M4019 3679 c-10 -7 -6 -8 13 -5 15 2 29 0 32 -5 2 -5 3 -4 2 2 -3 15
-29 20 -47 8z"/>
<path d="M4636 3673 c-6 -14 -5 -15 5 -6 7 7 10 15 7 18 -3 3 -9 -2 -12 -12z"/>
<path d="M5110 3680 c0 -5 5 -10 10 -10 6 0 10 5 10 10 0 6 -4 10 -10 10 -5 0
-10 -4 -10 -10z"/>
<path d="M5239 3678 c-4 -12 -5 -57 0 -53 6 6 10 55 4 55 -1 0 -3 -1 -4 -2z"/>
<path d="M1826 3658 c3 -4 11 -5 19 -1 21 7 19 12 -4 10 -11 0 -18 -5 -15 -9z"/>
<path d="M1958 3648 c2 -10 6 -18 7 -18 1 0 5 8 7 18 3 11 0 19 -7 19 -7 0
-10 -8 -7 -19z"/>
<path d="M2010 3660 c0 -5 5 -10 11 -10 5 0 7 5 4 10 -3 6 -8 10 -11 10 -2 0
-4 -4 -4 -10z"/>
<path d="M4199 3668 c0 -2 -2 -10 -4 -19 -3 -19 22 -21 29 -3 3 9 -1 11 -11 7
-11 -4 -14 -2 -9 5 4 7 5 12 2 12 -3 0 -6 -1 -7 -2z"/>
<path d="M4275 3661 c6 -11 4 -13 -8 -8 -23 9 -21 0 2 -13 15 -7 19 -7 17 5
-1 8 -6 18 -11 22 -4 5 -5 2 0 -6z"/>
<path d="M4350 3655 c5 -7 6 -15 2 -20 -4 -4 3 -2 16 4 26 14 30 23 5 14 -10
-4 -14 -2 -10 4 3 5 0 10 -8 10 -10 0 -12 -4 -5 -12z"/>
<path d="M4430 3665 c5 -22 -1 -29 -11 -15 -8 12 -10 12 -7 1 5 -18 37 -23 34
-5 -1 7 -6 17 -10 21 -4 4 -7 4 -6 -2z"/>
<path d="M4554 3638 c-1 -35 1 -35 14 0 7 21 7 29 -2 29 -6 0 -11 -13 -12 -29z"/>
<path d="M4677 3653 c3 -7 6 -13 8 -13 2 0 5 6 8 13 3 8 -1 14 -8 14 -7 0 -11
-6 -8 -14z"/>
<path d="M5158 3648 c2 -10 6 -18 7 -18 1 0 5 8 7 18 3 11 0 19 -7 19 -7 0
-10 -8 -7 -19z"/>
<path d="M1933 3645 c0 -8 4 -12 9 -9 5 3 6 10 3 15 -9 13 -12 11 -12 -6z"/>
<path d="M4656 3647 c3 -10 9 -15 12 -12 3 3 0 11 -7 18 -10 9 -11 8 -5 -6z"/>
<path d="M4773 3646 c0 -6 10 -11 23 -11 25 0 23 10 -4 17 -10 3 -19 0 -19 -6z"/>
<path d="M4918 3649 c16 -18 60 -19 66 -2 4 10 1 11 -12 5 -20 -10 -32 -10
-52 2 -12 7 -13 6 -2 -5z"/>
<path d="M3993 3635 c0 -8 4 -12 9 -9 5 3 6 10 3 15 -9 13 -12 11 -12 -6z"/>
<path d="M4085 3637 c-14 -11 -15 -16 -5 -22 9 -6 11 -4 5 5 -6 9 -4 12 7 8 9
-4 15 0 15 8 0 17 1 17 -22 1z"/>
<path d="M4331 3634 c0 -11 3 -14 6 -6 3 7 2 16 -1 19 -3 4 -6 -2 -5 -13z"/>
<path d="M4481 3637 c-6 -8 -7 -18 -3 -22 4 -5 0 -6 -9 -3 -9 4 -16 1 -16 -7
0 -8 7 -11 16 -7 14 5 14 4 1 -14 -14 -18 -14 -18 2 -5 10 7 15 17 12 22 -3 5
1 9 8 9 9 0 9 3 -2 10 -14 9 -7 14 13 11 5 -1 6 3 2 9 -8 13 -10 13 -24 -3z"/>
<path d="M4633 3635 c0 -8 6 -16 14 -19 11 -4 11 -1 3 14 -13 24 -17 25 -17 5z"/>
<path d="M4707 3639 c7 -7 15 -10 18 -7 3 3 -2 9 -12 12 -14 6 -15 5 -6 -5z"/>
<path d="M5045 3639 c-3 -4 2 -6 10 -5 21 3 28 13 10 13 -9 0 -18 -4 -20 -8z"/>
<path d="M3896 3622 c-3 -4 4 -9 15 -9 23 -2 25 3 4 10 -8 4 -16 3 -19 -1z"/>
<path d="M5110 3620 c0 -5 5 -10 10 -10 6 0 10 5 10 10 0 6 -4 10 -10 10 -5 0
-10 -4 -10 -10z"/>
<path d="M4014 3601 c0 -12 6 -17 18 -13 10 2 18 9 18 15 0 6 -3 7 -7 4 -3 -4
-11 -3 -17 3 -8 6 -12 3 -12 -9z"/>
<path d="M4170 3607 c-20 -16 -22 -34 -5 -34 7 0 11 7 7 15 -3 9 -1 13 5 9 5
-3 10 0 10 8 0 8 -1 15 -1 15 -1 0 -8 -6 -16 -13z"/>
<path d="M4406 3611 c-19 -7 -19 -8 0 -13 13 -3 21 0 21 8 0 8 -1 14 -1 13 -1
0 -10 -4 -20 -8z"/>
<path d="M4574 3601 c0 -12 6 -17 18 -13 10 2 18 9 18 15 0 6 -3 7 -7 4 -3 -4
-11 -3 -17 3 -8 6 -12 3 -12 -9z"/>
<path d="M4736 3594 c-3 -7 2 -10 15 -7 22 6 26 20 4 20 -8 0 -16 -6 -19 -13z"/>
<path d="M4993 3603 c4 -3 3 -11 -3 -17 -6 -8 -3 -12 9 -12 12 0 17 6 13 18
-2 10 -9 18 -15 18 -6 0 -7 -3 -4 -7z"/>
<path d="M3959 3583 c-1 -5 -1 -12 0 -17 1 -4 -3 -14 -8 -20 -8 -9 -7 -13 4
-13 8 0 11 5 8 10 -4 6 0 8 8 5 10 -4 15 1 15 12 0 11 -5 16 -15 12 -9 -3 -12
-1 -7 6 4 7 5 12 2 12 -3 0 -7 -3 -7 -7z"/>
<path d="M4237 3573 c3 -7 6 -13 8 -13 2 0 5 6 8 13 3 8 -1 14 -8 14 -7 0 -11
-6 -8 -14z"/>
<path d="M4313 3570 c-1 -11 2 -20 5 -20 4 0 8 9 9 20 1 11 -2 20 -5 20 -4 0
-8 -9 -9 -20z"/>
<path d="M4388 3583 c7 -3 16 -2 19 1 4 3 -2 6 -13 5 -11 0 -14 -3 -6 -6z"/>
<path d="M4950 3581 c0 -6 4 -13 10 -16 6 -3 7 1 4 9 -7 18 -14 21 -14 7z"/>
<path d="M5075 3580 c-3 -5 -4 -10 0 -10 3 0 1 -8 -4 -18 -7 -14 -6 -19 4 -19
8 0 11 7 7 16 -5 13 -3 14 9 4 12 -10 15 -8 16 10 2 17 0 19 -7 7 -9 -14 -14
-7 -11 13 2 10 -7 9 -14 -3z"/>
<path d="M5153 3575 c0 -8 4 -12 9 -9 5 3 6 10 3 15 -9 13 -12 11 -12 -6z"/>
<path d="M4073 3565 c0 -8 4 -12 9 -9 5 3 6 10 3 15 -9 13 -12 11 -12 -6z"/>
<path d="M4540 3571 c0 -7 -5 -9 -12 -5 -7 5 -8 3 -3 -5 5 -9 10 -10 18 -2 6
6 8 14 4 18 -4 3 -7 1 -7 -6z"/>
<path d="M4807 3566 c-15 -12 -16 -15 -2 -26 13 -11 14 -10 9 5 -5 11 -4 16 3
12 5 -3 10 0 10 8 0 8 -1 15 -1 15 -1 0 -9 -7 -19 -14z"/>
<path d="M5131 3564 c0 -11 3 -14 6 -6 3 7 2 16 -1 19 -3 4 -6 -2 -5 -13z"/>
<path d="M4107 3559 c7 -7 15 -10 18 -7 3 3 -2 9 -12 12 -14 6 -15 5 -6 -5z"/>
<path d="M4200 3560 c18 -12 30 -13 30 -2 0 4 -10 9 -22 9 -18 2 -20 0 -8 -7z"/>
<path d="M4393 3553 c0 -7 5 -9 11 -5 6 3 17 7 24 8 27 4 22 12 -6 11 -16 -1
-29 -7 -29 -14z"/>
<path d="M5020 3560 c-9 -6 -10 -10 -3 -10 6 0 15 5 18 10 8 12 4 12 -15 0z"/>
<path d="M4634 3546 c1 -8 5 -18 8 -22 4 -3 5 1 4 10 -1 8 -5 18 -8 22 -4 3
-5 -1 -4 -10z"/>
<path d="M3996 3535 c-9 -26 -7 -32 5 -12 6 10 9 21 6 23 -2 3 -7 -2 -11 -11z"/>
<path d="M4075 3540 c-16 -7 -17 -9 -3 -9 9 -1 20 4 23 9 7 11 7 11 -20 0z"/>
<path d="M4159 3543 c-1 -5 -1 -12 0 -17 1 -5 -4 -6 -12 -3 -7 3 -14 -1 -14
-8 0 -10 5 -11 19 -4 10 6 16 14 13 19 -3 4 1 11 7 13 10 4 10 6 1 6 -7 1 -14
-2 -14 -6z"/>
<path d="M4295 3530 c-4 -6 -11 -8 -16 -5 -5 4 -9 2 -9 -3 0 -5 8 -12 18 -14
12 -4 18 1 18 13 0 22 -2 23 -11 9z"/>
<path d="M4334 3519 c0 -12 4 -15 12 -9 6 6 14 7 17 3 4 -3 7 -2 7 4 0 6 -8
13 -18 15 -12 4 -18 -1 -18 -13z"/>
<path d="M4486 3531 c-19 -7 -19 -8 0 -13 13 -3 21 0 21 8 0 8 -1 14 -1 13 -1
0 -10 -4 -20 -8z"/>
<path d="M4533 3525 c0 -7 7 -11 14 -8 8 3 13 0 11 -7 -2 -7 3 -14 10 -15 7
-2 8 -1 2 2 -5 2 -8 9 -5 13 3 5 -3 13 -13 19 -14 7 -19 6 -19 -4z"/>
<path d="M4693 3525 c0 -8 5 -11 10 -8 6 4 8 0 5 -8 -4 -10 1 -15 12 -15 11 0
16 5 12 15 -4 10 -1 12 8 6 9 -5 11 -4 6 4 -4 6 -12 9 -17 5 -5 -3 -16 -1 -23
5 -9 8 -13 7 -13 -4z"/>
<path d="M4086 3521 c-19 -7 -19 -8 0 -13 13 -3 21 0 21 8 0 8 -1 14 -1 13 -1
0 -10 -4 -20 -8z"/>
<path d="M4825 3519 c-3 -4 2 -6 10 -5 21 3 28 13 10 13 -9 0 -18 -4 -20 -8z"/>
<path d="M4960 3516 c0 -2 7 -7 16 -10 8 -3 12 -2 9 4 -6 10 -25 14 -25 6z"/>
<path d="M5076 3507 c3 -10 9 -15 12 -12 3 3 0 11 -7 18 -10 9 -11 8 -5 -6z"/>
<path d="M3895 3500 c3 -5 8 -10 11 -10 2 0 4 5 4 10 0 6 -5 10 -11 10 -5 0
-7 -4 -4 -10z"/>
<path d="M4231 3503 c3 -20 -2 -27 -11 -13 -6 9 -10 10 -10 3 0 -19 17 -24 29
-9 9 10 9 16 1 21 -6 4 -10 3 -9 -2z"/>
<path d="M4395 3501 c-3 -6 3 -14 13 -20 14 -7 19 -6 19 4 0 7 -7 11 -15 7
-10 -3 -13 -1 -8 6 4 7 5 12 2 12 -3 0 -7 -4 -11 -9z"/>
<path d="M5030 3505 c5 -22 -1 -29 -11 -15 -9 13 -10 13 -6 0 2 -8 10 -14 17
-12 8 2 10 -3 6 -13 -3 -9 -2 -13 4 -10 11 7 8 40 -4 52 -4 5 -7 4 -6 -2z"/>
<path d="M4753 3485 c0 -8 4 -15 9 -15 4 0 8 4 8 9 0 6 -4 12 -8 15 -5 3 -9
-1 -9 -9z"/>
<path d="M4832 3496 c4 -5 3 -16 -2 -26 -6 -12 -5 -17 5 -17 8 0 11 7 7 16 -5
13 -3 14 9 4 13 -10 16 -10 16 2 0 8 -3 13 -5 10 -3 -3 -12 1 -21 7 -9 7 -13
9 -9 4z"/>
<path d="M3945 3479 c-3 -4 2 -6 10 -5 21 3 28 13 10 13 -9 0 -18 -4 -20 -8z"/>
<path d="M4180 3475 c-11 -13 -10 -14 5 -9 11 5 16 4 12 -3 -3 -5 0 -10 8 -10
12 0 12 3 3 16 -7 9 -13 17 -14 19 -1 1 -7 -4 -14 -13z"/>
<path d="M4310 3479 c0 -5 5 -7 10 -4 6 3 10 8 10 11 0 2 -4 4 -10 4 -5 0 -10
-5 -10 -11z"/>
<path d="M4510 3481 c0 -6 4 -12 8 -15 5 -3 9 1 9 9 0 8 -4 15 -9 15 -4 0 -8
-4 -8 -9z"/>
<path d="M4600 3480 c-12 -7 -10 -9 8 -7 12 0 22 5 22 9 0 11 -12 10 -30 -2z"/>
<path d="M4650 3478 c0 -11 12 -10 30 2 12 7 10 9 -8 7 -12 0 -22 -5 -22 -9z"/>
<path d="M4055 3470 c-4 -6 1 -7 11 -3 10 4 15 2 11 -4 -3 -5 0 -10 8 -10 11
0 12 4 4 14 -14 15 -26 17 -34 3z"/>
<path d="M4437 3467 c-3 -8 1 -14 8 -14 7 0 11 6 8 14 -3 7 -6 13 -8 13 -2 0
-5 -6 -8 -13z"/>
<path d="M4034 3448 c2 -15 0 -29 -5 -32 -5 -2 -4 -3 2 -2 15 3 20 29 8 47 -7
10 -8 6 -5 -13z"/>
<path d="M4548 3451 c4 -10 1 -12 -8 -6 -9 5 -11 4 -6 -4 4 -6 12 -9 17 -5 5
3 16 1 23 -5 9 -8 13 -7 13 4 0 8 -5 11 -10 8 -6 -4 -8 0 -5 8 4 10 -1 15 -12
15 -11 0 -16 -5 -12 -15z"/>
<path d="M4710 3460 c14 -9 7 -14 -13 -11 -5 1 -5 -3 -2 -9 4 -6 9 -9 12 -6 3
3 13 1 23 -4 12 -6 17 -5 17 5 0 8 -7 11 -16 7 -13 -5 -14 -3 -4 9 10 12 8 15
-10 16 -17 2 -19 0 -7 -7z"/>
<path d="M3897 3445 c-4 -8 -3 -16 1 -19 4 -3 9 4 9 15 2 23 -3 25 -10 4z"/>
<path d="M4156 3447 c3 -10 9 -15 12 -12 3 3 0 11 -7 18 -10 9 -11 8 -5 -6z"/>
<path d="M4380 3452 c0 -6 -11 -9 -27 -6 -15 3 -25 3 -22 -1 12 -11 49 -14 55
-4 3 6 3 13 0 16 -3 4 -6 1 -6 -5z"/>
<path d="M4795 3450 c6 -9 4 -12 -7 -8 -8 4 -15 1 -15 -7 0 -8 7 -11 15 -7 11
4 13 1 7 -9 -5 -8 -4 -11 0 -6 13 12 15 36 3 44 -7 4 -8 1 -3 -7z"/>
<path d="M4110 3439 c0 -3 9 -9 19 -12 13 -3 18 0 15 7 -5 13 -34 18 -34 5z"/>
<path d="M4233 3434 c0 -7 6 -15 13 -18 9 -3 11 1 7 11 -5 12 -3 14 8 8 8 -5
11 -4 6 0 -13 14 -34 14 -34 -1z"/>
<path d="M4396 3433 c-6 -14 -5 -15 5 -6 7 7 10 15 7 18 -3 3 -9 -2 -12 -12z"/>
<path d="M4870 3439 c0 -5 5 -7 10 -4 6 3 10 8 10 11 0 2 -4 4 -10 4 -5 0 -10
-5 -10 -11z"/>
<path d="M3957 3417 c4 -6 0 -8 -10 -4 -10 4 -14 2 -11 -7 3 -7 11 -13 19 -13
8 0 13 3 10 5 -3 3 0 10 5 17 7 8 5 12 -5 12 -8 0 -11 -5 -8 -10z"/>
<path d="M4324 3419 c-3 -6 0 -17 8 -25 13 -13 15 -13 15 0 0 8 -5 12 -10 9
-6 -4 -8 0 -4 10 7 19 2 23 -9 6z"/>
<path d="M4438 3408 c2 -10 6 -18 7 -18 1 0 5 8 7 18 3 11 0 19 -7 19 -7 0
-10 -8 -7 -19z"/>
<path d="M4828 3408 c2 -10 6 -18 7 -18 1 0 5 8 7 18 3 11 0 19 -7 19 -7 0
-10 -8 -7 -19z"/>
<path d="M4417 3399 c4 -13 8 -18 11 -10 2 7 -1 18 -6 23 -8 8 -9 4 -5 -13z"/>
<path d="M4040 3400 c-9 -6 -10 -10 -3 -10 6 0 15 5 18 10 8 12 4 12 -15 0z"/>
<path d="M4851 3394 c0 -11 3 -14 6 -6 3 7 2 16 -1 19 -3 4 -6 -2 -5 -13z"/>
<path d="M3894 3378 c-4 -7 -4 -10 1 -6 4 4 15 2 24 -5 14 -11 14 -10 2 6 -16
20 -18 21 -27 5z"/>
<path d="M4068 3378 c5 -5 16 -8 23 -6 8 3 3 7 -10 11 -17 4 -21 3 -13 -5z"/>
<path d="M4285 3382 c-13 -9 -17 -32 -6 -32 5 0 11 9 14 20 6 22 6 22 -8 12z"/>
<path d="M4944 3378 c-4 -7 -4 -10 1 -6 4 4 14 0 22 -10 13 -15 13 -15 3 6
-12 25 -16 27 -26 10z"/>
<path d="M5016 3375 c-9 -26 -7 -32 5 -12 6 10 9 21 6 23 -2 3 -7 -2 -11 -11z"/>
<path d="M4174 3369 c3 -15 29 -20 47 -8 10 7 6 8 -13 5 -15 -2 -29 0 -32 5
-2 5 -3 4 -2 -2z"/>
<path d="M4540 3372 c0 -6 -11 -9 -27 -6 -15 3 -25 3 -22 -1 12 -11 49 -14 55
-4 3 6 3 13 0 16 -3 4 -6 1 -6 -5z"/>
<path d="M4688 3373 c-10 -2 -18 -9 -18 -15 0 -6 3 -8 7 -5 3 4 11 3 17 -3 8
-6 12 -3 12 11 0 10 0 18 -1 18 0 -1 -8 -3 -17 -6z"/>
<path d="M5088 3373 c-10 -2 -18 -9 -18 -15 0 -6 3 -8 7 -5 3 4 11 3 17 -3 8
-6 12 -3 12 11 0 10 0 18 -1 18 0 -1 -8 -3 -17 -6z"/>
<path d="M3973 3356 c-4 -5 0 -6 7 -1 9 6 12 4 8 -7 -4 -8 0 -15 8 -15 7 0 10
5 7 10 -4 6 0 8 9 5 8 -4 15 -1 15 5 0 14 -46 16 -54 3z"/>
<path d="M4053 3355 c0 -7 8 -10 19 -7 10 2 18 6 18 7 0 1 -8 5 -18 7 -11 3
-19 0 -19 -7z"/>
<path d="M4353 3355 c0 -8 6 -16 13 -19 7 -3 10 2 7 15 -6 22 -20 26 -20 4z"/>
<path d="M4456 3362 c-3 -5 1 -9 9 -9 8 0 12 4 9 9 -3 4 -7 8 -9 8 -2 0 -6 -4
-9 -8z"/>
<path d="M4794 3362 c4 -7 1 -12 -6 -12 -9 0 -9 -3 2 -10 14 -9 6 -15 -15 -10
-5 1 -6 -2 -2 -6 11 -11 38 -14 32 -4 -3 5 1 11 7 13 10 4 10 6 0 6 -7 1 -11
5 -7 10 3 5 0 13 -6 17 -8 4 -9 3 -5 -4z"/>
<path d="M4913 3363 c4 -3 3 -11 -3 -17 -6 -8 -3 -12 9 -12 12 0 17 6 13 18
-2 10 -9 18 -15 18 -6 0 -7 -3 -4 -7z"/>
<path d="M4115 3341 c-3 -5 -2 -12 3 -15 5 -3 9 1 9 9 0 17 -3 19 -12 6z"/>
<path d="M4228 3332 c3 -10 1 -13 -6 -8 -6 3 -15 -2 -21 -12 -7 -14 -6 -19 4
-19 7 0 11 7 7 15 -3 10 -1 13 6 8 6 -3 15 2 21 12 7 14 6 19 -4 19 -7 0 -11
-7 -7 -15z"/>
<path d="M4478 3342 c-14 -6 -13 -9 6 -24 18 -13 23 -13 23 -3 0 8 -5 11 -10
8 -6 -4 -8 0 -4 10 3 10 5 17 4 16 -1 0 -9 -3 -19 -7z"/>
<path d="M4628 3332 c5 -9 7 -23 5 -29 -3 -7 -1 -13 4 -13 14 0 10 49 -4 54
-10 4 -11 1 -5 -12z"/>
<path d="M4712 3322 c-7 -21 -7 -29 2 -29 6 0 11 13 12 29 1 35 -1 35 -14 0z"/>
<path d="M5033 3329 c-2 -23 3 -25 10 -4 4 8 3 16 -1 19 -4 3 -9 -4 -9 -15z"/>
<path d="M3955 3331 c-3 -6 -14 -8 -25 -6 -11 2 -20 0 -20 -6 0 -12 37 -6 52
9 7 7 9 12 6 12 -4 0 -9 -4 -13 -9z"/>
<path d="M4141 3333 c-1 -17 16 -25 25 -12 4 7 3 9 -4 5 -5 -3 -13 0 -15 6 -4
9 -6 10 -6 1z"/>
<path d="M5011 3324 c0 -11 3 -14 6 -6 3 7 2 16 -1 19 -3 4 -6 -2 -5 -13z"/>
<path d="M4026 3319 c3 -5 9 -7 14 -4 4 3 11 0 13 -5 3 -6 4 -5 3 1 -1 7 -10
13 -19 15 -9 1 -15 -2 -11 -7z"/>
<path d="M4347 3319 c7 -7 15 -10 18 -7 3 3 -2 9 -12 12 -14 6 -15 5 -6 -5z"/>
<path d="M4555 3320 c3 -5 8 -10 11 -10 2 0 4 5 4 10 0 6 -5 10 -11 10 -5 0
-7 -4 -4 -10z"/>
<path d="M4073 3305 c0 -8 4 -12 9 -9 5 3 6 10 3 15 -9 13 -12 11 -12 -6z"/>
<path d="M4321 3296 c-10 -12 -8 -17 7 -25 14 -7 19 -7 19 4 0 8 -7 11 -16 7
-14 -5 -14 -3 -2 11 7 9 11 17 8 17 -2 0 -10 -6 -16 -14z"/>
<path d="M4399 3303 c-1 -5 -1 -12 0 -17 1 -5 -4 -6 -12 -3 -7 3 -14 -1 -14
-8 0 -10 5 -11 19 -4 10 6 16 14 13 19 -3 4 1 11 7 13 10 4 10 6 1 6 -7 1 -14
-2 -14 -6z"/>
<path d="M4839 3308 c-6 -20 -5 -38 2 -49 7 -10 8 -6 5 13 -3 15 1 29 7 32 9
3 9 5 0 5 -7 1 -13 0 -14 -1z"/>
<path d="M4948 3292 c4 -11 1 -13 -8 -7 -9 5 -11 4 -6 -4 4 -6 12 -8 18 -5 7
5 9 2 6 -8 -4 -8 -1 -15 7 -15 8 0 11 7 7 15 -3 9 -1 13 5 9 5 -3 10 0 10 8 0
12 -3 12 -16 2 -12 -10 -14 -9 -9 4 4 9 1 16 -7 16 -8 0 -11 -7 -7 -15z"/>
<path d="M4128 3293 c-10 -2 -18 -9 -18 -15 0 -6 3 -8 7 -5 3 4 11 3 17 -3 8
-6 12 -3 12 11 0 10 0 18 -1 18 0 -1 -8 -3 -17 -6z"/>
<path d="M4234 3272 c2 -9 9 -18 17 -20 11 -3 11 -1 -1 7 -14 10 -7 16 15 11
6 -1 6 2 2 6 -14 15 -35 12 -33 -4z"/>
<path d="M4513 3275 c0 -8 6 -16 13 -19 7 -3 10 2 7 15 -6 22 -20 26 -20 4z"/>
<path d="M4753 3283 c4 -3 3 -11 -3 -17 -6 -8 -3 -12 9 -12 12 0 17 6 13 18
-2 10 -9 18 -15 18 -6 0 -7 -3 -4 -7z"/>
<path d="M5076 3275 c-11 -8 -15 -15 -9 -15 6 0 16 7 23 15 16 19 11 19 -14 0z"/>
<path d="M4197 3253 c3 -8 0 -13 -7 -11 -7 2 -14 -3 -15 -10 -2 -7 -1 -8 2 -2
2 5 9 8 13 5 5 -3 13 3 19 13 7 14 6 19 -4 19 -7 0 -11 -7 -8 -14z"/>
<path d="M4599 3263 c-1 -5 -1 -12 0 -17 1 -4 -3 -14 -8 -20 -8 -9 -7 -13 4
-13 8 0 11 5 8 10 -4 6 0 8 8 5 10 -4 15 1 15 12 0 11 -5 16 -15 12 -9 -3 -12
-1 -7 6 4 7 5 12 2 12 -3 0 -7 -3 -7 -7z"/>
<path d="M3933 3252 c-7 -4 -9 -13 -4 -21 6 -9 10 -7 14 8 3 12 4 21 4 21 -1
0 -7 -4 -14 -8z"/>
<path d="M4795 3246 l-30 -13 31 1 c17 1 31 6 31 14 0 6 -1 12 -1 12 -1 -1
-14 -7 -31 -14z"/>
<path d="M4290 3246 c0 -2 7 -7 16 -10 8 -3 12 -2 9 4 -6 10 -25 14 -25 6z"/>
<path d="M4353 3234 c0 -10 4 -11 13 -3 8 7 14 6 17 -1 3 -6 5 -6 3 1 -3 17
-33 20 -33 3z"/>
<path d="M4473 3235 c0 -8 4 -12 9 -9 4 3 8 9 8 15 0 5 -4 9 -8 9 -5 0 -9 -7
-9 -15z"/>
<path d="M4654 3242 c4 -3 14 -7 22 -8 9 -1 13 0 10 4 -4 3 -14 7 -22 8 -9 1
-13 0 -10 -4z"/>
<path d="M4896 3234 c-3 -9 1 -11 11 -7 10 4 14 2 10 -4 -3 -5 0 -10 8 -10 10
0 12 4 5 12 -5 7 -8 14 -5 17 3 2 -2 5 -10 5 -8 0 -16 -6 -19 -13z"/>
<path d="M4992 3245 c3 -3 16 -8 28 -10 12 -2 20 -1 16 2 -4 4 -16 8 -28 10
-12 2 -19 1 -16 -2z"/>
<path d="M4067 3214 c2 -7 11 -10 19 -7 19 7 18 10 -5 16 -13 3 -18 1 -14 -9z"/>
<path d="M4270 3214 c6 -6 7 -14 3 -17 -3 -4 -2 -7 4 -7 6 0 13 8 15 18 4 12
-1 18 -13 18 -12 0 -15 -4 -9 -12z"/>
<path d="M4719 3228 c-10 -33 6 -46 28 -24 4 4 4 7 -2 6 -21 -5 -29 1 -15 10
10 6 11 10 3 10 -7 0 -13 -1 -14 -2z"/>
<path d="M4989 3224 c5 -3 7 -17 5 -32 -3 -19 -2 -23 5 -13 12 18 7 44 -8 47
-6 1 -7 0 -2 -2z"/>
<path d="M3897 3205 c-4 -8 -3 -16 1 -19 4 -3 9 4 9 15 2 23 -3 25 -10 4z"/>
<path d="M4414 3199 c0 -12 4 -15 12 -9 6 6 14 7 17 3 4 -3 7 -2 7 4 0 6 -8
13 -18 15 -12 4 -18 -1 -18 -13z"/>
<path d="M4678 3213 c7 -3 16 -2 19 1 4 3 -2 6 -13 5 -11 0 -14 -3 -6 -6z"/>
<path d="M4876 3207 c3 -10 9 -15 12 -12 3 3 0 11 -7 18 -10 9 -11 8 -5 -6z"/>
<path d="M4630 3200 c0 -5 5 -10 10 -10 6 0 10 5 10 10 0 6 -4 10 -10 10 -5 0
-10 -4 -10 -10z"/>
<path d="M4830 3199 c0 -3 9 -9 19 -12 13 -3 18 0 15 7 -5 13 -34 18 -34 5z"/>
<path d="M5039 3193 c-13 -16 -12 -17 4 -4 16 13 21 21 13 21 -2 0 -10 -8 -17
-17z"/>
<path d="M4155 3180 c-3 -5 -1 -10 4 -10 6 0 11 5 11 10 0 6 -2 10 -4 10 -3 0
-8 -4 -11 -10z"/>
<path d="M4228 3172 c4 -11 1 -13 -8 -7 -9 5 -11 4 -6 -3 10 -16 14 -15 25 6
7 14 6 19 -4 19 -7 0 -11 -7 -7 -15z"/>
<path d="M4390 3181 c0 -6 4 -13 10 -16 6 -3 7 1 4 9 -7 18 -14 21 -14 7z"/>
<path d="M4475 3181 c-9 -15 15 -25 28 -12 9 9 7 10 -7 5 -13 -5 -17 -4 -12 4
4 7 5 12 2 12 -3 0 -7 -4 -11 -9z"/>
<path d="M4677 3173 c3 -7 6 -13 8 -13 2 0 5 6 8 13 3 8 -1 14 -8 14 -7 0 -11
-6 -8 -14z"/>
<path d="M4770 3170 c0 -5 -5 -9 -11 -7 -6 1 -14 -5 -16 -13 -4 -12 -3 -12 5
-2 5 8 13 13 18 12 5 -1 10 3 12 9 2 6 1 11 -2 11 -3 0 -6 -4 -6 -10z"/>
<path d="M5017 3169 c7 -7 15 -10 18 -7 3 3 -2 9 -12 12 -14 6 -15 5 -6 -5z"/>
<path d="M4295 3159 c-3 -4 2 -6 10 -5 21 3 28 13 10 13 -9 0 -18 -4 -20 -8z"/>
<path d="M4446 3162 c-3 -5 1 -9 9 -9 8 0 12 4 9 9 -3 4 -7 8 -9 8 -2 0 -6 -4
-9 -8z"/>
<path d="M4576 3158 c3 -5 10 -6 15 -3 13 9 11 12 -6 12 -8 0 -12 -4 -9 -9z"/>
<path d="M4926 3159 c3 -5 10 -6 16 -3 7 5 9 2 6 -8 -4 -8 0 -15 8 -15 19 0 1
30 -20 33 -9 1 -14 -2 -10 -7z"/>
<path d="M4181 3157 c2 -1 13 -9 24 -17 19 -14 19 -14 6 3 -7 9 -18 17 -24 17
-6 0 -8 -1 -6 -3z"/>
<path d="M4535 3150 c-4 -6 1 -7 11 -3 13 5 15 3 9 -7 -5 -9 -4 -11 4 -6 6 4
9 12 6 17 -8 12 -22 12 -30 -1z"/>
<path d="M4715 3151 c-3 -5 -2 -12 3 -15 5 -3 9 1 9 9 0 17 -3 19 -12 6z"/>
<path d="M4827 3147 c-3 -8 1 -14 8 -14 7 0 11 6 8 14 -3 7 -6 13 -8 13 -2 0
-5 -6 -8 -13z"/>
<path d="M4879 3158 c-5 -19 -8 -50 -4 -46 7 7 15 48 9 48 -2 0 -4 -1 -5 -2z"/>
<path d="M4380 3132 c0 -6 -11 -9 -27 -6 -15 3 -25 3 -22 -1 12 -11 49 -14 55
-4 3 6 3 13 0 16 -3 4 -6 1 -6 -5z"/>
<path d="M4615 3130 c-4 -6 -11 -8 -16 -5 -5 4 -9 2 -9 -3 0 -5 8 -12 18 -14
12 -4 18 1 18 13 0 22 -2 23 -11 9z"/>
<path d="M4654 3119 c0 -12 4 -15 12 -9 6 6 14 7 17 3 4 -3 7 -2 7 4 0 6 -8
13 -18 15 -12 4 -18 -1 -18 -13z"/>
<path d="M4999 3138 c-5 -18 -6 -38 -1 -34 7 8 12 36 6 36 -2 0 -4 -1 -5 -2z"/>
<path d="M4233 3114 c0 -7 6 -15 13 -18 9 -3 11 1 7 11 -5 12 -3 14 8 8 8 -5
11 -4 6 0 -13 14 -34 14 -34 -1z"/>
<path d="M4396 3113 c-6 -14 -5 -15 5 -6 7 7 10 15 7 18 -3 3 -9 -2 -12 -12z"/>
<path d="M4894 3119 c-3 -6 -3 -13 0 -16 3 -4 6 -1 6 5 0 6 11 9 27 6 15 -3
25 -3 22 1 -12 11 -49 14 -55 4z"/>
<path d="M4794 3112 c3 -5 0 -13 -6 -15 -9 -4 -10 -6 -1 -6 17 -1 25 16 12 25
-7 4 -9 3 -5 -4z"/>
<path d="M4324 3099 c-3 -6 0 -17 8 -25 13 -13 15 -13 15 0 0 8 -5 12 -10 9
-6 -4 -8 0 -4 10 7 19 2 23 -9 6z"/>
<path d="M4437 3097 c4 -6 0 -8 -9 -4 -12 4 -14 1 -10 -16 3 -12 7 -16 10 -9
2 7 9 9 15 5 7 -3 9 -3 5 2 -4 4 -3 13 2 20 7 8 5 12 -5 12 -8 0 -11 -5 -8
-10z"/>
<path d="M4828 3088 c2 -10 6 -18 7 -18 1 0 5 8 7 18 3 11 0 19 -7 19 -7 0
-10 -8 -7 -19z"/>
<path d="M4273 3085 c0 -8 4 -15 9 -15 4 0 8 4 8 9 0 6 -4 12 -8 15 -5 3 -9
-1 -9 -9z"/>
<path d="M4555 3090 c-4 -6 -10 -8 -14 -6 -4 3 -13 1 -20 -4 -9 -5 -3 -7 16
-7 17 1 30 7 30 14 0 16 -4 16 -12 3z"/>
<path d="M4853 3085 c-3 -9 -3 -18 -1 -21 3 -3 8 4 11 16 6 23 -1 27 -10 5z"/>
<path d="M4175 3079 c-3 -4 2 -6 10 -5 21 3 28 13 10 13 -9 0 -18 -4 -20 -8z"/>
<path d="M4633 3070 c-1 -11 2 -20 5 -20 4 0 8 9 9 20 1 11 -2 20 -5 20 -4 0
-8 -9 -9 -20z"/>
<path d="M4730 3082 c0 -4 10 -9 22 -9 18 -2 20 0 8 7 -18 12 -30 13 -30 2z"/>
<path d="M4955 3079 c-3 -4 2 -6 10 -5 21 3 28 13 10 13 -9 0 -18 -4 -20 -8z"/>
<path d="M4707 3067 c-3 -8 1 -14 8 -14 7 0 11 6 8 14 -3 7 -6 13 -8 13 -2 0
-5 -6 -8 -13z"/>
<path d="M4787 3053 c4 -10 2 -14 -4 -10 -5 3 -10 0 -10 -8 0 -10 4 -12 12 -5
7 5 15 6 20 2 4 -4 2 3 -4 16 -14 26 -23 30 -14 5z"/>
<path d="M4558 3053 c7 -3 16 -2 19 1 4 3 -2 6 -13 5 -11 0 -14 -3 -6 -6z"/>
<path d="M4210 3037 c0 -6 3 -8 6 -4 3 3 16 2 28 -3 16 -6 23 -5 23 3 0 7 -13
12 -29 13 -15 1 -28 -3 -28 -9z"/>
<path d="M4293 3035 c0 -7 6 -11 14 -8 7 3 13 6 13 8 0 2 -6 5 -13 8 -8 3 -14
-1 -14 -8z"/>
<path d="M4353 3035 c0 -8 6 -16 13 -19 7 -3 10 2 7 15 -6 22 -20 26 -20 4z"/>
<path d="M4452 3035 c-3 -5 -2 -7 2 -3 5 4 18 3 30 -2 16 -6 23 -5 23 3 0 15
-47 16 -55 2z"/>
<path d="M4533 3035 c0 -7 8 -10 19 -7 10 2 18 6 18 7 0 1 -8 5 -18 7 -11 3
-19 0 -19 -7z"/>
<path d="M4908 3033 c-4 -14 0 -19 13 -18 10 1 22 5 26 10 5 4 3 5 -4 1 -6 -3
-16 1 -21 10 -8 15 -10 14 -14 -3z"/>
<path d="M4468 3013 c7 -3 16 -2 19 1 4 3 -2 6 -13 5 -11 0 -14 -3 -6 -6z"/>
<path d="M4621 3004 c0 -11 3 -14 6 -6 3 7 2 16 -1 19 -3 4 -6 -2 -5 -13z"/>
<path d="M4798 3013 c7 -3 16 -2 19 1 4 3 -2 6 -13 5 -11 0 -14 -3 -6 -6z"/>
<path d="M4264 2998 c-4 -5 -3 -12 0 -15 3 -4 6 -1 6 6 0 7 4 10 9 6 5 -3 12
-2 15 3 3 5 -2 9 -10 9 -8 0 -17 -4 -20 -9z"/>
<path d="M4514 2994 c1 -7 6 -17 10 -21 4 -4 7 -3 6 2 -5 22 1 29 11 15 8 -12
10 -12 7 -1 -5 18 -37 23 -34 5z"/>
<path d="M4584 2995 c-18 -15 -18 -15 0 -8 12 4 17 3 13 -4 -3 -5 0 -10 8 -10
10 0 12 4 5 12 -5 7 -7 15 -3 18 12 13 -3 7 -23 -8z"/>
<path d="M4674 2995 c1 -8 6 -18 11 -22 4 -5 5 -2 0 6 -6 11 -4 13 8 8 23 -9
21 0 -2 13 -15 7 -19 7 -17 -5z"/>
<path d="M4736 2994 c-3 -9 1 -11 11 -7 12 5 14 3 8 -8 -5 -8 -4 -11 0 -6 5 4
10 13 11 21 2 16 -24 17 -30 0z"/>
<path d="M4850 2998 c0 -6 3 -8 7 -5 3 4 11 2 18 -3 8 -7 12 -6 12 3 0 7 -9
14 -19 14 -10 1 -18 -3 -18 -9z"/>
<path d="M4235 2991 c-3 -5 -2 -12 3 -15 5 -3 9 1 9 9 0 17 -3 19 -12 6z"/>
<path d="M4910 2990 c-9 -6 -10 -10 -3 -10 6 0 15 5 18 10 8 12 4 12 -15 0z"/>
<path d="M4320 2971 c-7 -15 -7 -19 5 -17 8 1 18 6 22 11 5 4 2 5 -6 0 -11 -6
-13 -4 -8 8 9 23 0 21 -13 -2z"/>
<path d="M4429 2984 c5 -3 7 -17 5 -32 -3 -19 -2 -23 5 -13 12 18 7 44 -8 47
-6 1 -7 0 -2 -2z"/>
<path d="M4829 2984 c5 -3 7 -17 5 -32 -3 -19 -2 -23 5 -13 12 18 7 44 -8 47
-6 1 -7 0 -2 -2z"/>
<path d="M4556 2954 c-8 -20 -8 -24 2 -24 4 0 8 9 9 20 2 24 -3 26 -11 4z"/>
<path d="M4710 2956 c7 -7 13 -7 20 0 6 6 3 10 -10 10 -13 0 -16 -4 -10 -10z"/>
<path d="M4478 2943 c7 -3 16 -2 19 1 4 3 -2 6 -13 5 -11 0 -14 -3 -6 -6z"/>
<path d="M4308 2933 c7 -3 16 -2 19 1 4 3 -2 6 -13 5 -11 0 -14 -3 -6 -6z"/>
<path d="M4453 2926 c0 -6 10 -11 23 -11 25 0 23 10 -4 17 -10 3 -19 0 -19 -6z"/>
<path d="M4860 2928 c18 -15 19 -26 5 -48 -8 -13 -7 -13 8 -1 10 8 15 16 12
19 -3 3 1 12 7 21 7 9 9 13 4 9 -5 -4 -18 -3 -30 3 -18 9 -19 8 -6 -3z"/>
<path d="M4246 2922 c-3 -5 1 -9 9 -9 8 0 15 4 15 9 0 4 -4 8 -9 8 -6 0 -12
-4 -15 -8z"/>
<path d="M4355 2922 c3 -3 0 -10 -5 -17 -7 -8 -5 -12 5 -12 8 0 11 5 8 10 -4
6 0 8 10 4 10 -4 14 -2 11 7 -3 7 -11 13 -19 13 -8 0 -13 -3 -10 -5z"/>
<path d="M4572 2921 c-11 -7 -11 -9 0 -14 9 -3 15 1 15 9 0 8 -1 14 -1 14 -1
0 -7 -4 -14 -9z"/>
<path d="M4695 2910 c-3 -6 1 -7 9 -4 18 7 21 14 7 14 -6 0 -13 -4 -16 -10z"/>
<path d="M4279 2908 c-6 -20 -5 -38 2 -49 7 -10 8 -6 5 13 -3 15 1 29 7 32 9
3 9 5 0 5 -7 1 -13 0 -14 -1z"/>
<path d="M4674 2888 c2 -15 0 -29 -5 -32 -5 -2 -4 -3 2 -2 15 3 20 29 8 47 -7
10 -8 6 -5 -13z"/>
<path d="M4759 2903 c0 -5 -2 -16 -4 -25 -2 -9 3 -19 11 -22 11 -4 12 -1 6 12
-5 9 -7 23 -5 30 3 6 2 12 -1 12 -3 0 -6 -3 -7 -7z"/>
<path d="M4416 2874 c-3 -7 2 -10 15 -7 22 6 26 20 4 20 -8 0 -16 -6 -19 -13z"/>
<path d="M4508 2872 c-4 -12 1 -18 13 -18 12 0 15 4 9 12 -6 6 -7 14 -3 17 3
4 2 7 -4 7 -6 0 -13 -8 -15 -18z"/>
<path d="M4234 2851 c13 -12 18 -13 28 -2 11 10 9 11 -6 5 -12 -5 -17 -4 -13
3 3 5 -1 10 -9 10 -13 0 -13 -2 0 -16z"/>
<path d="M4839 2863 c-1 -5 -1 -12 0 -17 1 -4 -3 -14 -8 -20 -8 -9 -7 -13 4
-13 8 0 11 5 8 10 -4 6 0 8 8 5 10 -4 15 1 15 12 0 11 -5 16 -15 12 -9 -3 -12
-1 -7 6 4 7 5 12 2 12 -3 0 -7 -3 -7 -7z"/>
<path d="M4339 2833 c-13 -17 -13 -17 5 -3 18 13 19 13 14 -1 -4 -9 -1 -16 7
-16 10 0 11 5 4 19 -12 22 -13 22 -30 1z"/>
<path d="M4475 2841 c-3 -5 -2 -12 3 -15 5 -3 9 1 9 9 0 17 -3 19 -12 6z"/>
<path d="M4550 2840 c0 -5 5 -10 10 -10 6 0 10 5 10 10 0 6 -4 10 -10 10 -5 0
-10 -4 -10 -10z"/>
<path d="M4710 2840 c0 -5 5 -10 10 -10 6 0 10 5 10 10 0 6 -4 10 -10 10 -5 0
-10 -4 -10 -10z"/>
<path d="M4507 2809 c6 -22 20 -26 20 -4 0 8 -6 16 -13 19 -7 3 -10 -2 -7 -15z"/>
<path d="M4599 2828 c-6 -20 -5 -38 2 -49 7 -10 8 -6 5 13 -3 15 1 29 7 32 9
3 9 5 0 5 -7 1 -13 0 -14 -1z"/>
<path d="M4765 2822 c-13 -9 -17 -32 -6 -32 5 0 11 9 14 20 6 22 6 22 -8 12z"/>
<path d="M4879 2818 c-5 -9 -5 -48 -1 -43 6 6 11 45 5 45 -2 0 -4 -1 -4 -2z"/>
<path d="M4319 2803 c0 -5 -2 -16 -4 -26 -2 -11 -1 -16 3 -13 8 8 14 46 7 46
-3 0 -5 -3 -6 -7z"/>
<path d="M4394 2792 c2 -9 9 -18 17 -20 11 -3 11 -1 -1 7 -14 10 -7 16 15 11
6 -1 6 2 2 6 -14 15 -35 12 -33 -4z"/>
<path d="M4245 2779 c-4 -6 -5 -12 -2 -15 2 -3 7 2 10 11 7 17 1 20 -8 4z"/>
<path d="M4357 2773 c3 -8 0 -13 -7 -11 -7 2 -14 -3 -15 -10 -2 -7 -1 -8 2 -2
2 5 9 8 13 5 5 -3 13 3 19 13 7 14 6 19 -4 19 -7 0 -11 -7 -8 -14z"/>
<path d="M4570 2770 c-9 -6 -10 -10 -3 -10 6 0 15 5 18 10 8 12 4 12 -15 0z"/>
<path d="M4693 2765 c0 -7 6 -11 14 -8 7 3 13 6 13 8 0 2 -6 5 -13 8 -8 3 -14
-1 -14 -8z"/>
<path d="M4460 2760 c8 -5 20 -10 25 -10 6 0 3 5 -5 10 -8 5 -19 10 -25 10 -5
0 -3 -5 5 -10z"/>
<path d="M4853 2755 c0 -7 6 -11 14 -8 7 3 13 6 13 8 0 2 -6 5 -13 8 -8 3 -14
-1 -14 -8z"/>
<path d="M4271 2747 c-8 -10 -7 -14 4 -14 8 0 11 5 8 10 -4 6 1 8 11 4 10 -4
15 -3 11 3 -8 14 -20 12 -34 -3z"/>
<path d="M4430 2734 c6 -6 7 -14 3 -17 -3 -4 -2 -7 4 -7 6 0 13 8 15 18 4 12
-1 18 -13 18 -12 0 -15 -4 -9 -12z"/>
<path d="M4550 2741 c0 -5 8 -15 18 -22 15 -12 16 -12 5 2 -7 9 -10 19 -6 22
3 4 1 7 -5 7 -7 0 -12 -4 -12 -9z"/>
<path d="M4713 2728 c-2 -18 0 -20 7 -8 12 18 13 30 2 30 -4 0 -9 -10 -9 -22z"/>
<path d="M4313 2709 c3 -13 1 -31 -3 -39 -6 -11 -3 -16 10 -16 10 0 16 5 12
11 -3 5 -7 20 -8 33 0 12 -4 25 -8 29 -3 4 -5 -4 -3 -18z"/>
<path d="M4390 2684 c5 -12 6 -25 3 -28 -4 -3 -2 -6 4 -6 6 0 10 13 9 28 -1
16 -6 29 -13 29 -8 0 -9 -7 -3 -23z"/>
<path d="M4519 2708 c-7 -25 -5 -36 9 -34 9 2 18 9 20 17 3 11 1 11 -7 -1 -10
-13 -15 -8 -12 13 1 6 -8 11 -10 5z"/>
<path d="M4595 2701 c6 -11 4 -13 -8 -8 -23 9 -21 0 2 -13 15 -7 19 -7 17 5
-1 8 -6 18 -11 22 -4 5 -5 2 0 -6z"/>
<path d="M4670 2695 c5 -7 6 -15 2 -20 -4 -4 3 -2 16 4 26 14 30 23 5 14 -10
-4 -14 -2 -10 4 3 5 0 10 -8 10 -10 0 -12 -4 -5 -12z"/>
<path d="M4750 2705 c5 -22 -1 -29 -11 -15 -8 12 -10 12 -7 1 5 -18 37 -23 34
-5 -1 7 -6 17 -10 21 -4 4 -7 4 -6 -2z"/>
<path d="M4455 2680 c-4 -6 -3 -10 2 -9 20 3 27 -2 13 -11 -9 -6 -10 -10 -3
-10 19 0 24 17 9 29 -10 9 -16 9 -21 1z"/>
<path d="M4651 2674 c0 -11 3 -14 6 -6 3 7 2 16 -1 19 -3 4 -6 -2 -5 -13z"/>
<path d="M4870 2681 c0 -6 4 -13 10 -16 6 -3 7 1 4 9 -7 18 -14 21 -14 7z"/>
<path d="M4255 2660 c-3 -5 -1 -10 4 -10 6 0 11 5 11 10 0 6 -2 10 -4 10 -3 0
-8 -4 -11 -10z"/>
<path d="M4828 2648 c2 -10 9 -18 15 -18 6 0 7 3 4 7 -4 3 -3 11 3 17 6 8 3
12 -9 12 -12 0 -17 -6 -13 -18z"/>
<path d="M4487 2646 c-15 -12 -16 -15 -2 -26 13 -11 14 -10 9 5 -5 11 -4 16 3
12 5 -3 10 0 10 8 0 8 -1 15 -1 15 -1 0 -9 -7 -19 -14z"/>
<path d="M4726 2651 c-19 -7 -19 -8 0 -13 13 -3 21 0 21 8 0 8 -1 14 -1 13 -1
0 -10 -4 -20 -8z"/>
<path d="M4773 2645 c0 -7 6 -11 14 -8 7 3 13 6 13 8 0 2 -6 5 -13 8 -8 3 -14
-1 -14 -8z"/>
<path d="M4350 2639 c0 -3 9 -9 19 -12 13 -3 18 0 15 7 -5 13 -34 18 -34 5z"/>
<path d="M4275 2621 c6 -11 4 -13 -8 -8 -10 4 -14 2 -11 -7 6 -17 32 -16 30 0
-1 8 -6 17 -11 21 -4 5 -5 2 0 -6z"/>
<path d="M4557 2613 c3 -7 6 -13 8 -13 2 0 5 6 8 13 3 8 -1 14 -8 14 -7 0 -11
-6 -8 -14z"/>
<path d="M4633 2610 c-1 -11 2 -20 5 -20 4 0 8 9 9 20 1 11 -2 20 -5 20 -4 0
-8 -9 -9 -20z"/>
<path d="M4708 2623 c7 -3 16 -2 19 1 4 3 -2 6 -13 5 -11 0 -14 -3 -6 -6z"/>
<path d="M4520 2600 c18 -12 30 -13 30 -2 0 4 -10 9 -22 9 -18 2 -20 0 -8 -7z"/>
<path d="M4713 2593 c0 -7 5 -9 11 -5 6 3 17 7 24 8 27 4 22 12 -6 11 -16 -1
-29 -7 -29 -14z"/>
<path d="M4803 2598 c-13 -22 -12 -37 4 -31 12 5 12 7 1 14 -12 8 -4 13 15 10
5 -1 6 3 2 9 -8 13 -12 13 -22 -2z"/>
<path d="M4886 2595 c4 -8 8 -15 10 -15 2 0 4 7 4 15 0 8 -4 15 -10 15 -5 0
-7 -7 -4 -15z"/>
<path d="M4478 2583 c7 -3 16 -2 19 1 4 3 -2 6 -13 5 -11 0 -14 -3 -6 -6z"/>
<path d="M4293 2565 c0 -8 5 -11 10 -8 6 4 8 0 4 -10 -9 -25 0 -21 14 6 6 12
8 19 4 15 -5 -4 -13 -3 -20 2 -8 7 -12 5 -12 -5z"/>
<path d="M4410 2571 c-8 -6 -17 -8 -21 -5 -4 2 -11 0 -14 -6 -4 -6 -3 -10 2
-9 20 3 27 -2 13 -11 -12 -7 -10 -9 7 -7 18 1 20 4 10 16 -10 12 -9 14 4 9 10
-4 16 -1 16 8 0 8 -1 14 -1 14 -1 0 -8 -4 -16 -9z"/>
<path d="M4453 2565 c0 -7 8 -10 19 -7 10 2 18 6 18 7 0 1 -8 5 -18 7 -11 3
-19 0 -19 -7z"/>
<path d="M4615 2570 c-4 -6 -11 -8 -16 -5 -5 4 -9 2 -9 -3 0 -5 8 -12 18 -14
12 -4 18 1 18 13 0 22 -2 23 -11 9z"/>
<path d="M4654 2559 c0 -12 4 -15 12 -9 6 6 14 7 17 3 4 -3 7 -2 7 4 0 6 -8
13 -18 15 -12 4 -18 -1 -18 -13z"/>
<path d="M4235 2561 c-3 -5 -2 -12 3 -15 5 -3 9 1 9 9 0 17 -3 19 -12 6z"/>
<path d="M4553 2535 c0 -8 4 -12 9 -9 5 3 6 10 3 15 -9 13 -12 11 -12 -6z"/>
<path d="M4719 2543 c-1 -5 -1 -12 0 -17 1 -4 -3 -14 -8 -20 -8 -9 -7 -13 4
-13 8 0 11 5 8 10 -4 6 0 8 8 5 10 -4 15 1 15 12 0 11 -5 16 -15 12 -9 -3 -12
-1 -7 6 4 7 5 12 2 12 -3 0 -7 -3 -7 -7z"/>
<path d="M4826 2536 c6 -15 4 -17 -6 -11 -9 6 -11 4 -5 -4 5 -9 10 -10 18 -2
8 8 7 14 -2 24 -10 10 -11 8 -5 -7z"/>
<path d="M4530 2529 c0 -5 -4 -8 -9 -4 -5 3 -12 1 -15 -4 -4 -5 2 -8 11 -7 15
3 33 26 19 26 -3 0 -6 -5 -6 -11z"/>
<path d="M4270 2520 c0 -5 5 -10 10 -10 6 0 10 5 10 10 0 6 -4 10 -10 10 -5 0
-10 -4 -10 -10z"/>
<path d="M4425 2520 c-3 -6 1 -7 9 -4 18 7 21 14 7 14 -6 0 -13 -4 -16 -10z"/>
<path d="M4625 2519 c-4 -6 -4 -13 -1 -16 3 -4 6 -1 6 6 0 7 5 9 10 6 6 -3 10
-1 10 4 0 14 -17 14 -25 0z"/>
<path d="M4595 2511 c-3 -5 -2 -12 3 -15 5 -3 9 1 9 9 0 17 -3 19 -12 6z"/>
<path d="M4793 2505 c0 -8 4 -12 9 -9 5 3 6 10 3 15 -9 13 -12 11 -12 -6z"/>
<path d="M4242 2497 c-8 -9 -6 -16 7 -24 14 -9 18 -8 18 3 0 7 -5 10 -10 7 -6
-4 -8 0 -4 10 8 20 3 22 -11 4z"/>
<path d="M4348 2492 c5 -9 7 -24 4 -32 -2 -8 -2 -12 2 -9 14 13 14 48 0 53
-11 4 -12 1 -6 -12z"/>
<path d="M4439 2508 c-6 -20 -5 -38 2 -49 7 -10 8 -6 5 13 -3 15 1 29 7 32 9
3 9 5 0 5 -7 1 -13 0 -14 -1z"/>
<path d="M4492 2491 c-11 -7 -11 -9 0 -14 9 -3 15 1 15 9 0 8 -1 14 -1 14 -1
0 -7 -4 -14 -9z"/>
<path d="M4533 2485 c0 -7 8 -10 19 -7 10 2 18 6 18 7 0 1 -8 5 -18 7 -11 3
-19 0 -19 -7z"/>
<path d="M4656 2474 c-3 -7 2 -10 15 -7 22 6 26 20 4 20 -8 0 -16 -6 -19 -13z"/>
<path d="M4546 2461 c-4 -5 3 -7 14 -4 23 6 26 13 6 13 -8 0 -17 -4 -20 -9z"/>
<path d="M4410 2450 c-9 -6 -10 -10 -3 -10 6 0 15 5 18 10 8 12 4 12 -15 0z"/>
<path d="M4510 2446 c0 -2 7 -7 16 -10 8 -3 12 -2 9 4 -6 10 -25 14 -25 6z"/>
<path d="M4555 2441 c-3 -5 -2 -12 3 -15 5 -3 9 1 9 9 0 17 -3 19 -12 6z"/>
<path d="M4474 2415 c0 -13 3 -22 7 -19 8 4 6 30 -2 38 -3 3 -5 -5 -5 -19z"/>
<path d="M4257 2405 c3 -8 9 -12 14 -9 12 7 11 11 -5 17 -10 4 -13 1 -9 -8z"/>
<path d="M4608 2413 c-10 -2 -18 -9 -18 -15 0 -6 3 -8 7 -5 3 4 11 3 17 -3 8
-6 12 -3 12 11 0 10 0 18 -1 18 0 -1 -8 -3 -17 -6z"/>
<path d="M4713 2407 c0 -8 6 -14 14 -14 9 0 10 4 2 14 -6 7 -12 13 -14 13 -1
0 -2 -6 -2 -13z"/>
<path d="M4300 2400 c8 -5 20 -10 25 -10 6 0 3 5 -5 10 -8 5 -19 10 -25 10 -5
0 -3 -5 5 -10z"/>
<path d="M4386 2402 c-2 -4 4 -8 14 -8 10 0 16 4 14 8 -3 4 -9 8 -14 8 -5 0
-11 -4 -14 -8z"/>
<path d="M4276 2375 c-11 -8 -15 -15 -9 -15 6 0 16 7 23 15 16 19 11 19 -14 0z"/>
<path d="M4359 2388 c-9 -30 -6 -37 12 -28 23 13 25 22 2 13 -11 -4 -14 -3 -9
5 4 7 5 12 2 12 -3 0 -6 -1 -7 -2z"/>
<path d="M4435 2381 c6 -11 4 -13 -8 -8 -10 4 -14 2 -11 -7 6 -17 32 -16 30 0
-1 8 -6 17 -11 21 -4 5 -5 2 0 -6z"/>
<path d="M4556 2378 c5 -7 2 -9 -8 -6 -8 4 -15 0 -15 -7 0 -10 5 -11 19 -4 16
9 17 29 2 29 -3 0 -2 -5 2 -12z"/>
<path d="M4675 2380 c6 -10 4 -12 -8 -7 -21 8 -22 3 -3 -12 10 -9 15 -8 19 3
4 9 1 18 -5 22 -7 5 -8 2 -3 -6z"/>
<path d="M4719 2355 c-1 -3 -2 -8 -3 -12 -1 -5 -5 -15 -10 -23 -7 -12 -6 -13
4 -3 13 12 23 43 14 43 -2 0 -5 -2 -5 -5z"/>
<path d="M4300 2331 c0 -7 -5 -9 -12 -5 -7 5 -8 3 -3 -5 5 -9 10 -10 18 -2 6
6 8 14 4 18 -4 3 -7 1 -7 -6z"/>
<path d="M4453 2325 c0 -8 5 -11 10 -8 7 4 8 -1 3 -12 -5 -15 -4 -16 9 -5 9 7
14 13 13 14 -2 1 -10 7 -19 14 -13 9 -16 9 -16 -3z"/>
<path d="M4576 2326 c5 -14 40 -14 53 0 3 4 -1 4 -9 2 -8 -3 -23 -1 -32 4 -13
6 -16 5 -12 -6z"/>
<path d="M4550 2321 c0 -6 4 -13 10 -16 6 -3 7 1 4 9 -7 18 -14 21 -14 7z"/>
<path d="M4387 2293 c3 -7 6 -13 8 -13 2 0 5 6 8 13 3 8 -1 14 -8 14 -7 0 -11
-6 -8 -14z"/>
<path d="M4510 2295 c5 -7 8 -14 5 -17 -3 -2 2 -5 10 -5 8 0 16 6 19 13 3 9
-1 11 -11 7 -10 -4 -14 -2 -10 4 3 5 0 10 -8 10 -10 0 -12 -4 -5 -12z"/>
<path d="M4679 2308 c-11 -38 -1 -49 21 -23 11 13 10 14 -5 9 -13 -5 -16 -4
-11 4 4 7 5 12 2 12 -3 0 -6 -1 -7 -2z"/>
<path d="M4306 2282 c-3 -5 1 -9 9 -9 8 0 15 4 15 9 0 4 -4 8 -9 8 -6 0 -12
-4 -15 -8z"/>
<path d="M4410 2278 c0 -11 12 -10 30 2 12 7 10 9 -8 7 -12 0 -22 -5 -22 -9z"/>
<path d="M4613 2275 c0 -7 7 -11 15 -7 11 4 13 1 7 -8 -5 -9 -4 -11 3 -6 16
10 15 14 -6 25 -14 7 -19 6 -19 -4z"/>
<path d="M4468 2263 c7 -3 16 -2 19 1 4 3 -2 6 -13 5 -11 0 -14 -3 -6 -6z"/>
<path d="M4594 2248 c2 -15 0 -29 -5 -32 -5 -2 -4 -3 2 -2 15 3 20 29 8 47 -7
10 -8 6 -5 -13z"/>
<path d="M4334 2241 c0 -12 6 -17 18 -13 10 2 18 9 18 15 0 6 -3 7 -7 4 -3 -4
-11 -3 -17 3 -8 6 -12 3 -12 -9z"/>
<path d="M4650 2245 c-10 -13 -11 -18 -1 -28 10 -9 11 -8 5 7 -5 12 -4 17 3
13 5 -3 10 0 10 8 0 19 -2 19 -17 0z"/>
<path d="M4456 2238 c3 -5 8 -7 12 -4 3 3 11 -2 19 -12 12 -16 13 -16 6 2 -5
15 -3 17 8 11 8 -5 11 -4 6 1 -11 11 -58 13 -51 2z"/>
<path d="M4395 2221 c-3 -5 -2 -12 3 -15 5 -3 9 1 9 9 0 17 -3 19 -12 6z"/>
<path d="M4417 2201 c-4 -17 -3 -21 5 -13 5 5 8 16 6 23 -3 8 -7 3 -11 -10z"/>
<path d="M4514 2200 c0 -13 4 -16 10 -10 7 7 7 13 0 20 -6 6 -10 3 -10 -10z"/>
<path d="M4438 2192 c-3 -11 0 -19 7 -19 7 0 10 8 7 19 -2 10 -6 18 -7 18 -1
0 -5 -8 -7 -18z"/>
<path d="M4630 2200 c0 -5 5 -10 11 -10 5 0 7 5 4 10 -3 6 -8 10 -11 10 -2 0
-4 -4 -4 -10z"/>
<path d="M4355 2191 c-3 -5 0 -13 6 -17 8 -5 9 -3 4 6 -6 10 -4 12 9 7 10 -4
15 -3 11 3 -8 13 -22 13 -30 1z"/>
<path d="M4481 2176 c-9 -10 -8 -15 3 -19 9 -4 18 -1 22 5 5 7 2 8 -6 3 -10
-6 -12 -4 -7 8 8 21 3 22 -12 3z"/>
<path d="M4589 2184 c5 -3 7 -17 5 -32 -3 -19 -2 -23 5 -13 12 18 7 44 -8 47
-6 1 -7 0 -2 -2z"/>
<path d="M4666 2178 c3 -5 10 -6 15 -3 13 9 11 12 -6 12 -8 0 -12 -4 -9 -9z"/>
<path d="M4386 2158 c3 -4 9 -8 15 -8 5 0 9 4 9 8 0 5 -7 9 -15 9 -8 0 -12 -4
-9 -9z"/>
<path d="M4335 2140 c-3 -6 1 -7 9 -4 18 7 21 14 7 14 -6 0 -13 -4 -16 -10z"/>
<path d="M4438 2128 c2 -10 6 -18 7 -18 1 0 5 8 7 18 3 11 0 19 -7 19 -7 0
-10 -8 -7 -19z"/>
<path d="M4617 2129 c7 -7 15 -10 18 -7 3 3 -2 9 -12 12 -14 6 -15 5 -6 -5z"/>
<path d="M4421 2114 c0 -11 3 -14 6 -6 3 7 2 16 -1 19 -3 4 -6 -2 -5 -13z"/>
<path d="M4515 2122 c3 -3 0 -10 -5 -17 -7 -8 -5 -12 5 -12 8 0 11 5 8 10 -4
6 0 8 10 4 10 -4 14 -2 11 7 -3 7 -11 13 -19 13 -8 0 -13 -3 -10 -5z"/>
<path d="M4571 2084 c0 -11 3 -14 6 -6 3 7 2 16 -1 19 -3 4 -6 -2 -5 -13z"/>
<path d="M4353 2083 c4 -3 3 -11 -3 -17 -6 -8 -3 -12 9 -12 12 0 17 6 13 18
-2 10 -9 18 -15 18 -6 0 -7 -3 -4 -7z"/>
<path d="M4475 2080 c-3 -5 -3 -10 2 -10 4 0 1 -5 -7 -11 -12 -8 -12 -10 -1
-7 8 2 15 12 17 21 3 19 -2 22 -11 7z"/>
<path d="M4410 2042 c0 -4 10 -9 22 -9 18 -2 20 0 8 7 -18 12 -30 13 -30 2z"/>
</g>
</svg>
